<svg width="64" height="65" viewBox="0 0 64 65" fill="none" xmlns="http://www.w3.org/2000/svg">
<g clip-path="url(#clip0_133_4525)">
<path opacity="0.9" d="M7.99967 38.2438C7.99967 24.989 18.7448 14.2438 31.9997 14.2438C45.2545 14.2438 55.9997 24.989 55.9997 38.2438C55.9997 43.1809 54.5116 47.7641 51.9586 51.5771H12.0426C9.48885 47.7637 7.99967 43.1809 7.99967 38.2438Z" stroke="url(#paint0_linear_133_4525)" stroke-width="5.33333"/>
<circle cx="32.0003" cy="38.2435" r="5.33333" fill="url(#paint1_linear_133_4525)"/>
<g filter="url(#filter0_bdi_133_4525)">
<path d="M35.7706 42.0157C33.6878 44.0985 30.3109 44.0985 28.2281 42.0157C26.1453 39.9329 26.1453 36.556 28.2281 34.4732C30.3109 32.3904 53.3329 16.9102 53.3329 16.9102C53.3329 16.9102 37.8534 39.9329 35.7706 42.0157Z" fill="url(#paint2_linear_133_4525)"/>
<path d="M35.7706 42.0157C33.6878 44.0985 30.3109 44.0985 28.2281 42.0157C26.1453 39.9329 26.1453 36.556 28.2281 34.4732C30.3109 32.3904 53.3329 16.9102 53.3329 16.9102C53.3329 16.9102 37.8534 39.9329 35.7706 42.0157Z" fill="url(#paint3_linear_133_4525)" fill-opacity="0.6"/>
<path d="M35.7706 42.0157C33.6878 44.0985 30.3109 44.0985 28.2281 42.0157C26.1453 39.9329 26.1453 36.556 28.2281 34.4732C30.3109 32.3904 53.3329 16.9102 53.3329 16.9102C53.3329 16.9102 37.8534 39.9329 35.7706 42.0157Z" fill="url(#paint4_linear_133_4525)" fill-opacity="0.25"/>
<path d="M35.582 41.8271C33.6034 43.8058 30.3953 43.8058 28.4167 41.8271C26.438 39.8485 26.438 36.6405 28.4167 34.6618C28.6613 34.4172 29.2328 33.9589 30.065 33.3338C30.8912 32.7132 31.9592 31.9391 33.184 31.0676C35.6334 29.3247 38.705 27.1954 41.7125 25.1305C44.7198 23.0657 47.6621 21.0659 49.8527 19.5823C50.8687 18.8941 51.723 18.317 52.347 17.896C51.926 18.52 51.349 19.3744 50.6609 20.3905C49.1773 22.5811 47.1776 25.5236 45.1129 28.531C43.0481 31.5386 40.9189 34.6102 39.1761 37.0597C38.3046 38.2845 37.5306 39.3526 36.91 40.1788C36.2849 41.011 35.8266 41.5826 35.582 41.8271Z" stroke="url(#paint5_linear_133_4525)" stroke-opacity="0.5" stroke-width="0.533333"/>
</g>
</g>
<defs>
<filter id="filter0_bdi_133_4525" x="-58.5943" y="-68.3502" width="197.188" height="197.189" filterUnits="userSpaceOnUse" color-interpolation-filters="sRGB">
<feFlood flood-opacity="0" result="BackgroundImageFix"/>
<feGaussianBlur in="BackgroundImageFix" stdDeviation="42.6302"/>
<feComposite in2="SourceAlpha" operator="in" result="effect1_backgroundBlur_133_4525"/>
<feColorMatrix in="SourceAlpha" type="matrix" values="0 0 0 0 0 0 0 0 0 0 0 0 0 0 0 0 0 0 127 0" result="hardAlpha"/>
<feOffset dy="10.6575"/>
<feGaussianBlur stdDeviation="10.6575"/>
<feColorMatrix type="matrix" values="0 0 0 0 0 0 0 0 0 0 0 0 0 0 0 0 0 0 0.03 0"/>
<feBlend mode="normal" in2="effect1_backgroundBlur_133_4525" result="effect2_dropShadow_133_4525"/>
<feBlend mode="normal" in="SourceGraphic" in2="effect2_dropShadow_133_4525" result="shape"/>
<feColorMatrix in="SourceAlpha" type="matrix" values="0 0 0 0 0 0 0 0 0 0 0 0 0 0 0 0 0 0 127 0" result="hardAlpha"/>
<feOffset dx="-1.06575" dy="-0.532877"/>
<feGaussianBlur stdDeviation="10.6575"/>
<feComposite in2="hardAlpha" operator="arithmetic" k2="-1" k3="1"/>
<feColorMatrix type="matrix" values="0 0 0 0 1 0 0 0 0 1 0 0 0 0 1 0 0 0 0.2 0"/>
<feBlend mode="normal" in2="shape" result="effect3_innerShadow_133_4525"/>
</filter>
<linearGradient id="paint0_linear_133_4525" x1="31.9997" y1="10.7361" x2="31.9997" y2="54.2438" gradientUnits="userSpaceOnUse">
<stop stop-color="#A9A1ED"/>
<stop offset="1" stop-color="#3B28CC"/>
</linearGradient>
<linearGradient id="paint1_linear_133_4525" x1="32.0003" y1="32.6999" x2="32.0003" y2="43.5768" gradientUnits="userSpaceOnUse">
<stop stop-color="#A9A1ED"/>
<stop offset="1" stop-color="#3B28CC"/>
</linearGradient>
<linearGradient id="paint2_linear_133_4525" x1="39.9994" y1="16.9102" x2="39.9994" y2="43.5778" gradientUnits="userSpaceOnUse">
<stop offset="0.572917" stop-color="white" stop-opacity="0"/>
<stop offset="1" stop-color="white" stop-opacity="0.08"/>
</linearGradient>
<linearGradient id="paint3_linear_133_4525" x1="26.666" y1="16.9102" x2="40.0001" y2="43.5775" gradientUnits="userSpaceOnUse">
<stop stop-color="white" stop-opacity="0.1"/>
<stop offset="1" stop-color="white" stop-opacity="0"/>
</linearGradient>
<linearGradient id="paint4_linear_133_4525" x1="39.9994" y1="16.9102" x2="26.6654" y2="43.5775" gradientUnits="userSpaceOnUse">
<stop stop-color="white" stop-opacity="0.5"/>
<stop offset="1" stop-color="white" stop-opacity="0.1"/>
</linearGradient>
<linearGradient id="paint5_linear_133_4525" x1="50.6664" y1="19.5772" x2="28.2279" y2="42.0157" gradientUnits="userSpaceOnUse">
<stop stop-color="white"/>
<stop offset="1" stop-color="white" stop-opacity="0"/>
</linearGradient>
<clipPath id="clip0_133_4525">
<rect width="64" height="64" fill="white" transform="translate(0 0.910156)"/>
</clipPath>
</defs>
</svg>
