<svg width="17" height="17" viewBox="0 0 17 17" fill="none" xmlns="http://www.w3.org/2000/svg">
<path d="M15.5 13.4102H15V6.91016C15 6.64494 14.8946 6.39059 14.7071 6.20305C14.5196 6.01551 14.2652 5.91016 14 5.91016H10V2.91016C10 2.64494 9.89464 2.39059 9.70711 2.20305C9.51957 2.01551 9.26522 1.91016 9 1.91016H3C2.73478 1.91016 2.48043 2.01551 2.29289 2.20305C2.10536 2.39059 2 2.64494 2 2.91016V13.4102H1.5C1.36739 13.4102 1.24021 13.4628 1.14645 13.5566C1.05268 13.6504 1 13.7775 1 13.9102C1 14.0428 1.05268 14.1699 1.14645 14.2637C1.24021 14.3575 1.36739 14.4102 1.5 14.4102H15.5C15.6326 14.4102 15.7598 14.3575 15.8536 14.2637C15.9473 14.1699 16 14.0428 16 13.9102C16 13.7775 15.9473 13.6504 15.8536 13.5566C15.7598 13.4628 15.6326 13.4102 15.5 13.4102ZM8 8.91016C8 9.04276 7.94732 9.16994 7.85355 9.26371C7.75979 9.35748 7.63261 9.41016 7.5 9.41016H5.5C5.36739 9.41016 5.24021 9.35748 5.14645 9.26371C5.05268 9.16994 5 9.04276 5 8.91016C5 8.77755 5.05268 8.65037 5.14645 8.5566C5.24021 8.46283 5.36739 8.41016 5.5 8.41016H7.5C7.63261 8.41016 7.75979 8.46283 7.85355 8.5566C7.94732 8.65037 8 8.77755 8 8.91016ZM4.5 4.41016H6.5C6.63261 4.41016 6.75979 4.46283 6.85355 4.5566C6.94732 4.65037 7 4.77755 7 4.91016C7 5.04276 6.94732 5.16994 6.85355 5.26371C6.75979 5.35748 6.63261 5.41016 6.5 5.41016H4.5C4.36739 5.41016 4.24021 5.35748 4.14645 5.26371C4.05268 5.16994 4 5.04276 4 4.91016C4 4.77755 4.05268 4.65037 4.14645 4.5566C4.24021 4.46283 4.36739 4.41016 4.5 4.41016ZM4.5 10.9102H6.5C6.63261 10.9102 6.75979 10.9628 6.85355 11.0566C6.94732 11.1504 7 11.2775 7 11.4102C7 11.5428 6.94732 11.6699 6.85355 11.7637C6.75979 11.8575 6.63261 11.9102 6.5 11.9102H4.5C4.36739 11.9102 4.24021 11.8575 4.14645 11.7637C4.05268 11.6699 4 11.5428 4 11.4102C4 11.2775 4.05268 11.1504 4.14645 11.0566C4.24021 10.9628 4.36739 10.9102 4.5 10.9102ZM10 6.91016H14V13.4102H10V6.91016Z" fill="#3B28CC"/>
<path d="M15.5 13.4102H15V6.91016C15 6.64494 14.8946 6.39059 14.7071 6.20305C14.5196 6.01551 14.2652 5.91016 14 5.91016H10V2.91016C10 2.64494 9.89464 2.39059 9.70711 2.20305C9.51957 2.01551 9.26522 1.91016 9 1.91016H3C2.73478 1.91016 2.48043 2.01551 2.29289 2.20305C2.10536 2.39059 2 2.64494 2 2.91016V13.4102H1.5C1.36739 13.4102 1.24021 13.4628 1.14645 13.5566C1.05268 13.6504 1 13.7775 1 13.9102C1 14.0428 1.05268 14.1699 1.14645 14.2637C1.24021 14.3575 1.36739 14.4102 1.5 14.4102H15.5C15.6326 14.4102 15.7598 14.3575 15.8536 14.2637C15.9473 14.1699 16 14.0428 16 13.9102C16 13.7775 15.9473 13.6504 15.8536 13.5566C15.7598 13.4628 15.6326 13.4102 15.5 13.4102ZM8 8.91016C8 9.04276 7.94732 9.16994 7.85355 9.26371C7.75979 9.35748 7.63261 9.41016 7.5 9.41016H5.5C5.36739 9.41016 5.24021 9.35748 5.14645 9.26371C5.05268 9.16994 5 9.04276 5 8.91016C5 8.77755 5.05268 8.65037 5.14645 8.5566C5.24021 8.46283 5.36739 8.41016 5.5 8.41016H7.5C7.63261 8.41016 7.75979 8.46283 7.85355 8.5566C7.94732 8.65037 8 8.77755 8 8.91016ZM4.5 4.41016H6.5C6.63261 4.41016 6.75979 4.46283 6.85355 4.5566C6.94732 4.65037 7 4.77755 7 4.91016C7 5.04276 6.94732 5.16994 6.85355 5.26371C6.75979 5.35748 6.63261 5.41016 6.5 5.41016H4.5C4.36739 5.41016 4.24021 5.35748 4.14645 5.26371C4.05268 5.16994 4 5.04276 4 4.91016C4 4.77755 4.05268 4.65037 4.14645 4.5566C4.24021 4.46283 4.36739 4.41016 4.5 4.41016ZM4.5 10.9102H6.5C6.63261 10.9102 6.75979 10.9628 6.85355 11.0566C6.94732 11.1504 7 11.2775 7 11.4102C7 11.5428 6.94732 11.6699 6.85355 11.7637C6.75979 11.8575 6.63261 11.9102 6.5 11.9102H4.5C4.36739 11.9102 4.24021 11.8575 4.14645 11.7637C4.05268 11.6699 4 11.5428 4 11.4102C4 11.2775 4.05268 11.1504 4.14645 11.0566C4.24021 10.9628 4.36739 10.9102 4.5 10.9102ZM10 6.91016H14V13.4102H10V6.91016Z" fill="url(#paint0_linear_132_4425)" fill-opacity="0.4"/>
<path d="M12.5 10.9102H11.5C11.3674 10.9102 11.2402 10.9628 11.1464 11.0566C11.0527 11.1504 11 11.2775 11 11.4102C11 11.5428 11.0527 11.6699 11.1464 11.7637C11.2402 11.8575 11.3674 11.9102 11.5 11.9102H12.5C12.6326 11.9102 12.7598 11.8575 12.8536 11.7637C12.9473 11.6699 13 11.5428 13 11.4102C13 11.2775 12.9473 11.1504 12.8536 11.0566C12.7598 10.9628 12.6326 10.9102 12.5 10.9102Z" fill="black"/>
<path d="M11.5 9.41016H12.5C12.6326 9.41016 12.7598 9.35748 12.8536 9.26371C12.9473 9.16994 13 9.04276 13 8.91016C13 8.77755 12.9473 8.65037 12.8536 8.5566C12.7598 8.46283 12.6326 8.41016 12.5 8.41016H11.5C11.3674 8.41016 11.2402 8.46283 11.1464 8.5566C11.0527 8.65037 11 8.77755 11 8.91016C11 9.04276 11.0527 9.16994 11.1464 9.26371C11.2402 9.35748 11.3674 9.41016 11.5 9.41016Z" fill="black"/>
<defs>
<linearGradient id="paint0_linear_132_4425" x1="1" y1="1.91016" x2="8.89198" y2="17.9151" gradientUnits="userSpaceOnUse">
<stop stop-color="#9D71FF"/>
<stop offset="1" stop-color="#4B78EC"/>
</linearGradient>
</defs>
</svg>
