<svg width="10" height="10" viewBox="0 0 10 10" fill="none" xmlns="http://www.w3.org/2000/svg">
<path d="M0.749985 8.40952H5.24998C5.44001 8.40958 5.62293 8.48177 5.76178 8.6115C5.90063 8.74122 5.98506 8.91882 5.99801 9.1084C6.01096 9.29798 5.95147 9.48541 5.83155 9.63282C5.71164 9.78023 5.54024 9.87662 5.35198 9.90252L5.24998 9.90952H0.749985C0.559961 9.90946 0.377044 9.83728 0.238193 9.70755C0.0993424 9.57782 0.014911 9.40022 0.00195901 9.21064C-0.010993 9.02106 0.0485002 8.83363 0.168417 8.68622C0.288335 8.53882 0.459735 8.44242 0.647985 8.41652L0.749985 8.40952ZM2.21998 2.62952C2.3471 2.50265 2.51552 2.42561 2.69462 2.4124C2.87373 2.39919 3.05163 2.45068 3.19599 2.55752L3.27999 2.63052L6.77998 6.13052C6.91294 6.26452 6.99048 6.44373 6.99712 6.63238C7.00377 6.82103 6.93903 7.00525 6.81582 7.14827C6.69262 7.2913 6.52002 7.3826 6.33246 7.40396C6.14491 7.42532 5.95619 7.37517 5.80398 7.26352L5.71999 7.19052L2.21998 3.69052C2.07953 3.5499 2.00064 3.35927 2.00064 3.16052C2.00064 2.96177 2.07953 2.77015 2.21998 2.62952ZM8.74998 0.410522C8.93122 0.41053 9.10633 0.476165 9.24292 0.595289C9.3795 0.714414 9.46834 0.878969 9.49298 1.05852L9.49998 1.16052V5.66052C9.49993 5.85055 9.42774 6.03346 9.29801 6.17231C9.16828 6.31116 8.99069 6.3956 8.8011 6.40855C8.61152 6.4215 8.42409 6.36201 8.27669 6.24209C8.12928 6.12217 8.03289 5.95077 8.00698 5.76252L7.99998 5.66052V1.16052C7.99998 0.96161 8.079 0.770845 8.21966 0.630192C8.36031 0.48954 8.55107 0.410522 8.74998 0.410522Z" fill="#3B28CC"/>
<path d="M0.749985 8.40952H5.24998C5.44001 8.40958 5.62293 8.48177 5.76178 8.6115C5.90063 8.74122 5.98506 8.91882 5.99801 9.1084C6.01096 9.29798 5.95147 9.48541 5.83155 9.63282C5.71164 9.78023 5.54024 9.87662 5.35198 9.90252L5.24998 9.90952H0.749985C0.559961 9.90946 0.377044 9.83728 0.238193 9.70755C0.0993424 9.57782 0.014911 9.40022 0.00195901 9.21064C-0.010993 9.02106 0.0485002 8.83363 0.168417 8.68622C0.288335 8.53882 0.459735 8.44242 0.647985 8.41652L0.749985 8.40952ZM2.21998 2.62952C2.3471 2.50265 2.51552 2.42561 2.69462 2.4124C2.87373 2.39919 3.05163 2.45068 3.19599 2.55752L3.27999 2.63052L6.77998 6.13052C6.91294 6.26452 6.99048 6.44373 6.99712 6.63238C7.00377 6.82103 6.93903 7.00525 6.81582 7.14827C6.69262 7.2913 6.52002 7.3826 6.33246 7.40396C6.14491 7.42532 5.95619 7.37517 5.80398 7.26352L5.71999 7.19052L2.21998 3.69052C2.07953 3.5499 2.00064 3.35927 2.00064 3.16052C2.00064 2.96177 2.07953 2.77015 2.21998 2.62952ZM8.74998 0.410522C8.93122 0.41053 9.10633 0.476165 9.24292 0.595289C9.3795 0.714414 9.46834 0.878969 9.49298 1.05852L9.49998 1.16052V5.66052C9.49993 5.85055 9.42774 6.03346 9.29801 6.17231C9.16828 6.31116 8.99069 6.3956 8.8011 6.40855C8.61152 6.4215 8.42409 6.36201 8.27669 6.24209C8.12928 6.12217 8.03289 5.95077 8.00698 5.76252L7.99998 5.66052V1.16052C7.99998 0.96161 8.079 0.770845 8.21966 0.630192C8.36031 0.48954 8.55107 0.410522 8.74998 0.410522Z" fill="url(#paint0_linear_24_2015)" fill-opacity="0.4"/>
<defs>
<linearGradient id="paint0_linear_24_2015" x1="0.000213623" y1="0.410522" x2="6.62642" y2="11.6097" gradientUnits="userSpaceOnUse">
<stop stop-color="#9D71FF"/>
<stop offset="1" stop-color="#4B78EC"/>
</linearGradient>
</defs>
</svg>
