<svg width="64" height="65" viewBox="0 0 64 65" fill="none" xmlns="http://www.w3.org/2000/svg">
<g clip-path="url(#clip0_105_8922)">
<g filter="url(#filter0_ddd_105_8922)">
<path fill-rule="evenodd" clip-rule="evenodd" d="M30 56.9102C28.8954 56.9102 28 56.0147 28 54.9102V50.9102H8V46.9102C8 43.5964 10.6863 40.9102 14 40.9102H28L28 22.9102H36L36 40.9102H50C53.3137 40.9102 56 43.5964 56 46.9102V50.9102H36V54.9102C36 56.0147 35.1046 56.9102 34 56.9102H30Z" fill="url(#paint0_linear_105_8922)" fill-opacity="0.5"/>
<path fill-rule="evenodd" clip-rule="evenodd" d="M30 56.9102C28.8954 56.9102 28 56.0147 28 54.9102V50.9102H8V46.9102C8 43.5964 10.6863 40.9102 14 40.9102H28L28 22.9102H36L36 40.9102H50C53.3137 40.9102 56 43.5964 56 46.9102V50.9102H36V54.9102C36 56.0147 35.1046 56.9102 34 56.9102H30Z" fill="url(#paint1_linear_105_8922)"/>
</g>
<g filter="url(#filter1_bdi_105_8922)">
<path d="M52 50.9102C52 54.2239 49.3137 56.9102 46 56.9102L18 56.9102C14.6863 56.9102 12 54.2239 12 50.9102L52 50.9102Z" fill="url(#paint2_linear_105_8922)"/>
<path d="M52 50.9102C52 54.2239 49.3137 56.9102 46 56.9102L18 56.9102C14.6863 56.9102 12 54.2239 12 50.9102L52 50.9102Z" fill="url(#paint3_linear_105_8922)" fill-opacity="0.6"/>
<path d="M52 50.9102C52 54.2239 49.3137 56.9102 46 56.9102L18 56.9102C14.6863 56.9102 12 54.2239 12 50.9102L52 50.9102Z" fill="url(#paint4_linear_105_8922)" fill-opacity="0.25"/>
<path d="M51.4776 51.4102C51.225 54.2134 48.869 56.4102 46 56.4102L18 56.4102C15.131 56.4102 12.775 54.2134 12.5224 51.4102L51.4776 51.4102Z" stroke="url(#paint5_linear_105_8922)" stroke-opacity="0.5"/>
</g>
<g filter="url(#filter2_ddd_105_8922)">
<path d="M23.2536 18.8169C21.2079 13.5715 25.0767 7.91016 30.7069 7.91016H33.2931C38.9233 7.91016 42.7921 13.5715 40.7464 18.8169L37.2 27.9102L26.8 27.9102L23.2536 18.8169Z" fill="url(#paint6_linear_105_8922)" fill-opacity="0.5"/>
<path d="M23.2536 18.8169C21.2079 13.5715 25.0767 7.91016 30.7069 7.91016H33.2931C38.9233 7.91016 42.7921 13.5715 40.7464 18.8169L37.2 27.9102L26.8 27.9102L23.2536 18.8169Z" fill="url(#paint7_linear_105_8922)"/>
</g>
</g>
<defs>
<filter id="filter0_ddd_105_8922" x="-4" y="14.9102" width="72" height="58" filterUnits="userSpaceOnUse" color-interpolation-filters="sRGB">
<feFlood flood-opacity="0" result="BackgroundImageFix"/>
<feColorMatrix in="SourceAlpha" type="matrix" values="0 0 0 0 0 0 0 0 0 0 0 0 0 0 0 0 0 0 127 0" result="hardAlpha"/>
<feOffset/>
<feGaussianBlur stdDeviation="1"/>
<feColorMatrix type="matrix" values="0 0 0 0 0.662745 0 0 0 0 0.631373 0 0 0 0 0.929412 0 0 0 0.04 0"/>
<feBlend mode="normal" in2="BackgroundImageFix" result="effect1_dropShadow_105_8922"/>
<feColorMatrix in="SourceAlpha" type="matrix" values="0 0 0 0 0 0 0 0 0 0 0 0 0 0 0 0 0 0 127 0" result="hardAlpha"/>
<feOffset dy="4"/>
<feGaussianBlur stdDeviation="6"/>
<feColorMatrix type="matrix" values="0 0 0 0 0.662745 0 0 0 0 0.631373 0 0 0 0 0.929412 0 0 0 0.04 0"/>
<feBlend mode="normal" in2="effect1_dropShadow_105_8922" result="effect2_dropShadow_105_8922"/>
<feColorMatrix in="SourceAlpha" type="matrix" values="0 0 0 0 0 0 0 0 0 0 0 0 0 0 0 0 0 0 127 0" result="hardAlpha"/>
<feOffset dy="4"/>
<feGaussianBlur stdDeviation="4"/>
<feColorMatrix type="matrix" values="0 0 0 0 0.662745 0 0 0 0 0.631373 0 0 0 0 0.929412 0 0 0 0.06 0"/>
<feBlend mode="normal" in2="effect2_dropShadow_105_8922" result="effect3_dropShadow_105_8922"/>
<feBlend mode="normal" in="SourceGraphic" in2="effect3_dropShadow_105_8922" result="shape"/>
</filter>
<filter id="filter1_bdi_105_8922" x="-20.3432" y="18.5669" width="104.686" height="70.6865" filterUnits="userSpaceOnUse" color-interpolation-filters="sRGB">
<feFlood flood-opacity="0" result="BackgroundImageFix"/>
<feGaussianBlur in="BackgroundImageFix" stdDeviation="16.1716"/>
<feComposite in2="SourceAlpha" operator="in" result="effect1_backgroundBlur_105_8922"/>
<feColorMatrix in="SourceAlpha" type="matrix" values="0 0 0 0 0 0 0 0 0 0 0 0 0 0 0 0 0 0 127 0" result="hardAlpha"/>
<feOffset dy="4.0429"/>
<feGaussianBlur stdDeviation="4.0429"/>
<feColorMatrix type="matrix" values="0 0 0 0 0 0 0 0 0 0 0 0 0 0 0 0 0 0 0.03 0"/>
<feBlend mode="normal" in2="effect1_backgroundBlur_105_8922" result="effect2_dropShadow_105_8922"/>
<feBlend mode="normal" in="SourceGraphic" in2="effect2_dropShadow_105_8922" result="shape"/>
<feColorMatrix in="SourceAlpha" type="matrix" values="0 0 0 0 0 0 0 0 0 0 0 0 0 0 0 0 0 0 127 0" result="hardAlpha"/>
<feOffset dx="-0.40429" dy="-0.202145"/>
<feGaussianBlur stdDeviation="4.0429"/>
<feComposite in2="hardAlpha" operator="arithmetic" k2="-1" k3="1"/>
<feColorMatrix type="matrix" values="0 0 0 0 1 0 0 0 0 1 0 0 0 0 1 0 0 0 0.2 0"/>
<feBlend mode="normal" in2="shape" result="effect3_innerShadow_105_8922"/>
</filter>
<filter id="filter2_ddd_105_8922" x="10.6992" y="-0.0898438" width="42.6016" height="44" filterUnits="userSpaceOnUse" color-interpolation-filters="sRGB">
<feFlood flood-opacity="0" result="BackgroundImageFix"/>
<feColorMatrix in="SourceAlpha" type="matrix" values="0 0 0 0 0 0 0 0 0 0 0 0 0 0 0 0 0 0 127 0" result="hardAlpha"/>
<feOffset/>
<feGaussianBlur stdDeviation="1"/>
<feColorMatrix type="matrix" values="0 0 0 0 0.662745 0 0 0 0 0.631373 0 0 0 0 0.929412 0 0 0 0.04 0"/>
<feBlend mode="normal" in2="BackgroundImageFix" result="effect1_dropShadow_105_8922"/>
<feColorMatrix in="SourceAlpha" type="matrix" values="0 0 0 0 0 0 0 0 0 0 0 0 0 0 0 0 0 0 127 0" result="hardAlpha"/>
<feOffset dy="4"/>
<feGaussianBlur stdDeviation="6"/>
<feColorMatrix type="matrix" values="0 0 0 0 0.662745 0 0 0 0 0.631373 0 0 0 0 0.929412 0 0 0 0.04 0"/>
<feBlend mode="normal" in2="effect1_dropShadow_105_8922" result="effect2_dropShadow_105_8922"/>
<feColorMatrix in="SourceAlpha" type="matrix" values="0 0 0 0 0 0 0 0 0 0 0 0 0 0 0 0 0 0 127 0" result="hardAlpha"/>
<feOffset dy="4"/>
<feGaussianBlur stdDeviation="4"/>
<feColorMatrix type="matrix" values="0 0 0 0 0.662745 0 0 0 0 0.631373 0 0 0 0 0.929412 0 0 0 0.06 0"/>
<feBlend mode="normal" in2="effect2_dropShadow_105_8922" result="effect3_dropShadow_105_8922"/>
<feBlend mode="normal" in="SourceGraphic" in2="effect3_dropShadow_105_8922" result="shape"/>
</filter>
<linearGradient id="paint0_linear_105_8922" x1="32" y1="40.9102" x2="32" y2="50.9102" gradientUnits="userSpaceOnUse">
<stop stop-color="white"/>
<stop offset="1" stop-color="white" stop-opacity="0"/>
</linearGradient>
<linearGradient id="paint1_linear_105_8922" x1="32" y1="22.9102" x2="56" y2="56.9102" gradientUnits="userSpaceOnUse">
<stop stop-color="#A9A1ED"/>
<stop offset="1" stop-color="#3B28CC"/>
</linearGradient>
<linearGradient id="paint2_linear_105_8922" x1="32" y1="56.9102" x2="32" y2="50.9102" gradientUnits="userSpaceOnUse">
<stop offset="0.572917" stop-color="white" stop-opacity="0"/>
<stop offset="1" stop-color="white" stop-opacity="0.08"/>
</linearGradient>
<linearGradient id="paint3_linear_105_8922" x1="52" y1="56.9102" x2="51.4406" y2="49.4521" gradientUnits="userSpaceOnUse">
<stop stop-color="white" stop-opacity="0.1"/>
<stop offset="1" stop-color="white" stop-opacity="0"/>
</linearGradient>
<linearGradient id="paint4_linear_105_8922" x1="32" y1="56.9102" x2="32.5594" y2="49.4521" gradientUnits="userSpaceOnUse">
<stop stop-color="white" stop-opacity="0.5"/>
<stop offset="1" stop-color="white" stop-opacity="0.1"/>
</linearGradient>
<linearGradient id="paint5_linear_105_8922" x1="32" y1="56.9102" x2="32" y2="50.9102" gradientUnits="userSpaceOnUse">
<stop stop-color="white"/>
<stop offset="1" stop-color="white" stop-opacity="0"/>
</linearGradient>
<linearGradient id="paint6_linear_105_8922" x1="32" y1="7.91016" x2="32" y2="27.9102" gradientUnits="userSpaceOnUse">
<stop stop-color="white"/>
<stop offset="1" stop-color="white" stop-opacity="0"/>
</linearGradient>
<linearGradient id="paint7_linear_105_8922" x1="32" y1="7.51592" x2="45" y2="27.9102" gradientUnits="userSpaceOnUse">
<stop stop-color="#A9A1ED"/>
<stop offset="1" stop-color="#3B28CC"/>
</linearGradient>
<clipPath id="clip0_105_8922">
<rect width="64" height="64" fill="white" transform="translate(0 0.910156)"/>
</clipPath>
</defs>
</svg>
