<svg width="64" height="65" viewBox="0 0 64 65" fill="none" xmlns="http://www.w3.org/2000/svg">
<g clip-path="url(#clip0_133_4533)">
<g filter="url(#filter0_ddd_133_4533)">
<path d="M24.2254 32.1676L32.1437 40.086L11.8569 60.3729C9.67027 62.5594 6.1251 62.5594 3.93851 60.3729C1.75191 58.1863 1.75191 54.6411 3.93851 52.4545L24.2254 32.1676Z" fill="#D9D9D9"/>
<path d="M24.2254 32.1676L32.1437 40.086L11.8569 60.3729C9.67027 62.5594 6.1251 62.5594 3.93851 60.3729C1.75191 58.1863 1.75191 54.6411 3.93851 52.4545L24.2254 32.1676Z" fill="url(#paint0_linear_133_4533)"/>
<path d="M27.2246 37.0861C32.7701 42.6316 41.7612 42.6316 47.3067 37.0861C51.2751 33.1177 52.4037 27.3848 50.6925 22.4128L42.6277 30.4776L35.7489 28.5625L33.8337 21.6837L41.8989 13.6185C36.9267 11.9068 31.1933 13.0353 27.2246 17.0039C21.6791 22.5495 21.6791 31.5405 27.2246 37.0861Z" fill="#D9D9D9"/>
<path d="M27.2246 37.0861C32.7701 42.6316 41.7612 42.6316 47.3067 37.0861C51.2751 33.1177 52.4037 27.3848 50.6925 22.4128L42.6277 30.4776L35.7489 28.5625L33.8337 21.6837L41.8989 13.6185C36.9267 11.9068 31.1933 13.0353 27.2246 17.0039C21.6791 22.5495 21.6791 31.5405 27.2246 37.0861Z" fill="url(#paint1_linear_133_4533)"/>
</g>
<g filter="url(#filter1_dddd_133_4533)">
<g filter="url(#filter2_bdi_133_4533)">
<path fill-rule="evenodd" clip-rule="evenodd" d="M32.1132 14.2755C31.5274 14.8613 30.5777 14.8613 29.9919 14.2755L27.1737 11.4574C26.5879 10.8716 26.5879 9.92184 27.1737 9.33605C27.7595 8.75026 28.7092 8.75026 29.295 9.33605L32.1132 12.1542C32.699 12.74 32.699 13.6898 32.1132 14.2755ZM55.5753 37.7383C54.9895 38.3241 54.0397 38.3241 53.454 37.7383L50.6358 34.9202C50.05 34.3344 50.05 33.3846 50.6358 32.7989C51.2216 32.2131 52.1713 32.2131 52.7571 32.7989L55.5753 35.617C56.1611 36.2028 56.1611 37.1526 55.5753 37.7383Z" fill="url(#paint2_linear_133_4533)"/>
<path fill-rule="evenodd" clip-rule="evenodd" d="M32.1132 14.2755C31.5274 14.8613 30.5777 14.8613 29.9919 14.2755L27.1737 11.4574C26.5879 10.8716 26.5879 9.92184 27.1737 9.33605C27.7595 8.75026 28.7092 8.75026 29.295 9.33605L32.1132 12.1542C32.699 12.74 32.699 13.6898 32.1132 14.2755ZM55.5753 37.7383C54.9895 38.3241 54.0397 38.3241 53.454 37.7383L50.6358 34.9202C50.05 34.3344 50.05 33.3846 50.6358 32.7989C51.2216 32.2131 52.1713 32.2131 52.7571 32.7989L55.5753 35.617C56.1611 36.2028 56.1611 37.1526 55.5753 37.7383Z" fill="url(#paint3_linear_133_4533)" fill-opacity="0.6"/>
<path fill-rule="evenodd" clip-rule="evenodd" d="M32.1132 14.2755C31.5274 14.8613 30.5777 14.8613 29.9919 14.2755L27.1737 11.4574C26.5879 10.8716 26.5879 9.92184 27.1737 9.33605C27.7595 8.75026 28.7092 8.75026 29.295 9.33605L32.1132 12.1542C32.699 12.74 32.699 13.6898 32.1132 14.2755ZM55.5753 37.7383C54.9895 38.3241 54.0397 38.3241 53.454 37.7383L50.6358 34.9202C50.05 34.3344 50.05 33.3846 50.6358 32.7989C51.2216 32.2131 52.1713 32.2131 52.7571 32.7989L55.5753 35.617C56.1611 36.2028 56.1611 37.1526 55.5753 37.7383Z" fill="url(#paint4_linear_133_4533)" fill-opacity="0.25"/>
</g>
<g filter="url(#filter3_bdi_133_4533)">
<path fill-rule="evenodd" clip-rule="evenodd" d="M28.2765 23.5371C28.2765 24.3655 27.6049 25.0371 26.7765 25.0371L22.791 25.0371C21.9626 25.0371 21.291 24.3655 21.291 23.5371C21.291 22.7087 21.9626 22.0371 22.791 22.0371L26.7765 22.0371C27.6049 22.0371 28.2765 22.7087 28.2765 23.5371ZM61.4574 23.5376C61.4574 24.3661 60.7858 25.0376 59.9574 25.0376L55.9719 25.0376C55.1435 25.0376 54.4719 24.3661 54.4719 23.5376C54.4719 22.7092 55.1435 22.0376 55.9719 22.0376L59.9574 22.0376C60.7858 22.0376 61.4574 22.7092 61.4574 23.5376Z" fill="url(#paint5_linear_133_4533)"/>
<path fill-rule="evenodd" clip-rule="evenodd" d="M28.2765 23.5371C28.2765 24.3655 27.6049 25.0371 26.7765 25.0371L22.791 25.0371C21.9626 25.0371 21.291 24.3655 21.291 23.5371C21.291 22.7087 21.9626 22.0371 22.791 22.0371L26.7765 22.0371C27.6049 22.0371 28.2765 22.7087 28.2765 23.5371ZM61.4574 23.5376C61.4574 24.3661 60.7858 25.0376 59.9574 25.0376L55.9719 25.0376C55.1435 25.0376 54.4719 24.3661 54.4719 23.5376C54.4719 22.7092 55.1435 22.0376 55.9719 22.0376L59.9574 22.0376C60.7858 22.0376 61.4574 22.7092 61.4574 23.5376Z" fill="url(#paint6_linear_133_4533)" fill-opacity="0.6"/>
<path fill-rule="evenodd" clip-rule="evenodd" d="M28.2765 23.5371C28.2765 24.3655 27.6049 25.0371 26.7765 25.0371L22.791 25.0371C21.9626 25.0371 21.291 24.3655 21.291 23.5371C21.291 22.7087 21.9626 22.0371 22.791 22.0371L26.7765 22.0371C27.6049 22.0371 28.2765 22.7087 28.2765 23.5371ZM61.4574 23.5376C61.4574 24.3661 60.7858 25.0376 59.9574 25.0376L55.9719 25.0376C55.1435 25.0376 54.4719 24.3661 54.4719 23.5376C54.4719 22.7092 55.1435 22.0376 55.9719 22.0376L59.9574 22.0376C60.7858 22.0376 61.4574 22.7092 61.4574 23.5376Z" fill="url(#paint7_linear_133_4533)" fill-opacity="0.25"/>
</g>
<g filter="url(#filter4_bdi_133_4533)">
<path fill-rule="evenodd" clip-rule="evenodd" d="M41.375 36.6317C42.2034 36.6317 42.875 37.3033 42.875 38.1317L42.875 42.1172C42.875 42.9456 42.2034 43.6172 41.375 43.6172C40.5466 43.6172 39.875 42.9456 39.875 42.1172L39.875 38.1317C39.875 37.3033 40.5466 36.6317 41.375 36.6317ZM41.3755 3.4508C42.2039 3.4508 42.8755 4.12237 42.8755 4.9508L42.8755 8.9363C42.8755 9.76472 42.2039 10.4363 41.3755 10.4363C40.5471 10.4363 39.8755 9.76473 39.8755 8.9363L39.8755 4.9508C39.8755 4.12237 40.5471 3.4508 41.3755 3.4508Z" fill="url(#paint8_linear_133_4533)"/>
<path fill-rule="evenodd" clip-rule="evenodd" d="M41.375 36.6317C42.2034 36.6317 42.875 37.3033 42.875 38.1317L42.875 42.1172C42.875 42.9456 42.2034 43.6172 41.375 43.6172C40.5466 43.6172 39.875 42.9456 39.875 42.1172L39.875 38.1317C39.875 37.3033 40.5466 36.6317 41.375 36.6317ZM41.3755 3.4508C42.2039 3.4508 42.8755 4.12237 42.8755 4.9508L42.8755 8.9363C42.8755 9.76472 42.2039 10.4363 41.3755 10.4363C40.5471 10.4363 39.8755 9.76473 39.8755 8.9363L39.8755 4.9508C39.8755 4.12237 40.5471 3.4508 41.3755 3.4508Z" fill="url(#paint9_linear_133_4533)" fill-opacity="0.6"/>
<path fill-rule="evenodd" clip-rule="evenodd" d="M41.375 36.6317C42.2034 36.6317 42.875 37.3033 42.875 38.1317L42.875 42.1172C42.875 42.9456 42.2034 43.6172 41.375 43.6172C40.5466 43.6172 39.875 42.9456 39.875 42.1172L39.875 38.1317C39.875 37.3033 40.5466 36.6317 41.375 36.6317ZM41.3755 3.4508C42.2039 3.4508 42.8755 4.12237 42.8755 4.9508L42.8755 8.9363C42.8755 9.76472 42.2039 10.4363 41.3755 10.4363C40.5471 10.4363 39.8755 9.76473 39.8755 8.9363L39.8755 4.9508C39.8755 4.12237 40.5471 3.4508 41.3755 3.4508Z" fill="url(#paint10_linear_133_4533)" fill-opacity="0.25"/>
</g>
<g filter="url(#filter5_bdi_133_4533)">
<path fill-rule="evenodd" clip-rule="evenodd" d="M32.1134 32.7969C32.6992 33.3827 32.6992 34.3325 32.1134 34.9183L29.2953 37.7364C28.7095 38.3222 27.7597 38.3222 27.1739 37.7364C26.5882 37.1507 26.5882 36.2009 27.1739 35.6151L29.9921 32.7969C30.5779 32.2112 31.5276 32.2112 32.1134 32.7969ZM55.5762 9.33488C56.162 9.92067 56.162 10.8704 55.5762 11.4562L52.7581 14.2744C52.1723 14.8602 51.2225 14.8602 50.6367 14.2744C50.051 13.6886 50.051 12.7388 50.6367 12.1531L53.4549 9.33488C54.0407 8.74909 54.9904 8.74909 55.5762 9.33488Z" fill="url(#paint11_linear_133_4533)"/>
<path fill-rule="evenodd" clip-rule="evenodd" d="M32.1134 32.7969C32.6992 33.3827 32.6992 34.3325 32.1134 34.9183L29.2953 37.7364C28.7095 38.3222 27.7597 38.3222 27.1739 37.7364C26.5882 37.1507 26.5882 36.2009 27.1739 35.6151L29.9921 32.7969C30.5779 32.2112 31.5276 32.2112 32.1134 32.7969ZM55.5762 9.33488C56.162 9.92067 56.162 10.8704 55.5762 11.4562L52.7581 14.2744C52.1723 14.8602 51.2225 14.8602 50.6367 14.2744C50.051 13.6886 50.051 12.7388 50.6367 12.1531L53.4549 9.33488C54.0407 8.74909 54.9904 8.74909 55.5762 9.33488Z" fill="url(#paint12_linear_133_4533)" fill-opacity="0.6"/>
<path fill-rule="evenodd" clip-rule="evenodd" d="M32.1134 32.7969C32.6992 33.3827 32.6992 34.3325 32.1134 34.9183L29.2953 37.7364C28.7095 38.3222 27.7597 38.3222 27.1739 37.7364C26.5882 37.1507 26.5882 36.2009 27.1739 35.6151L29.9921 32.7969C30.5779 32.2112 31.5276 32.2112 32.1134 32.7969ZM55.5762 9.33488C56.162 9.92067 56.162 10.8704 55.5762 11.4562L52.7581 14.2744C52.1723 14.8602 51.2225 14.8602 50.6367 14.2744C50.051 13.6886 50.051 12.7388 50.6367 12.1531L53.4549 9.33488C54.0407 8.74909 54.9904 8.74909 55.5762 9.33488Z" fill="url(#paint13_linear_133_4533)" fill-opacity="0.25"/>
</g>
</g>
</g>
<defs>
<filter id="filter0_ddd_133_4533" x="-9.70117" y="4.84473" width="73.167" height="73.168" filterUnits="userSpaceOnUse" color-interpolation-filters="sRGB">
<feFlood flood-opacity="0" result="BackgroundImageFix"/>
<feColorMatrix in="SourceAlpha" type="matrix" values="0 0 0 0 0 0 0 0 0 0 0 0 0 0 0 0 0 0 127 0" result="hardAlpha"/>
<feOffset/>
<feGaussianBlur stdDeviation="1"/>
<feColorMatrix type="matrix" values="0 0 0 0 0.662745 0 0 0 0 0.631373 0 0 0 0 0.929412 0 0 0 0.04 0"/>
<feBlend mode="normal" in2="BackgroundImageFix" result="effect1_dropShadow_133_4533"/>
<feColorMatrix in="SourceAlpha" type="matrix" values="0 0 0 0 0 0 0 0 0 0 0 0 0 0 0 0 0 0 127 0" result="hardAlpha"/>
<feOffset dy="4"/>
<feGaussianBlur stdDeviation="6"/>
<feColorMatrix type="matrix" values="0 0 0 0 0.662745 0 0 0 0 0.631373 0 0 0 0 0.929412 0 0 0 0.04 0"/>
<feBlend mode="normal" in2="effect1_dropShadow_133_4533" result="effect2_dropShadow_133_4533"/>
<feColorMatrix in="SourceAlpha" type="matrix" values="0 0 0 0 0 0 0 0 0 0 0 0 0 0 0 0 0 0 127 0" result="hardAlpha"/>
<feOffset dy="4"/>
<feGaussianBlur stdDeviation="4"/>
<feColorMatrix type="matrix" values="0 0 0 0 0.662745 0 0 0 0 0.631373 0 0 0 0 0.929412 0 0 0 0.06 0"/>
<feBlend mode="normal" in2="effect2_dropShadow_133_4533" result="effect3_dropShadow_133_4533"/>
<feBlend mode="normal" in="SourceGraphic" in2="effect3_dropShadow_133_4533" result="shape"/>
</filter>
<filter id="filter1_dddd_133_4533" x="-42.709" y="-12.5488" width="168.166" height="168.166" filterUnits="userSpaceOnUse" color-interpolation-filters="sRGB">
<feFlood flood-opacity="0" result="BackgroundImageFix"/>
<feColorMatrix in="SourceAlpha" type="matrix" values="0 0 0 0 0 0 0 0 0 0 0 0 0 0 0 0 0 0 127 0" result="hardAlpha"/>
<feOffset/>
<feGaussianBlur stdDeviation="1"/>
<feColorMatrix type="matrix" values="0 0 0 0 0.662745 0 0 0 0 0.631373 0 0 0 0 0.929412 0 0 0 0.04 0"/>
<feBlend mode="normal" in2="BackgroundImageFix" result="effect1_dropShadow_133_4533"/>
<feColorMatrix in="SourceAlpha" type="matrix" values="0 0 0 0 0 0 0 0 0 0 0 0 0 0 0 0 0 0 127 0" result="hardAlpha"/>
<feOffset dy="8"/>
<feGaussianBlur stdDeviation="8"/>
<feColorMatrix type="matrix" values="0 0 0 0 0.662745 0 0 0 0 0.631373 0 0 0 0 0.929412 0 0 0 0.04 0"/>
<feBlend mode="normal" in2="effect1_dropShadow_133_4533" result="effect2_dropShadow_133_4533"/>
<feColorMatrix in="SourceAlpha" type="matrix" values="0 0 0 0 0 0 0 0 0 0 0 0 0 0 0 0 0 0 127 0" result="hardAlpha"/>
<feOffset dy="32"/>
<feGaussianBlur stdDeviation="24"/>
<feColorMatrix type="matrix" values="0 0 0 0 0.662745 0 0 0 0 0.631373 0 0 0 0 0.929412 0 0 0 0.06 0"/>
<feBlend mode="normal" in2="effect2_dropShadow_133_4533" result="effect3_dropShadow_133_4533"/>
<feColorMatrix in="SourceAlpha" type="matrix" values="0 0 0 0 0 0 0 0 0 0 0 0 0 0 0 0 0 0 127 0" result="hardAlpha"/>
<feOffset dy="48"/>
<feGaussianBlur stdDeviation="32"/>
<feColorMatrix type="matrix" values="0 0 0 0 0.662745 0 0 0 0 0.631373 0 0 0 0 0.929412 0 0 0 0.06 0"/>
<feBlend mode="normal" in2="effect3_dropShadow_133_4533" result="effect4_dropShadow_133_4533"/>
<feBlend mode="normal" in="SourceGraphic" in2="effect4_dropShadow_133_4533" result="shape"/>
</filter>
<filter id="filter2_bdi_133_4533" x="-15.3118" y="-33.1497" width="113.373" height="113.374" filterUnits="userSpaceOnUse" color-interpolation-filters="sRGB">
<feFlood flood-opacity="0" result="BackgroundImageFix"/>
<feGaussianBlur in="BackgroundImageFix" stdDeviation="21.0231"/>
<feComposite in2="SourceAlpha" operator="in" result="effect1_backgroundBlur_133_4533"/>
<feColorMatrix in="SourceAlpha" type="matrix" values="0 0 0 0 0 0 0 0 0 0 0 0 0 0 0 0 0 0 127 0" result="hardAlpha"/>
<feOffset dy="5.25577"/>
<feGaussianBlur stdDeviation="5.25577"/>
<feColorMatrix type="matrix" values="0 0 0 0 0 0 0 0 0 0 0 0 0 0 0 0 0 0 0.03 0"/>
<feBlend mode="normal" in2="effect1_backgroundBlur_133_4533" result="effect2_dropShadow_133_4533"/>
<feBlend mode="normal" in="SourceGraphic" in2="effect2_dropShadow_133_4533" result="shape"/>
<feColorMatrix in="SourceAlpha" type="matrix" values="0 0 0 0 0 0 0 0 0 0 0 0 0 0 0 0 0 0 127 0" result="hardAlpha"/>
<feOffset dx="-0.525577" dy="-0.262789"/>
<feGaussianBlur stdDeviation="5.25577"/>
<feComposite in2="hardAlpha" operator="arithmetic" k2="-1" k3="1"/>
<feColorMatrix type="matrix" values="0 0 0 0 1 0 0 0 0 1 0 0 0 0 1 0 0 0 0.2 0"/>
<feBlend mode="normal" in2="shape" result="effect3_innerShadow_133_4533"/>
</filter>
<filter id="filter3_bdi_133_4533" x="-20.7552" y="-20.0091" width="124.258" height="87.0934" filterUnits="userSpaceOnUse" color-interpolation-filters="sRGB">
<feFlood flood-opacity="0" result="BackgroundImageFix"/>
<feGaussianBlur in="BackgroundImageFix" stdDeviation="21.0231"/>
<feComposite in2="SourceAlpha" operator="in" result="effect1_backgroundBlur_133_4533"/>
<feColorMatrix in="SourceAlpha" type="matrix" values="0 0 0 0 0 0 0 0 0 0 0 0 0 0 0 0 0 0 127 0" result="hardAlpha"/>
<feOffset dy="5.25577"/>
<feGaussianBlur stdDeviation="5.25577"/>
<feColorMatrix type="matrix" values="0 0 0 0 0 0 0 0 0 0 0 0 0 0 0 0 0 0 0.03 0"/>
<feBlend mode="normal" in2="effect1_backgroundBlur_133_4533" result="effect2_dropShadow_133_4533"/>
<feBlend mode="normal" in="SourceGraphic" in2="effect2_dropShadow_133_4533" result="shape"/>
<feColorMatrix in="SourceAlpha" type="matrix" values="0 0 0 0 0 0 0 0 0 0 0 0 0 0 0 0 0 0 127 0" result="hardAlpha"/>
<feOffset dx="-0.525577" dy="-0.262789"/>
<feGaussianBlur stdDeviation="5.25577"/>
<feComposite in2="hardAlpha" operator="arithmetic" k2="-1" k3="1"/>
<feColorMatrix type="matrix" values="0 0 0 0 1 0 0 0 0 1 0 0 0 0 1 0 0 0 0.2 0"/>
<feBlend mode="normal" in2="shape" result="effect3_innerShadow_133_4533"/>
</filter>
<filter id="filter4_bdi_133_4533" x="-2.1712" y="-38.595" width="87.0934" height="124.258" filterUnits="userSpaceOnUse" color-interpolation-filters="sRGB">
<feFlood flood-opacity="0" result="BackgroundImageFix"/>
<feGaussianBlur in="BackgroundImageFix" stdDeviation="21.0231"/>
<feComposite in2="SourceAlpha" operator="in" result="effect1_backgroundBlur_133_4533"/>
<feColorMatrix in="SourceAlpha" type="matrix" values="0 0 0 0 0 0 0 0 0 0 0 0 0 0 0 0 0 0 127 0" result="hardAlpha"/>
<feOffset dy="5.25577"/>
<feGaussianBlur stdDeviation="5.25577"/>
<feColorMatrix type="matrix" values="0 0 0 0 0 0 0 0 0 0 0 0 0 0 0 0 0 0 0.03 0"/>
<feBlend mode="normal" in2="effect1_backgroundBlur_133_4533" result="effect2_dropShadow_133_4533"/>
<feBlend mode="normal" in="SourceGraphic" in2="effect2_dropShadow_133_4533" result="shape"/>
<feColorMatrix in="SourceAlpha" type="matrix" values="0 0 0 0 0 0 0 0 0 0 0 0 0 0 0 0 0 0 127 0" result="hardAlpha"/>
<feOffset dx="-0.525577" dy="-0.262789"/>
<feGaussianBlur stdDeviation="5.25577"/>
<feComposite in2="hardAlpha" operator="arithmetic" k2="-1" k3="1"/>
<feColorMatrix type="matrix" values="0 0 0 0 1 0 0 0 0 1 0 0 0 0 1 0 0 0 0.2 0"/>
<feBlend mode="normal" in2="shape" result="effect3_innerShadow_133_4533"/>
</filter>
<filter id="filter5_bdi_133_4533" x="-15.3118" y="-33.1507" width="113.374" height="113.373" filterUnits="userSpaceOnUse" color-interpolation-filters="sRGB">
<feFlood flood-opacity="0" result="BackgroundImageFix"/>
<feGaussianBlur in="BackgroundImageFix" stdDeviation="21.0231"/>
<feComposite in2="SourceAlpha" operator="in" result="effect1_backgroundBlur_133_4533"/>
<feColorMatrix in="SourceAlpha" type="matrix" values="0 0 0 0 0 0 0 0 0 0 0 0 0 0 0 0 0 0 127 0" result="hardAlpha"/>
<feOffset dy="5.25577"/>
<feGaussianBlur stdDeviation="5.25577"/>
<feColorMatrix type="matrix" values="0 0 0 0 0 0 0 0 0 0 0 0 0 0 0 0 0 0 0.03 0"/>
<feBlend mode="normal" in2="effect1_backgroundBlur_133_4533" result="effect2_dropShadow_133_4533"/>
<feBlend mode="normal" in="SourceGraphic" in2="effect2_dropShadow_133_4533" result="shape"/>
<feColorMatrix in="SourceAlpha" type="matrix" values="0 0 0 0 0 0 0 0 0 0 0 0 0 0 0 0 0 0 127 0" result="hardAlpha"/>
<feOffset dx="-0.525577" dy="-0.262789"/>
<feGaussianBlur stdDeviation="5.25577"/>
<feComposite in2="hardAlpha" operator="arithmetic" k2="-1" k3="1"/>
<feColorMatrix type="matrix" values="0 0 0 0 1 0 0 0 0 1 0 0 0 0 1 0 0 0 0.2 0"/>
<feBlend mode="normal" in2="shape" result="effect3_innerShadow_133_4533"/>
</filter>
<linearGradient id="paint0_linear_133_4533" x1="46.6723" y1="17.6389" x2="27.2255" y2="37.0857" gradientUnits="userSpaceOnUse">
<stop stop-color="#A9A1ED"/>
<stop offset="1" stop-color="#3B28CC"/>
</linearGradient>
<linearGradient id="paint1_linear_133_4533" x1="46.6723" y1="17.6389" x2="27.2255" y2="37.0857" gradientUnits="userSpaceOnUse">
<stop stop-color="#A9A1ED"/>
<stop offset="1" stop-color="#3B28CC"/>
</linearGradient>
<linearGradient id="paint2_linear_133_4533" x1="42.4353" y1="22.4764" x2="40.3137" y2="24.598" gradientUnits="userSpaceOnUse">
<stop offset="0.572917" stop-color="white" stop-opacity="0"/>
<stop offset="1" stop-color="white" stop-opacity="0.08"/>
</linearGradient>
<linearGradient id="paint3_linear_133_4533" x1="28.2344" y1="8.27539" x2="25.6849" y2="11.0227" gradientUnits="userSpaceOnUse">
<stop stop-color="white" stop-opacity="0.1"/>
<stop offset="1" stop-color="white" stop-opacity="0"/>
</linearGradient>
<linearGradient id="paint4_linear_133_4533" x1="42.4353" y1="22.4764" x2="39.688" y2="25.0258" gradientUnits="userSpaceOnUse">
<stop stop-color="white" stop-opacity="0.5"/>
<stop offset="1" stop-color="white" stop-opacity="0.1"/>
</linearGradient>
<linearGradient id="paint5_linear_133_4533" x1="41.3742" y1="22.0371" x2="41.3742" y2="25.0376" gradientUnits="userSpaceOnUse">
<stop offset="0.572917" stop-color="white" stop-opacity="0"/>
<stop offset="1" stop-color="white" stop-opacity="0.08"/>
</linearGradient>
<linearGradient id="paint6_linear_133_4533" x1="21.291" y1="22.0371" x2="21.4309" y2="25.7825" gradientUnits="userSpaceOnUse">
<stop stop-color="white" stop-opacity="0.1"/>
<stop offset="1" stop-color="white" stop-opacity="0"/>
</linearGradient>
<linearGradient id="paint7_linear_133_4533" x1="41.3742" y1="22.0371" x2="41.2343" y2="25.7825" gradientUnits="userSpaceOnUse">
<stop stop-color="white" stop-opacity="0.5"/>
<stop offset="1" stop-color="white" stop-opacity="0.1"/>
</linearGradient>
<linearGradient id="paint8_linear_133_4533" x1="39.875" y1="23.534" x2="42.8755" y2="23.534" gradientUnits="userSpaceOnUse">
<stop offset="0.572917" stop-color="white" stop-opacity="0"/>
<stop offset="1" stop-color="white" stop-opacity="0.08"/>
</linearGradient>
<linearGradient id="paint9_linear_133_4533" x1="39.875" y1="43.6172" x2="43.6204" y2="43.4773" gradientUnits="userSpaceOnUse">
<stop stop-color="white" stop-opacity="0.1"/>
<stop offset="1" stop-color="white" stop-opacity="0"/>
</linearGradient>
<linearGradient id="paint10_linear_133_4533" x1="39.875" y1="23.534" x2="43.6204" y2="23.6739" gradientUnits="userSpaceOnUse">
<stop stop-color="white" stop-opacity="0.5"/>
<stop offset="1" stop-color="white" stop-opacity="0.1"/>
</linearGradient>
<linearGradient id="paint11_linear_133_4533" x1="40.3142" y1="22.4748" x2="42.4359" y2="24.5965" gradientUnits="userSpaceOnUse">
<stop offset="0.572917" stop-color="white" stop-opacity="0"/>
<stop offset="1" stop-color="white" stop-opacity="0.08"/>
</linearGradient>
<linearGradient id="paint12_linear_133_4533" x1="26.1133" y1="36.6758" x2="28.8606" y2="39.2253" gradientUnits="userSpaceOnUse">
<stop stop-color="white" stop-opacity="0.1"/>
<stop offset="1" stop-color="white" stop-opacity="0"/>
</linearGradient>
<linearGradient id="paint13_linear_133_4533" x1="40.3142" y1="22.4748" x2="42.8637" y2="25.2222" gradientUnits="userSpaceOnUse">
<stop stop-color="white" stop-opacity="0.5"/>
<stop offset="1" stop-color="white" stop-opacity="0.1"/>
</linearGradient>
<clipPath id="clip0_133_4533">
<rect width="64" height="64" fill="white" transform="translate(0 0.910156)"/>
</clipPath>
</defs>
</svg>
