<svg width="24" height="24" viewBox="0 0 24 24" fill="none" xmlns="http://www.w3.org/2000/svg">
<path d="M21.8817 0.333171H2.11832C1.89616 0.330086 1.67557 0.370793 1.46915 0.452969C1.26272 0.535144 1.07451 0.657178 0.915251 0.812102C0.755994 0.967025 0.628815 1.1518 0.540978 1.35588C0.45314 1.55996 0.406363 1.77935 0.40332 2.0015V21.9982C0.406363 22.2203 0.45314 22.4397 0.540978 22.6438C0.628815 22.8479 0.755994 23.0326 0.915251 23.1876C1.07451 23.3425 1.26272 23.4645 1.46915 23.5467C1.67557 23.6289 1.89616 23.6696 2.11832 23.6665H21.8817C22.1038 23.6696 22.3244 23.6289 22.5308 23.5467C22.7373 23.4645 22.9255 23.3425 23.0847 23.1876C23.244 23.0326 23.3712 22.8479 23.459 22.6438C23.5468 22.4397 23.5936 22.2203 23.5967 21.9982V2.0015C23.5936 1.77935 23.5468 1.55996 23.459 1.35588C23.3712 1.1518 23.244 0.967025 23.0847 0.812102C22.9255 0.657178 22.7373 0.535144 22.5308 0.452969C22.3244 0.370793 22.1038 0.330086 21.8817 0.333171ZM7.43832 19.8632H3.93832V9.36317H7.43832V19.8632ZM5.68832 7.89317C5.20563 7.89317 4.7427 7.70142 4.40139 7.36011C4.06007 7.01879 3.86832 6.55586 3.86832 6.07317C3.86832 5.59048 4.06007 5.12755 4.40139 4.78624C4.7427 4.44492 5.20563 4.25317 5.68832 4.25317C5.94463 4.2241 6.20419 4.2495 6.45001 4.3277C6.69582 4.4059 6.92235 4.53514 7.11475 4.70696C7.30716 4.87878 7.4611 5.0893 7.5665 5.32473C7.67191 5.56017 7.72639 5.81522 7.72639 6.07317C7.72639 6.33113 7.67191 6.58617 7.5665 6.82161C7.4611 7.05705 7.30716 7.26757 7.11475 7.43938C6.92235 7.6112 6.69582 7.74044 6.45001 7.81864C6.20419 7.89684 5.94463 7.92224 5.68832 7.89317ZM20.0617 19.8632H16.5617V14.2282C16.5617 12.8165 16.06 11.8948 14.7883 11.8948C14.3948 11.8977 14.0115 12.0212 13.6903 12.2485C13.3691 12.4759 13.1252 12.7963 12.9917 13.1665C12.9004 13.4407 12.8608 13.7295 12.875 14.0182V19.8515H9.37499C9.37499 19.8515 9.37499 10.3082 9.37499 9.3515H12.875V10.8332C13.1929 10.2815 13.6554 9.82694 14.2125 9.51857C14.7696 9.2102 15.4003 9.05966 16.0367 9.08317C18.37 9.08317 20.0617 10.5882 20.0617 13.8198V19.8632Z" fill="#374151"/>
</svg>
