<svg width="706" height="1036" viewBox="0 0 706 1036" fill="none" xmlns="http://www.w3.org/2000/svg">
<g style="mix-blend-mode:hard-light" filter="url(#filter0_f_1_19214)">
<path d="M318.358 8V83.9157M536.226 484.204C536.226 381.917 621.472 323.068 696.888 323.068V305.501H375.669L318.358 248.189V83.9157M536.226 484.204C536.226 586.491 626.663 642.211 696.888 642.211V1027.85M536.226 484.204H242.033M242.033 484.204L114.048 356.22H93.0318M242.033 484.204H8M242.033 484.204V654.955L412.486 825.409V1027.85M93.0318 356.22V186.11L195.226 83.9157H318.358M93.0318 356.22H8M178.844 1027.85V825.409L8.39005 654.955" stroke="#6050D7" stroke-width="2.6"/>
</g>
<g style="mix-blend-mode:hard-light" filter="url(#filter1_f_1_19214)">
<path d="M318.358 8V83.9157M536.226 484.204C536.226 381.917 621.472 323.068 696.888 323.068V305.501H375.669L318.358 248.189V83.9157M536.226 484.204C536.226 586.491 626.663 642.211 696.888 642.211V1027.85M536.226 484.204H242.033M242.033 484.204L114.048 356.22H93.0318M242.033 484.204H8M242.033 484.204V654.955L412.486 825.409V1027.85M93.0318 356.22V186.11L195.226 83.9157H318.358M93.0318 356.22H8M178.844 1027.85V825.409L8.39005 654.955" stroke="#6050D7" stroke-width="3.4"/>
</g>
<g style="mix-blend-mode:hard-light" filter="url(#filter2_ddi_1_19214)">
<path d="M318.358 8V83.9157M536.226 484.204C536.226 381.917 621.472 323.068 696.888 323.068V305.501H375.669L318.358 248.189V83.9157M536.226 484.204C536.226 586.491 626.663 642.211 696.888 642.211V1027.85M536.226 484.204H242.033M242.033 484.204L114.048 356.22H93.0318M242.033 484.204H8M242.033 484.204V654.955L412.486 825.409V1027.85M93.0318 356.22V186.11L195.226 83.9157H318.358M93.0318 356.22H8M178.844 1027.85V825.409L8.39005 654.955" stroke="#6100FF" stroke-opacity="0.2" stroke-width="2.6"/>
</g>
<g filter="url(#filter3_f_1_19214)">
<path d="M318.358 8V83.9157M536.226 484.204C536.226 381.917 621.472 323.068 696.888 323.068V305.501H375.669L318.358 248.189V83.9157M536.226 484.204C536.226 586.491 626.663 642.211 696.888 642.211V1027.85M536.226 484.204H242.033M242.033 484.204L114.048 356.22H93.0318M242.033 484.204H8M242.033 484.204V654.955L412.486 825.409V1027.85M93.0318 356.22V186.11L195.226 83.9157H318.358M93.0318 356.22H8M178.844 1027.85V825.409L8.39005 654.955" stroke="#C882FF" stroke-width="1.6"/>
</g>
<g style="mix-blend-mode:plus-lighter" filter="url(#filter4_f_1_19214)">
<path d="M318.358 8V83.9157M536.226 484.204C536.226 381.917 621.472 323.068 696.888 323.068V305.501H375.669L318.358 248.189V83.9157M536.226 484.204C536.226 586.491 626.663 642.211 696.888 642.211V1027.85M536.226 484.204H242.033M242.033 484.204L114.048 356.22H93.0318M242.033 484.204H8M242.033 484.204V654.955L412.486 825.409V1027.85M93.0318 356.22V186.11L195.226 83.9157H318.358M93.0318 356.22H8M178.844 1027.85V825.409L8.39005 654.955" stroke="white" stroke-width="3"/>
</g>
<defs>
<filter id="filter0_f_1_19214" x="0.210703" y="0.74" width="705.238" height="1034.37" filterUnits="userSpaceOnUse" color-interpolation-filters="sRGB">
<feFlood flood-opacity="0" result="BackgroundImageFix"/>
<feBlend mode="normal" in="SourceGraphic" in2="BackgroundImageFix" result="shape"/>
<feGaussianBlur stdDeviation="3.63" result="effect1_foregroundBlur_1_19214"/>
</filter>
<filter id="filter1_f_1_19214" x="4.76799" y="5.58" width="696.24" height="1024.69" filterUnits="userSpaceOnUse" color-interpolation-filters="sRGB">
<feFlood flood-opacity="0" result="BackgroundImageFix"/>
<feBlend mode="normal" in="SourceGraphic" in2="BackgroundImageFix" result="shape"/>
<feGaussianBlur stdDeviation="1.21" result="effect1_foregroundBlur_1_19214"/>
</filter>
<filter id="filter2_ddi_1_19214" x="4.3247" y="7.274" width="697.01" height="1026.14" filterUnits="userSpaceOnUse" color-interpolation-filters="sRGB">
<feFlood flood-opacity="0" result="BackgroundImageFix"/>
<feColorMatrix in="SourceAlpha" type="matrix" values="0 0 0 0 0 0 0 0 0 0 0 0 0 0 0 0 0 0 127 0" result="hardAlpha"/>
<feOffset dy="1.3"/>
<feGaussianBlur stdDeviation="0.5"/>
<feColorMatrix type="matrix" values="0 0 0 0 0.231373 0 0 0 0 0.156863 0 0 0 0 0.8 0 0 0 0.4 0"/>
<feBlend mode="multiply" in2="BackgroundImageFix" result="effect1_dropShadow_1_19214"/>
<feColorMatrix in="SourceAlpha" type="matrix" values="0 0 0 0 0 0 0 0 0 0 0 0 0 0 0 0 0 0 127 0" result="hardAlpha"/>
<feOffset dy="2.42"/>
<feGaussianBlur stdDeviation="1.573"/>
<feColorMatrix type="matrix" values="0 0 0 0 0.179608 0 0 0 0 0.115033 0 0 0 0 0.643137 0 0 0 0.3 0"/>
<feBlend mode="color-dodge" in2="effect1_dropShadow_1_19214" result="effect2_dropShadow_1_19214"/>
<feBlend mode="normal" in="SourceGraphic" in2="effect2_dropShadow_1_19214" result="shape"/>
<feColorMatrix in="SourceAlpha" type="matrix" values="0 0 0 0 0 0 0 0 0 0 0 0 0 0 0 0 0 0 127 0" result="hardAlpha"/>
<feOffset dx="-0.13" dy="0.26"/>
<feGaussianBlur stdDeviation="0.065"/>
<feComposite in2="hardAlpha" operator="arithmetic" k2="-1" k3="1"/>
<feColorMatrix type="matrix" values="0 0 0 0 1 0 0 0 0 1 0 0 0 0 1 0 0 0 0.5 0"/>
<feBlend mode="normal" in2="shape" result="effect3_innerShadow_1_19214"/>
</filter>
<filter id="filter3_f_1_19214" x="7.62446" y="7.8" width="690.264" height="1020.25" filterUnits="userSpaceOnUse" color-interpolation-filters="sRGB">
<feFlood flood-opacity="0" result="BackgroundImageFix"/>
<feBlend mode="normal" in="SourceGraphic" in2="BackgroundImageFix" result="shape"/>
<feGaussianBlur stdDeviation="0.1" result="effect1_foregroundBlur_1_19214"/>
</filter>
<filter id="filter4_f_1_19214" x="7.19601" y="7.86667" width="691.326" height="1020.11" filterUnits="userSpaceOnUse" color-interpolation-filters="sRGB">
<feFlood flood-opacity="0" result="BackgroundImageFix"/>
<feBlend mode="normal" in="SourceGraphic" in2="BackgroundImageFix" result="shape"/>
<feGaussianBlur stdDeviation="0.0666667" result="effect1_foregroundBlur_1_19214"/>
</filter>
</defs>
</svg>
