<svg width="16" height="17" viewBox="0 0 16 17" fill="none" xmlns="http://www.w3.org/2000/svg">
<path d="M8 1.91016C6.71442 1.91016 5.45772 2.29137 4.3888 3.0056C3.31988 3.71983 2.48676 4.73499 1.99479 5.92271C1.50282 7.11043 1.37409 8.41737 1.6249 9.67824C1.8757 10.9391 2.49477 12.0973 3.40381 13.0064C4.31285 13.9154 5.47104 14.5345 6.73192 14.7853C7.99279 15.0361 9.29973 14.9073 10.4874 14.4154C11.6752 13.9234 12.6903 13.0903 13.4046 12.0214C14.1188 10.9524 14.5 9.69573 14.5 8.41016C14.4967 6.68726 13.8108 5.03588 12.5925 3.81761C11.3743 2.59934 9.7229 1.91346 8 1.91016ZM10.275 8.82891L7.275 10.8289C7.19226 10.8801 7.09729 10.9082 7 10.9102C6.91754 10.9101 6.83623 10.8908 6.7625 10.8539C6.68257 10.8108 6.61589 10.7467 6.56965 10.6685C6.5234 10.5903 6.49932 10.501 6.5 10.4102V6.41016C6.49932 6.31932 6.5234 6.23002 6.56965 6.15184C6.61589 6.07366 6.68257 6.00955 6.7625 5.96641C6.84276 5.92578 6.93221 5.90672 7.02206 5.9111C7.11191 5.91549 7.19908 5.94316 7.275 5.99141L10.275 7.99141C10.3446 8.03684 10.4019 8.09893 10.4414 8.17205C10.481 8.24517 10.5018 8.327 10.5018 8.41016C10.5018 8.49331 10.481 8.57515 10.4414 8.64826C10.4019 8.72138 10.3446 8.78347 10.275 8.82891Z" fill="#3B28CC"/>
<path d="M8 1.91016C6.71442 1.91016 5.45772 2.29137 4.3888 3.0056C3.31988 3.71983 2.48676 4.73499 1.99479 5.92271C1.50282 7.11043 1.37409 8.41737 1.6249 9.67824C1.8757 10.9391 2.49477 12.0973 3.40381 13.0064C4.31285 13.9154 5.47104 14.5345 6.73192 14.7853C7.99279 15.0361 9.29973 14.9073 10.4874 14.4154C11.6752 13.9234 12.6903 13.0903 13.4046 12.0214C14.1188 10.9524 14.5 9.69573 14.5 8.41016C14.4967 6.68726 13.8108 5.03588 12.5925 3.81761C11.3743 2.59934 9.7229 1.91346 8 1.91016ZM10.275 8.82891L7.275 10.8289C7.19226 10.8801 7.09729 10.9082 7 10.9102C6.91754 10.9101 6.83623 10.8908 6.7625 10.8539C6.68257 10.8108 6.61589 10.7467 6.56965 10.6685C6.5234 10.5903 6.49932 10.501 6.5 10.4102V6.41016C6.49932 6.31932 6.5234 6.23002 6.56965 6.15184C6.61589 6.07366 6.68257 6.00955 6.7625 5.96641C6.84276 5.92578 6.93221 5.90672 7.02206 5.9111C7.11191 5.91549 7.19908 5.94316 7.275 5.99141L10.275 7.99141C10.3446 8.03684 10.4019 8.09893 10.4414 8.17205C10.481 8.24517 10.5018 8.327 10.5018 8.41016C10.5018 8.49331 10.481 8.57515 10.4414 8.64826C10.4019 8.72138 10.3446 8.78347 10.275 8.82891Z" fill="url(#paint0_linear_119_2363)" fill-opacity="0.4"/>
<defs>
<linearGradient id="paint0_linear_119_2363" x1="1.5" y1="1.91016" x2="10.5687" y2="17.2363" gradientUnits="userSpaceOnUse">
<stop stop-color="#9D71FF"/>
<stop offset="1" stop-color="#4B78EC"/>
</linearGradient>
</defs>
</svg>
