<svg width="32" height="33" viewBox="0 0 32 33" fill="none" xmlns="http://www.w3.org/2000/svg">
<path d="M9.49988 16.9105C9.50154 15.7175 9.97617 14.5739 10.8197 13.7303C11.6633 12.8868 12.8069 12.4122 13.9999 12.4105H19.9999V11.4105C19.9996 11.3118 20.0285 11.2152 20.083 11.1329C20.1375 11.0506 20.2151 10.9862 20.3061 10.948C20.3985 10.912 20.4992 10.9028 20.5965 10.9216C20.6938 10.9404 20.7838 10.9864 20.8561 11.0542L22.3561 12.5542C22.45 12.649 22.5027 12.7771 22.5027 12.9105C22.5027 13.0439 22.45 13.172 22.3561 13.2667L20.8561 14.7667C20.7602 14.8585 20.6327 14.9099 20.4999 14.9105C20.4335 14.9102 20.3678 14.8975 20.3061 14.873C20.2151 14.8347 20.1375 14.7704 20.083 14.6881C20.0285 14.6058 19.9996 14.5092 19.9999 14.4105V13.4105H13.9999C13.0716 13.4105 12.1814 13.7792 11.525 14.4356C10.8686 15.092 10.4999 15.9822 10.4999 16.9105C10.4999 17.0431 10.4472 17.1703 10.3534 17.2641C10.2597 17.3578 10.1325 17.4105 9.99988 17.4105C9.86727 17.4105 9.7401 17.3578 9.64633 17.2641C9.55256 17.1703 9.49988 17.0431 9.49988 16.9105ZM21.9999 16.4105C21.8673 16.4105 21.7401 16.4632 21.6463 16.5569C21.5526 16.6507 21.4999 16.7779 21.4999 16.9105C21.4999 17.8388 21.1311 18.729 20.4748 19.3854C19.8184 20.0417 18.9281 20.4105 17.9999 20.4105H11.9999V19.4105C12.0002 19.3118 11.9713 19.2152 11.9168 19.1329C11.8623 19.0506 11.7846 18.9862 11.6936 18.948C11.6013 18.912 11.5006 18.9028 11.4033 18.9216C11.3059 18.9404 11.2159 18.9864 11.1436 19.0542L9.64363 20.5542C9.54974 20.649 9.49707 20.7771 9.49707 20.9105C9.49707 21.0439 9.54974 21.172 9.64363 21.2667L11.1436 22.7667C11.2396 22.8585 11.3671 22.9099 11.4999 22.9105C11.5662 22.9102 11.632 22.8975 11.6936 22.873C11.7846 22.8347 11.8623 22.7704 11.9168 22.6881C11.9713 22.6058 12.0002 22.5092 11.9999 22.4105V21.4105H17.9999C19.1929 21.4088 20.3365 20.9342 21.18 20.0907C22.0236 19.2471 22.4982 18.1035 22.4999 16.9105C22.4999 16.7779 22.4472 16.6507 22.3534 16.5569C22.2597 16.4632 22.1325 16.4105 21.9999 16.4105Z" fill="#6050D7"/>
</svg>
