<svg width="68" height="65" viewBox="0 0 68 65" fill="none" xmlns="http://www.w3.org/2000/svg">
<g filter="url(#filter0_bdi_105_8867)">
<path d="M5.33782 28.9745L5.48399 28.4289L21.5683 40.7088C24.2024 42.7199 27.551 43.552 30.8201 43.008L63.3992 37.5864L63.2178 38.2634C62.8553 39.6161 61.8119 40.6807 60.4667 41.0702L29.0565 50.1661C26.2102 50.9903 23.1414 50.1738 21.0812 48.0439L6.32651 32.7908C5.34942 31.7807 4.97409 30.3319 5.33782 28.9745Z" fill="white" fill-opacity="0.2"/>
<path d="M5.33782 28.9745L5.48399 28.4289L21.5683 40.7088C24.2024 42.7199 27.551 43.552 30.8201 43.008L63.3992 37.5864L63.2178 38.2634C62.8553 39.6161 61.8119 40.6807 60.4667 41.0702L29.0565 50.1661C26.2102 50.9903 23.1414 50.1738 21.0812 48.0439L6.32651 32.7908C5.34942 31.7807 4.97409 30.3319 5.33782 28.9745Z" fill="url(#paint0_linear_105_8867)"/>
<path d="M5.33782 28.9745L5.48399 28.4289L21.5683 40.7088C24.2024 42.7199 27.551 43.552 30.8201 43.008L63.3992 37.5864L63.2178 38.2634C62.8553 39.6161 61.8119 40.6807 60.4667 41.0702L29.0565 50.1661C26.2102 50.9903 23.1414 50.1738 21.0812 48.0439L6.32651 32.7908C5.34942 31.7807 4.97409 30.3319 5.33782 28.9745Z" fill="url(#paint1_linear_105_8867)" fill-opacity="0.6"/>
<path d="M5.33782 28.9745L5.48399 28.4289L21.5683 40.7088C24.2024 42.7199 27.551 43.552 30.8201 43.008L63.3992 37.5864L63.2178 38.2634C62.8553 39.6161 61.8119 40.6807 60.4667 41.0702L29.0565 50.1661C26.2102 50.9903 23.1414 50.1738 21.0812 48.0439L6.32651 32.7908C5.34942 31.7807 4.97409 30.3319 5.33782 28.9745Z" fill="url(#paint2_linear_105_8867)" fill-opacity="0.25"/>
<path d="M5.33782 28.9745L5.48399 28.4289L21.5683 40.7088C24.2024 42.7199 27.551 43.552 30.8201 43.008L63.3992 37.5864L63.2178 38.2634C62.8553 39.6161 61.8119 40.6807 60.4667 41.0702L29.0565 50.1661C26.2102 50.9903 23.1414 50.1738 21.0812 48.0439L6.32651 32.7908C5.34942 31.7807 4.97409 30.3319 5.33782 28.9745Z" fill="black" fill-opacity="0.04"/>
<path d="M5.33782 28.9745L5.48399 28.4289L21.5683 40.7088C24.2024 42.7199 27.551 43.552 30.8201 43.008L63.3992 37.5864L63.2178 38.2634C62.8553 39.6161 61.8119 40.6807 60.4667 41.0702L29.0565 50.1661C26.2102 50.9903 23.1414 50.1738 21.0812 48.0439L6.32651 32.7908C5.34942 31.7807 4.97409 30.3319 5.33782 28.9745Z" fill="url(#paint3_linear_105_8867)" fill-opacity="0.2"/>
</g>
<g filter="url(#filter1_bdi_105_8867)">
<rect width="42" height="30" rx="4" transform="matrix(0.965926 -0.258819 0.707107 0.707107 3.5791 27.7402)" fill="white" fill-opacity="0.2"/>
<rect width="42" height="30" rx="4" transform="matrix(0.965926 -0.258819 0.707107 0.707107 3.5791 27.7402)" fill="url(#paint4_linear_105_8867)"/>
<rect width="42" height="30" rx="4" transform="matrix(0.965926 -0.258819 0.707107 0.707107 3.5791 27.7402)" fill="url(#paint5_linear_105_8867)" fill-opacity="0.6"/>
<rect width="42" height="30" rx="4" transform="matrix(0.965926 -0.258819 0.707107 0.707107 3.5791 27.7402)" fill="url(#paint6_linear_105_8867)" fill-opacity="0.25"/>
<rect x="0.418258" y="0.112072" width="41.5" height="29.5" rx="3.75" transform="matrix(0.965926 -0.258819 0.707107 0.707107 3.51411 27.8813)" stroke="url(#paint7_linear_105_8867)" stroke-opacity="0.5" stroke-width="0.5"/>
</g>
<path d="M23.3486 40.956L23.5169 40.3278L25.9829 41.5744L29.5005 41.4194L29.3336 42.0421L25.4699 43.0773L23.3486 40.956Z" fill="#111827"/>
<path d="M18.4112 35.9776L18.5717 35.3786L23.8441 35.7617L23.6793 36.3767L19.8282 37.4076L18.4112 35.9776Z" fill="#111827"/>
<path d="M12.4481 31.3354L12.8839 29.7092L44.9714 23.8229L44.5721 25.313L14.5734 33.4293L12.4481 31.3354Z" fill="#111827"/>
<g filter="url(#filter2_dd_105_8867)">
<path d="M31.7765 39.6189L32.2123 37.9927L43.0271 37.7982L42.6112 39.3502L33.9018 41.7128L31.7765 39.6189Z" fill="#8479E2"/>
</g>
<g filter="url(#filter3_dd_105_8867)">
<path d="M26.8254 34.6714L27.2612 33.0452L49.9126 28.7648L49.549 30.1217L28.2714 36.0961L26.8254 34.6714Z" fill="#8479E2"/>
</g>
<rect width="31" height="3" transform="matrix(0.965926 -0.258819 0.707107 0.707107 12.9102 29.7207)" fill="black"/>
<rect width="22" height="2" transform="matrix(0.965926 -0.258819 0.707107 0.707107 27.2607 33.0488)" fill="#A9A1ED"/>
<g filter="url(#filter4_d_105_8867)">
<rect width="9" height="3" transform="matrix(0.965926 -0.258819 0.707107 0.707107 32.21 37.998)" fill="#A9A1ED"/>
</g>
<rect width="4" height="2" transform="matrix(0.965926 -0.258819 0.707107 0.707107 18.5674 35.377)" fill="black"/>
<rect width="4" height="3" transform="matrix(0.965926 -0.258819 0.707107 0.707107 23.5166 40.3262)" fill="black"/>
<g filter="url(#filter5_di_105_8867)">
<rect width="26" height="6" rx="1" transform="matrix(0.965926 -0.258819 0.707107 0.707107 24.1729 31.1855)" fill="#ED9D9D" fill-opacity="0.6"/>
<rect x="0.418258" y="0.112072" width="25.5" height="5.5" rx="0.75" transform="matrix(0.965926 -0.258819 0.707107 0.707107 24.1079 31.3266)" stroke="#FF0000" stroke-width="0.5"/>
</g>
<g filter="url(#filter6_di_105_8867)">
<rect width="8" height="7" rx="1" transform="matrix(0.965926 -0.258819 0.707107 0.707107 20.3916 38.6094)" fill="#ED9D9D" fill-opacity="0.6"/>
<rect x="0.418258" y="0.112072" width="7.5" height="6.5" rx="0.75" transform="matrix(0.965926 -0.258819 0.707107 0.707107 20.3266 38.7505)" stroke="#FF0000" stroke-width="0.5"/>
</g>
<defs>
<filter id="filter0_bdi_105_8867" x="-10.9704" y="12.2571" width="90.5415" height="54.3969" filterUnits="userSpaceOnUse" color-interpolation-filters="sRGB">
<feFlood flood-opacity="0" result="BackgroundImageFix"/>
<feGaussianBlur in="BackgroundImageFix" stdDeviation="8.0858"/>
<feComposite in2="SourceAlpha" operator="in" result="effect1_backgroundBlur_105_8867"/>
<feColorMatrix in="SourceAlpha" type="matrix" values="0 0 0 0 0 0 0 0 0 0 0 0 0 0 0 0 0 0 127 0" result="hardAlpha"/>
<feOffset dy="2.02145"/>
<feGaussianBlur stdDeviation="2.02145"/>
<feColorMatrix type="matrix" values="0 0 0 0 0 0 0 0 0 0 0 0 0 0 0 0 0 0 0.03 0"/>
<feBlend mode="normal" in2="effect1_backgroundBlur_105_8867" result="effect2_dropShadow_105_8867"/>
<feBlend mode="normal" in="SourceGraphic" in2="effect2_dropShadow_105_8867" result="shape"/>
<feColorMatrix in="SourceAlpha" type="matrix" values="0 0 0 0 0 0 0 0 0 0 0 0 0 0 0 0 0 0 127 0" result="hardAlpha"/>
<feOffset dx="-0.202145" dy="-0.101073"/>
<feGaussianBlur stdDeviation="2.02145"/>
<feComposite in2="hardAlpha" operator="arithmetic" k2="-1" k3="1"/>
<feColorMatrix type="matrix" values="0 0 0 0 1 0 0 0 0 1 0 0 0 0 1 0 0 0 0.2 0"/>
<feBlend mode="normal" in2="shape" result="effect3_innerShadow_105_8867"/>
</filter>
<filter id="filter1_bdi_105_8867" x="-10.6892" y="1.54909" width="90.3188" height="62.7251" filterUnits="userSpaceOnUse" color-interpolation-filters="sRGB">
<feFlood flood-opacity="0" result="BackgroundImageFix"/>
<feGaussianBlur in="BackgroundImageFix" stdDeviation="8.08581"/>
<feComposite in2="SourceAlpha" operator="in" result="effect1_backgroundBlur_105_8867"/>
<feColorMatrix in="SourceAlpha" type="matrix" values="0 0 0 0 0 0 0 0 0 0 0 0 0 0 0 0 0 0 127 0" result="hardAlpha"/>
<feOffset dy="2.02145"/>
<feGaussianBlur stdDeviation="2.02145"/>
<feColorMatrix type="matrix" values="0 0 0 0 0 0 0 0 0 0 0 0 0 0 0 0 0 0 0.03 0"/>
<feBlend mode="normal" in2="effect1_backgroundBlur_105_8867" result="effect2_dropShadow_105_8867"/>
<feBlend mode="normal" in="SourceGraphic" in2="effect2_dropShadow_105_8867" result="shape"/>
<feColorMatrix in="SourceAlpha" type="matrix" values="0 0 0 0 0 0 0 0 0 0 0 0 0 0 0 0 0 0 127 0" result="hardAlpha"/>
<feOffset dx="-0.202145" dy="-0.101073"/>
<feGaussianBlur stdDeviation="2.02145"/>
<feComposite in2="hardAlpha" operator="arithmetic" k2="-1" k3="1"/>
<feColorMatrix type="matrix" values="0 0 0 0 1 0 0 0 0 1 0 0 0 0 1 0 0 0 0.2 0"/>
<feBlend mode="normal" in2="shape" result="effect3_innerShadow_105_8867"/>
</filter>
<filter id="filter2_dd_105_8867" x="27.7335" y="35.7764" width="19.3368" height="13.9365" filterUnits="userSpaceOnUse" color-interpolation-filters="sRGB">
<feFlood flood-opacity="0" result="BackgroundImageFix"/>
<feColorMatrix in="SourceAlpha" type="matrix" values="0 0 0 0 0 0 0 0 0 0 0 0 0 0 0 0 0 0 127 0" result="hardAlpha"/>
<feOffset dy="4"/>
<feGaussianBlur stdDeviation="2"/>
<feComposite in2="hardAlpha" operator="out"/>
<feColorMatrix type="matrix" values="0 0 0 0 0 0 0 0 0 0 0 0 0 0 0 0 0 0 0.25 0"/>
<feBlend mode="overlay" in2="BackgroundImageFix" result="effect1_dropShadow_105_8867"/>
<feColorMatrix in="SourceAlpha" type="matrix" values="0 0 0 0 0 0 0 0 0 0 0 0 0 0 0 0 0 0 127 0" result="hardAlpha"/>
<feOffset dy="2.02145"/>
<feGaussianBlur stdDeviation="2.02145"/>
<feColorMatrix type="matrix" values="0 0 0 0 0 0 0 0 0 0 0 0 0 0 0 0 0 0 0.03 0"/>
<feBlend mode="normal" in2="effect1_dropShadow_105_8867" result="effect2_dropShadow_105_8867"/>
<feBlend mode="normal" in="SourceGraphic" in2="effect2_dropShadow_105_8867" result="shape"/>
</filter>
<filter id="filter3_dd_105_8867" x="22.7823" y="26.7432" width="31.1737" height="17.3525" filterUnits="userSpaceOnUse" color-interpolation-filters="sRGB">
<feFlood flood-opacity="0" result="BackgroundImageFix"/>
<feColorMatrix in="SourceAlpha" type="matrix" values="0 0 0 0 0 0 0 0 0 0 0 0 0 0 0 0 0 0 127 0" result="hardAlpha"/>
<feOffset dy="4"/>
<feGaussianBlur stdDeviation="2"/>
<feComposite in2="hardAlpha" operator="out"/>
<feColorMatrix type="matrix" values="0 0 0 0 0 0 0 0 0 0 0 0 0 0 0 0 0 0 0.25 0"/>
<feBlend mode="overlay" in2="BackgroundImageFix" result="effect1_dropShadow_105_8867"/>
<feColorMatrix in="SourceAlpha" type="matrix" values="0 0 0 0 0 0 0 0 0 0 0 0 0 0 0 0 0 0 127 0" result="hardAlpha"/>
<feOffset dy="2.02145"/>
<feGaussianBlur stdDeviation="2.02145"/>
<feColorMatrix type="matrix" values="0 0 0 0 0 0 0 0 0 0 0 0 0 0 0 0 0 0 0.03 0"/>
<feBlend mode="normal" in2="effect1_dropShadow_105_8867" result="effect2_dropShadow_105_8867"/>
<feBlend mode="normal" in="SourceGraphic" in2="effect2_dropShadow_105_8867" result="shape"/>
</filter>
<filter id="filter4_d_105_8867" x="28.1671" y="33.6475" width="18.9003" height="12.536" filterUnits="userSpaceOnUse" color-interpolation-filters="sRGB">
<feFlood flood-opacity="0" result="BackgroundImageFix"/>
<feColorMatrix in="SourceAlpha" type="matrix" values="0 0 0 0 0 0 0 0 0 0 0 0 0 0 0 0 0 0 127 0" result="hardAlpha"/>
<feOffset dy="2.02145"/>
<feGaussianBlur stdDeviation="2.02145"/>
<feColorMatrix type="matrix" values="0 0 0 0 0 0 0 0 0 0 0 0 0 0 0 0 0 0 0.03 0"/>
<feBlend mode="normal" in2="BackgroundImageFix" result="effect1_dropShadow_105_8867"/>
<feBlend mode="normal" in="SourceGraphic" in2="effect1_dropShadow_105_8867" result="shape"/>
</filter>
<filter id="filter5_di_105_8867" x="20.6055" y="22.6475" width="36.4911" height="18.6327" filterUnits="userSpaceOnUse" color-interpolation-filters="sRGB">
<feFlood flood-opacity="0" result="BackgroundImageFix"/>
<feColorMatrix in="SourceAlpha" type="matrix" values="0 0 0 0 0 0 0 0 0 0 0 0 0 0 0 0 0 0 127 0" result="hardAlpha"/>
<feOffset dy="2.02145"/>
<feGaussianBlur stdDeviation="2.02145"/>
<feColorMatrix type="matrix" values="0 0 0 0 0 0 0 0 0 0 0 0 0 0 0 0 0 0 0.03 0"/>
<feBlend mode="normal" in2="BackgroundImageFix" result="effect1_dropShadow_105_8867"/>
<feBlend mode="normal" in="SourceGraphic" in2="effect1_dropShadow_105_8867" result="shape"/>
<feColorMatrix in="SourceAlpha" type="matrix" values="0 0 0 0 0 0 0 0 0 0 0 0 0 0 0 0 0 0 127 0" result="hardAlpha"/>
<feOffset dx="-0.202145" dy="-0.101073"/>
<feGaussianBlur stdDeviation="2.02145"/>
<feComposite in2="hardAlpha" operator="arithmetic" k2="-1" k3="1"/>
<feColorMatrix type="matrix" values="0 0 0 0 1 0 0 0 0 1 0 0 0 0 1 0 0 0 0.2 0"/>
<feBlend mode="normal" in2="shape" result="effect2_innerShadow_105_8867"/>
</filter>
<filter id="filter6_di_105_8867" x="16.8243" y="34.7305" width="19.8114" height="14.6805" filterUnits="userSpaceOnUse" color-interpolation-filters="sRGB">
<feFlood flood-opacity="0" result="BackgroundImageFix"/>
<feColorMatrix in="SourceAlpha" type="matrix" values="0 0 0 0 0 0 0 0 0 0 0 0 0 0 0 0 0 0 127 0" result="hardAlpha"/>
<feOffset dy="2.02145"/>
<feGaussianBlur stdDeviation="2.02145"/>
<feColorMatrix type="matrix" values="0 0 0 0 0 0 0 0 0 0 0 0 0 0 0 0 0 0 0.03 0"/>
<feBlend mode="normal" in2="BackgroundImageFix" result="effect1_dropShadow_105_8867"/>
<feBlend mode="normal" in="SourceGraphic" in2="effect1_dropShadow_105_8867" result="shape"/>
<feColorMatrix in="SourceAlpha" type="matrix" values="0 0 0 0 0 0 0 0 0 0 0 0 0 0 0 0 0 0 127 0" result="hardAlpha"/>
<feOffset dx="-0.202145" dy="-0.101073"/>
<feGaussianBlur stdDeviation="2.02145"/>
<feComposite in2="hardAlpha" operator="arithmetic" k2="-1" k3="1"/>
<feColorMatrix type="matrix" values="0 0 0 0 1 0 0 0 0 1 0 0 0 0 1 0 0 0 0.2 0"/>
<feBlend mode="normal" in2="shape" result="effect2_innerShadow_105_8867"/>
</filter>
<linearGradient id="paint0_linear_105_8867" x1="35.2367" y1="30.0403" x2="29.048" y2="53.1367" gradientUnits="userSpaceOnUse">
<stop offset="0.572917" stop-color="white" stop-opacity="0"/>
<stop offset="1" stop-color="white" stop-opacity="0.08"/>
</linearGradient>
<linearGradient id="paint1_linear_105_8867" x1="7.07422" y1="22.4941" x2="5.33094" y2="51.7221" gradientUnits="userSpaceOnUse">
<stop stop-color="white" stop-opacity="0.1"/>
<stop offset="1" stop-color="white" stop-opacity="0"/>
</linearGradient>
<linearGradient id="paint2_linear_105_8867" x1="35.2367" y1="30.0403" x2="22.1324" y2="56.2241" gradientUnits="userSpaceOnUse">
<stop stop-color="white" stop-opacity="0.5"/>
<stop offset="1" stop-color="white" stop-opacity="0.1"/>
</linearGradient>
<linearGradient id="paint3_linear_105_8867" x1="7.61044" y1="46.9991" x2="32.8516" y2="66.5226" gradientUnits="userSpaceOnUse">
<stop stop-color="#BFB9F2"/>
<stop offset="1" stop-color="#6050D7"/>
</linearGradient>
<linearGradient id="paint4_linear_105_8867" x1="21" y1="0" x2="21" y2="30" gradientUnits="userSpaceOnUse">
<stop offset="0.572917" stop-color="white" stop-opacity="0"/>
<stop offset="1" stop-color="white" stop-opacity="0.08"/>
</linearGradient>
<linearGradient id="paint5_linear_105_8867" x1="0" y1="0" x2="11.8778" y2="33.2579" gradientUnits="userSpaceOnUse">
<stop stop-color="white" stop-opacity="0.1"/>
<stop offset="1" stop-color="white" stop-opacity="0"/>
</linearGradient>
<linearGradient id="paint6_linear_105_8867" x1="21" y1="-4.47035e-07" x2="9.12217" y2="33.2579" gradientUnits="userSpaceOnUse">
<stop stop-color="white" stop-opacity="0.5"/>
<stop offset="1" stop-color="white" stop-opacity="0.1"/>
</linearGradient>
<linearGradient id="paint7_linear_105_8867" x1="21" y1="0" x2="21" y2="30" gradientUnits="userSpaceOnUse">
<stop stop-color="white"/>
<stop offset="1" stop-color="white" stop-opacity="0"/>
</linearGradient>
</defs>
</svg>
