<svg xmlns="http://www.w3.org/2000/svg" width="24" height="24" viewBox="0 0 24 24" fill="none">
    <g filter="url(#filter0_d_157_5322)">
        <g clip-path="url(#clip0_157_5322)">
            <rect x="6" y="6" width="12" height="12" fill="white"/>
            <path d="M12 6.75C9.1043 6.75 6.75 9.1043 6.75 12C6.75 14.8957 9.1043 17.25 12 17.25C14.8957 17.25 17.25 14.8957 17.25 12C17.25 9.1043 14.8957 6.75 12 6.75Z" fill="#E6001F"/>
            <path d="M8.625 14.625C8.625 14.625 10.9578 9.00147 10.9522 9C10.9522 9 10.9522 9 10.9522 9H10.9522H12.7238L15.375 14.625L13.3726 14.625C13.374 14.628 11.8711 11.1736 11.8523 11.1389C11.849 11.169 10.8556 13.4809 10.8437 13.4838H11.9141C11.9093 13.4896 12.3796 14.6143 12.3796 14.625L8.625 14.625Z" fill="white"/>
        </g>
        <rect x="4.66667" y="4.66667" width="14.6667" height="14.6667" stroke="white" stroke-width="2.66667"/>
    </g>
    <defs>
        <filter id="filter0_d_157_5322" x="0.666829" y="0.667318" width="22.6663" height="22.6654" filterUnits="userSpaceOnUse" color-interpolation-filters="sRGB">
            <feFlood flood-opacity="0" result="BackgroundImageFix"/>
            <feColorMatrix in="SourceAlpha" type="matrix" values="0 0 0 0 0 0 0 0 0 0 0 0 0 0 0 0 0 0 127 0" result="hardAlpha"/>
            <feOffset/>
            <feGaussianBlur stdDeviation="1.33333"/>
            <feComposite in2="hardAlpha" operator="out"/>
            <feColorMatrix type="matrix" values="0 0 0 0 0 0 0 0 0 0 0 0 0 0 0 0 0 0 0.25 0"/>
            <feBlend mode="normal" in2="BackgroundImageFix" result="effect1_dropShadow_157_5322"/>
            <feBlend mode="normal" in="SourceGraphic" in2="effect1_dropShadow_157_5322" result="shape"/>
        </filter>
        <clipPath id="clip0_157_5322">
            <rect x="6" y="6" width="12" height="12" fill="white"/>
        </clipPath>
    </defs>
</svg>