<svg xmlns="http://www.w3.org/2000/svg" width="28" height="29" viewBox="0 0 28 29" fill="none">
    <path d="M17.43 6.55492C17.8711 6.04658 18.2074 5.45612 18.4196 4.81744C18.6318 4.17877 18.7158 3.50447 18.6667 2.83325C17.3126 2.94255 16.0557 3.5794 15.1667 4.60659C14.741 5.09889 14.4184 5.67161 14.218 6.29084C14.0176 6.91006 13.9435 7.5632 14 8.21159C14.6605 8.21709 15.3134 8.07053 15.9082 7.78325C16.503 7.49598 17.0237 7.07569 17.43 6.55492V6.55492ZM20.37 15.2349C20.3778 14.3409 20.6133 13.4637 21.0542 12.686C21.4951 11.9083 22.1269 11.2557 22.89 10.7899C22.4084 10.096 21.7718 9.52389 21.0306 9.11887C20.2895 8.71385 19.4641 8.4871 18.62 8.45659C16.8 8.26992 15.12 9.51825 14.1517 9.51825C13.1834 9.51825 11.8184 8.47992 10.3017 8.50325C9.31017 8.53591 8.34404 8.825 7.49754 9.3423C6.65104 9.85961 5.95306 10.5875 5.47169 11.4549C3.41835 15.0249 4.94669 20.3333 7.00002 23.2149C7.93335 24.6266 9.10002 26.2249 10.64 26.1666C12.18 26.1083 12.6817 25.2099 14.4667 25.2099C16.2517 25.2099 16.8 26.1666 18.3167 26.1316C19.8334 26.0966 20.9067 24.6849 21.8867 23.2733C22.5809 22.2484 23.1232 21.1284 23.4967 19.9483C22.5721 19.5539 21.7832 18.8974 21.2276 18.0598C20.6719 17.2221 20.3738 16.2401 20.37 15.2349V15.2349Z" fill="#374151"/>
</svg>