<svg width="17" height="17" viewBox="0 0 17 17" fill="none" xmlns="http://www.w3.org/2000/svg">
<g id="Leading Icon">
<g id="Vector">
<path d="M13 2H4C3.73478 2 3.48043 2.10536 3.29289 2.29289C3.10536 2.48043 3 2.73478 3 3V14C3 14.2652 3.10536 14.5196 3.29289 14.7071C3.48043 14.8946 3.73478 15 4 15H13C13.2652 15 13.5196 14.8946 13.7071 14.7071C13.8946 14.5196 14 14.2652 14 14V3C14 2.73478 13.8946 2.48043 13.7071 2.29289C13.5196 2.10536 13.2652 2 13 2ZM6 13C5.85166 13 5.70666 12.956 5.58332 12.8736C5.45999 12.7912 5.36386 12.6741 5.30709 12.537C5.25032 12.4 5.23547 12.2492 5.26441 12.1037C5.29335 11.9582 5.36478 11.8246 5.46967 11.7197C5.57456 11.6148 5.7082 11.5433 5.85368 11.5144C5.99917 11.4855 6.14997 11.5003 6.28701 11.5571C6.42406 11.6139 6.54119 11.71 6.6236 11.8333C6.70601 11.9567 6.75 12.1017 6.75 12.25C6.75 12.4489 6.67098 12.6397 6.53033 12.7803C6.38968 12.921 6.19891 13 6 13ZM6 10.5C5.85166 10.5 5.70666 10.456 5.58332 10.3736C5.45999 10.2912 5.36386 10.1741 5.30709 10.037C5.25032 9.89997 5.23547 9.74917 5.26441 9.60368C5.29335 9.4582 5.36478 9.32456 5.46967 9.21967C5.57456 9.11478 5.7082 9.04335 5.85368 9.01441C5.99917 8.98547 6.14997 9.00033 6.28701 9.05709C6.42406 9.11386 6.54119 9.20999 6.6236 9.33332C6.70601 9.45666 6.75 9.60166 6.75 9.75C6.75 9.94891 6.67098 10.1397 6.53033 10.2803C6.38968 10.421 6.19891 10.5 6 10.5ZM8.5 13C8.35166 13 8.20666 12.956 8.08332 12.8736C7.95999 12.7912 7.86386 12.6741 7.80709 12.537C7.75032 12.4 7.73547 12.2492 7.76441 12.1037C7.79335 11.9582 7.86478 11.8246 7.96967 11.7197C8.07456 11.6148 8.2082 11.5433 8.35368 11.5144C8.49917 11.4855 8.64997 11.5003 8.78701 11.5571C8.92406 11.6139 9.04119 11.71 9.1236 11.8333C9.20601 11.9567 9.25 12.1017 9.25 12.25C9.25 12.4489 9.17098 12.6397 9.03033 12.7803C8.88968 12.921 8.69891 13 8.5 13ZM8.5 10.5C8.35166 10.5 8.20666 10.456 8.08332 10.3736C7.95999 10.2912 7.86386 10.1741 7.80709 10.037C7.75032 9.89997 7.73547 9.74917 7.76441 9.60368C7.79335 9.4582 7.86478 9.32456 7.96967 9.21967C8.07456 9.11478 8.2082 9.04335 8.35368 9.01441C8.49917 8.98547 8.64997 9.00033 8.78701 9.05709C8.92406 9.11386 9.04119 9.20999 9.1236 9.33332C9.20601 9.45666 9.25 9.60166 9.25 9.75C9.25 9.94891 9.17098 10.1397 9.03033 10.2803C8.88968 10.421 8.69891 10.5 8.5 10.5ZM11 13C10.8517 13 10.7067 12.956 10.5833 12.8736C10.46 12.7912 10.3639 12.6741 10.3071 12.537C10.2503 12.4 10.2355 12.2492 10.2644 12.1037C10.2933 11.9582 10.3648 11.8246 10.4697 11.7197C10.5746 11.6148 10.7082 11.5433 10.8537 11.5144C10.9992 11.4855 11.15 11.5003 11.287 11.5571C11.4241 11.6139 11.5412 11.71 11.6236 11.8333C11.706 11.9567 11.75 12.1017 11.75 12.25C11.75 12.4489 11.671 12.6397 11.5303 12.7803C11.3897 12.921 11.1989 13 11 13ZM11 10.5C10.8517 10.5 10.7067 10.456 10.5833 10.3736C10.46 10.2912 10.3639 10.1741 10.3071 10.037C10.2503 9.89997 10.2355 9.74917 10.2644 9.60368C10.2933 9.4582 10.3648 9.32456 10.4697 9.21967C10.5746 9.11478 10.7082 9.04335 10.8537 9.01441C10.9992 8.98547 11.15 9.00033 11.287 9.05709C11.4241 9.11386 11.5412 9.20999 11.6236 9.33332C11.706 9.45666 11.75 9.60166 11.75 9.75C11.75 9.94891 11.671 10.1397 11.5303 10.2803C11.3897 10.421 11.1989 10.5 11 10.5ZM12 7C12 7.13261 11.9473 7.25979 11.8536 7.35355C11.7598 7.44732 11.6326 7.5 11.5 7.5H5.5C5.36739 7.5 5.24021 7.44732 5.14645 7.35355C5.05268 7.25979 5 7.13261 5 7V4.5C5 4.36739 5.05268 4.24021 5.14645 4.14645C5.24021 4.05268 5.36739 4 5.5 4H11.5C11.6326 4 11.7598 4.05268 11.8536 4.14645C11.9473 4.24021 12 4.36739 12 4.5V7Z" fill="#3B28CC"/>
<path d="M13 2H4C3.73478 2 3.48043 2.10536 3.29289 2.29289C3.10536 2.48043 3 2.73478 3 3V14C3 14.2652 3.10536 14.5196 3.29289 14.7071C3.48043 14.8946 3.73478 15 4 15H13C13.2652 15 13.5196 14.8946 13.7071 14.7071C13.8946 14.5196 14 14.2652 14 14V3C14 2.73478 13.8946 2.48043 13.7071 2.29289C13.5196 2.10536 13.2652 2 13 2ZM6 13C5.85166 13 5.70666 12.956 5.58332 12.8736C5.45999 12.7912 5.36386 12.6741 5.30709 12.537C5.25032 12.4 5.23547 12.2492 5.26441 12.1037C5.29335 11.9582 5.36478 11.8246 5.46967 11.7197C5.57456 11.6148 5.7082 11.5433 5.85368 11.5144C5.99917 11.4855 6.14997 11.5003 6.28701 11.5571C6.42406 11.6139 6.54119 11.71 6.6236 11.8333C6.70601 11.9567 6.75 12.1017 6.75 12.25C6.75 12.4489 6.67098 12.6397 6.53033 12.7803C6.38968 12.921 6.19891 13 6 13ZM6 10.5C5.85166 10.5 5.70666 10.456 5.58332 10.3736C5.45999 10.2912 5.36386 10.1741 5.30709 10.037C5.25032 9.89997 5.23547 9.74917 5.26441 9.60368C5.29335 9.4582 5.36478 9.32456 5.46967 9.21967C5.57456 9.11478 5.7082 9.04335 5.85368 9.01441C5.99917 8.98547 6.14997 9.00033 6.28701 9.05709C6.42406 9.11386 6.54119 9.20999 6.6236 9.33332C6.70601 9.45666 6.75 9.60166 6.75 9.75C6.75 9.94891 6.67098 10.1397 6.53033 10.2803C6.38968 10.421 6.19891 10.5 6 10.5ZM8.5 13C8.35166 13 8.20666 12.956 8.08332 12.8736C7.95999 12.7912 7.86386 12.6741 7.80709 12.537C7.75032 12.4 7.73547 12.2492 7.76441 12.1037C7.79335 11.9582 7.86478 11.8246 7.96967 11.7197C8.07456 11.6148 8.2082 11.5433 8.35368 11.5144C8.49917 11.4855 8.64997 11.5003 8.78701 11.5571C8.92406 11.6139 9.04119 11.71 9.1236 11.8333C9.20601 11.9567 9.25 12.1017 9.25 12.25C9.25 12.4489 9.17098 12.6397 9.03033 12.7803C8.88968 12.921 8.69891 13 8.5 13ZM8.5 10.5C8.35166 10.5 8.20666 10.456 8.08332 10.3736C7.95999 10.2912 7.86386 10.1741 7.80709 10.037C7.75032 9.89997 7.73547 9.74917 7.76441 9.60368C7.79335 9.4582 7.86478 9.32456 7.96967 9.21967C8.07456 9.11478 8.2082 9.04335 8.35368 9.01441C8.49917 8.98547 8.64997 9.00033 8.78701 9.05709C8.92406 9.11386 9.04119 9.20999 9.1236 9.33332C9.20601 9.45666 9.25 9.60166 9.25 9.75C9.25 9.94891 9.17098 10.1397 9.03033 10.2803C8.88968 10.421 8.69891 10.5 8.5 10.5ZM11 13C10.8517 13 10.7067 12.956 10.5833 12.8736C10.46 12.7912 10.3639 12.6741 10.3071 12.537C10.2503 12.4 10.2355 12.2492 10.2644 12.1037C10.2933 11.9582 10.3648 11.8246 10.4697 11.7197C10.5746 11.6148 10.7082 11.5433 10.8537 11.5144C10.9992 11.4855 11.15 11.5003 11.287 11.5571C11.4241 11.6139 11.5412 11.71 11.6236 11.8333C11.706 11.9567 11.75 12.1017 11.75 12.25C11.75 12.4489 11.671 12.6397 11.5303 12.7803C11.3897 12.921 11.1989 13 11 13ZM11 10.5C10.8517 10.5 10.7067 10.456 10.5833 10.3736C10.46 10.2912 10.3639 10.1741 10.3071 10.037C10.2503 9.89997 10.2355 9.74917 10.2644 9.60368C10.2933 9.4582 10.3648 9.32456 10.4697 9.21967C10.5746 9.11478 10.7082 9.04335 10.8537 9.01441C10.9992 8.98547 11.15 9.00033 11.287 9.05709C11.4241 9.11386 11.5412 9.20999 11.6236 9.33332C11.706 9.45666 11.75 9.60166 11.75 9.75C11.75 9.94891 11.671 10.1397 11.5303 10.2803C11.3897 10.421 11.1989 10.5 11 10.5ZM12 7C12 7.13261 11.9473 7.25979 11.8536 7.35355C11.7598 7.44732 11.6326 7.5 11.5 7.5H5.5C5.36739 7.5 5.24021 7.44732 5.14645 7.35355C5.05268 7.25979 5 7.13261 5 7V4.5C5 4.36739 5.05268 4.24021 5.14645 4.14645C5.24021 4.05268 5.36739 4 5.5 4H11.5C11.6326 4 11.7598 4.05268 11.8536 4.14645C11.9473 4.24021 12 4.36739 12 4.5V7Z" fill="url(#paint0_linear_11_987)" fill-opacity="0.4"/>
</g>
</g>
<defs>
<linearGradient id="paint0_linear_11_987" x1="3" y1="2" x2="12.7179" y2="15.8966" gradientUnits="userSpaceOnUse">
<stop stop-color="#9D71FF"/>
<stop offset="1" stop-color="#4B78EC"/>
</linearGradient>
</defs>
</svg>
