<svg width="64" height="64" viewBox="0 0 64 64" fill="none" xmlns="http://www.w3.org/2000/svg">
<path d="M48.326 44.9199C49.4962 45.5956 50.5751 45.488 51.1466 44.6388L51.6605 43.8751C53.0581 41.7984 53.9988 39.1929 54.4382 36.1813C54.6281 34.8801 54.7234 33.5094 54.7234 32.0816V20.5028C54.7234 19.6017 54.0908 18.5059 53.3104 18.0554L34.1469 6.99131C31.2855 5.33925 28.9658 6.67851 28.9658 9.98263L28.9658 28.3036C28.9658 31.3073 31.0746 34.9598 33.6759 36.4617L48.326 44.9199Z" fill="#D9D9D9"/>
<path d="M48.326 44.9199C49.4962 45.5956 50.5751 45.488 51.1466 44.6388L51.6605 43.8751C53.0581 41.7984 53.9988 39.1929 54.4382 36.1813C54.6281 34.8801 54.7234 33.5094 54.7234 32.0816V20.5028C54.7234 19.6017 54.0908 18.5059 53.3104 18.0554L34.1469 6.99131C31.2855 5.33925 28.9658 6.67851 28.9658 9.98263L28.9658 28.3036C28.9658 31.3073 31.0746 34.9598 33.6759 36.4617L48.326 44.9199Z" fill="url(#paint0_linear_1_6896)"/>
<path d="M48.326 44.9199C49.4962 45.5956 50.5751 45.488 51.1466 44.6388L51.6605 43.8751C53.0581 41.7984 53.9988 39.1929 54.4382 36.1813C54.6281 34.8801 54.7234 33.5094 54.7234 32.0816V20.5028C54.7234 19.6017 54.0908 18.5059 53.3104 18.0554L34.1469 6.99131C31.2855 5.33925 28.9658 6.67851 28.9658 9.98263L28.9658 28.3036C28.9658 31.3073 31.0746 34.9598 33.6759 36.4617L48.326 44.9199Z" fill="url(#paint1_linear_1_6896)"/>
<path d="M42.545 49.141C45.6665 50.9433 48.1971 49.4823 48.1971 45.8778V28.1007C48.1971 25.0969 46.0883 21.4444 43.487 19.9426L27.6206 10.7821C24.7591 9.13002 22.4395 10.4693 22.4395 13.7734L22.4395 32.0944C22.4395 35.0981 24.5482 38.7506 27.1495 40.2525L42.545 49.141Z" fill="#D9D9D9"/>
<path d="M42.545 49.141C45.6665 50.9433 48.1971 49.4823 48.1971 45.8778V28.1007C48.1971 25.0969 46.0883 21.4444 43.487 19.9426L27.6206 10.7821C24.7591 9.13002 22.4395 10.4693 22.4395 13.7734L22.4395 32.0944C22.4395 35.0981 24.5482 38.7506 27.1495 40.2525L42.545 49.141Z" fill="url(#paint2_linear_1_6896)"/>
<path d="M42.545 49.141C45.6665 50.9433 48.1971 49.4823 48.1971 45.8778V28.1007C48.1971 25.0969 46.0883 21.4444 43.487 19.9426L27.6206 10.7821C24.7591 9.13002 22.4395 10.4693 22.4395 13.7734L22.4395 32.0944C22.4395 35.0981 24.5482 38.7506 27.1495 40.2525L42.545 49.141Z" fill="url(#paint3_linear_1_6896)"/>
<path d="M42.545 49.141C45.6665 50.9433 48.1971 49.4823 48.1971 45.8778V28.1007C48.1971 25.0969 46.0883 21.4444 43.487 19.9426L27.6206 10.7821C24.7591 9.13002 22.4395 10.4693 22.4395 13.7734L22.4395 32.0944C22.4395 35.0981 24.5482 38.7506 27.1495 40.2525L42.545 49.141Z" fill="url(#paint4_linear_1_6896)" fill-opacity="0.2"/>
<path d="M36.4896 53.2201C39.3511 54.8722 41.6707 53.5329 41.6707 50.2288V31.9078C41.6707 28.9041 39.5619 25.2516 36.9606 23.7497L21.0942 14.5892C18.2327 12.9372 15.9131 14.2764 15.9131 17.5805L15.9131 35.9015C15.9131 38.9052 18.0219 42.5577 20.6232 44.0596L36.4896 53.2201Z" fill="#D9D9D9"/>
<path d="M36.4896 53.2201C39.3511 54.8722 41.6707 53.5329 41.6707 50.2288V31.9078C41.6707 28.9041 39.5619 25.2516 36.9606 23.7497L21.0942 14.5892C18.2327 12.9372 15.9131 14.2764 15.9131 17.5805L15.9131 35.9015C15.9131 38.9052 18.0219 42.5577 20.6232 44.0596L36.4896 53.2201Z" fill="url(#paint5_linear_1_6896)"/>
<path d="M36.4896 53.2201C39.3511 54.8722 41.6707 53.5329 41.6707 50.2288V31.9078C41.6707 28.9041 39.5619 25.2516 36.9606 23.7497L21.0942 14.5892C18.2327 12.9372 15.9131 14.2764 15.9131 17.5805L15.9131 35.9015C15.9131 38.9052 18.0219 42.5577 20.6232 44.0596L36.4896 53.2201Z" fill="url(#paint6_linear_1_6896)"/>
<path d="M36.4896 53.2201C39.3511 54.8722 41.6707 53.5329 41.6707 50.2288V31.9078C41.6707 28.9041 39.5619 25.2516 36.9606 23.7497L21.0942 14.5892C18.2327 12.9372 15.9131 14.2764 15.9131 17.5805L15.9131 35.9015C15.9131 38.9052 18.0219 42.5577 20.6232 44.0596L36.4896 53.2201Z" fill="url(#paint7_linear_1_6896)" fill-opacity="0.8"/>
<path d="M29.7138 56.9253C31.2176 57.7932 32.6594 57.9334 33.72 57.3148L33.9372 57.1881C34.6396 56.7784 35.034 55.9027 35.034 54.7526L35.034 35.6964C35.034 32.6927 32.9252 29.0401 30.3239 27.5383L14.4575 18.3778C11.596 16.7257 9.27637 18.065 9.27637 21.3691L9.27637 33.7059C9.27637 40.0144 13.7056 47.6854 19.1689 50.8387L29.7138 56.9253Z" fill="#D9D9D9"/>
<path d="M29.7138 56.9253C31.2176 57.7932 32.6594 57.9334 33.72 57.3148L33.9372 57.1881C34.6396 56.7784 35.034 55.9027 35.034 54.7526L35.034 35.6964C35.034 32.6927 32.9252 29.0401 30.3239 27.5383L14.4575 18.3778C11.596 16.7257 9.27637 18.065 9.27637 21.3691L9.27637 33.7059C9.27637 40.0144 13.7056 47.6854 19.1689 50.8387L29.7138 56.9253Z" fill="url(#paint8_linear_1_6896)"/>
<path d="M29.7138 56.9253C31.2176 57.7932 32.6594 57.9334 33.72 57.3148L33.9372 57.1881C34.6396 56.7784 35.034 55.9027 35.034 54.7526L35.034 35.6964C35.034 32.6927 32.9252 29.0401 30.3239 27.5383L14.4575 18.3778C11.596 16.7257 9.27637 18.065 9.27637 21.3691L9.27637 33.7059C9.27637 40.0144 13.7056 47.6854 19.1689 50.8387L29.7138 56.9253Z" fill="url(#paint9_linear_1_6896)"/>
<path d="M29.7138 56.9253C31.2176 57.7932 32.6594 57.9334 33.72 57.3148L33.9372 57.1881C34.6396 56.7784 35.034 55.9027 35.034 54.7526L35.034 35.6964C35.034 32.6927 32.9252 29.0401 30.3239 27.5383L14.4575 18.3778C11.596 16.7257 9.27637 18.065 9.27637 21.3691L9.27637 33.7059C9.27637 40.0144 13.7056 47.6854 19.1689 50.8387L29.7138 56.9253Z" fill="url(#paint10_linear_1_6896)"/>
<defs>
<linearGradient id="paint0_linear_1_6896" x1="28.9414" y1="22.0268" x2="46.1135" y2="39.2029" gradientUnits="userSpaceOnUse">
<stop stop-color="#6050D7"/>
<stop offset="1" stop-color="#2E1DA4"/>
</linearGradient>
<linearGradient id="paint1_linear_1_6896" x1="41.8446" y1="39.1851" x2="52.998" y2="19.8668" gradientUnits="userSpaceOnUse">
<stop stop-color="#D4D0F6"/>
<stop offset="1" stop-color="#A9A1ED"/>
</linearGradient>
<linearGradient id="paint2_linear_1_6896" x1="22.415" y1="25.8181" x2="39.5871" y2="42.9942" gradientUnits="userSpaceOnUse">
<stop stop-color="#6050D7"/>
<stop offset="1" stop-color="#2E1DA4"/>
</linearGradient>
<linearGradient id="paint3_linear_1_6896" x1="35.3183" y1="42.9764" x2="46.4716" y2="23.6581" gradientUnits="userSpaceOnUse">
<stop stop-color="#D4D0F6"/>
<stop offset="1" stop-color="#A9A1ED"/>
</linearGradient>
<linearGradient id="paint4_linear_1_6896" x1="22.4395" y1="22.662" x2="48.1971" y2="22.662" gradientUnits="userSpaceOnUse">
<stop stop-color="#6050D7"/>
<stop offset="1" stop-color="#3B28CC"/>
</linearGradient>
<linearGradient id="paint5_linear_1_6896" x1="15.8886" y1="29.6253" x2="33.0607" y2="46.8013" gradientUnits="userSpaceOnUse">
<stop stop-color="#6050D7"/>
<stop offset="1" stop-color="#2E1DA4"/>
</linearGradient>
<linearGradient id="paint6_linear_1_6896" x1="28.7919" y1="46.7835" x2="39.9453" y2="27.4653" gradientUnits="userSpaceOnUse">
<stop stop-color="#D4D0F6"/>
<stop offset="1" stop-color="#A9A1ED"/>
</linearGradient>
<linearGradient id="paint7_linear_1_6896" x1="15.9131" y1="26.4691" x2="41.6707" y2="26.4691" gradientUnits="userSpaceOnUse">
<stop stop-color="#6050D7"/>
<stop offset="1" stop-color="#3B28CC"/>
</linearGradient>
<linearGradient id="paint8_linear_1_6896" x1="9.25191" y1="33.4324" x2="26.424" y2="50.6085" gradientUnits="userSpaceOnUse">
<stop stop-color="#6050D7"/>
<stop offset="1" stop-color="#2E1DA4"/>
</linearGradient>
<linearGradient id="paint9_linear_1_6896" x1="22.1552" y1="50.5907" x2="33.3086" y2="31.2724" gradientUnits="userSpaceOnUse">
<stop stop-color="#D4D0F6"/>
<stop offset="1" stop-color="#A9A1ED"/>
</linearGradient>
<linearGradient id="paint10_linear_1_6896" x1="9.27637" y1="30.2763" x2="35.034" y2="30.2763" gradientUnits="userSpaceOnUse">
<stop stop-color="#6050D7"/>
<stop offset="1" stop-color="#3B28CC"/>
</linearGradient>
</defs>
</svg>
