<svg width="22" height="26" viewBox="0 0 22 26" fill="none" xmlns="http://www.w3.org/2000/svg">
<path d="M18.5045 18.9389C19.0424 19.2495 19.5383 19.2 19.801 18.8097L20.0373 18.4586C20.6797 17.504 21.1121 16.3064 21.3141 14.9221C21.4014 14.3239 21.4452 13.6939 21.4452 13.0376V7.71521C21.4452 7.301 21.1544 6.79732 20.7957 6.59021L11.9869 1.50447C10.6716 0.745075 9.60535 1.36068 9.60535 2.87947L9.60535 11.301C9.60535 12.6817 10.5747 14.3606 11.7704 15.051L18.5045 18.9389Z" fill="#D9D9D9"/>
<path d="M18.5045 18.9389C19.0424 19.2495 19.5383 19.2 19.801 18.8097L20.0373 18.4586C20.6797 17.504 21.1121 16.3064 21.3141 14.9221C21.4014 14.3239 21.4452 13.6939 21.4452 13.0376V7.71521C21.4452 7.301 21.1544 6.79732 20.7957 6.59021L11.9869 1.50447C10.6716 0.745075 9.60535 1.36068 9.60535 2.87947L9.60535 11.301C9.60535 12.6817 10.5747 14.3606 11.7704 15.051L18.5045 18.9389Z" fill="url(#paint0_linear_10_14)"/>
<path d="M18.5045 18.9389C19.0424 19.2495 19.5383 19.2 19.801 18.8097L20.0373 18.4586C20.6797 17.504 21.1121 16.3064 21.3141 14.9221C21.4014 14.3239 21.4452 13.6939 21.4452 13.0376V7.71521C21.4452 7.301 21.1544 6.79732 20.7957 6.59021L11.9869 1.50447C10.6716 0.745075 9.60535 1.36068 9.60535 2.87947L9.60535 11.301C9.60535 12.6817 10.5747 14.3606 11.7704 15.051L18.5045 18.9389Z" fill="url(#paint1_linear_10_14)"/>
<path d="M15.8471 20.8789C17.282 21.7073 18.4452 21.0357 18.4452 19.3789V11.2074C18.4452 9.82669 17.4759 8.14776 16.2801 7.4574L8.98691 3.24665C7.67161 2.48726 6.60535 3.10287 6.60535 4.62165L6.60535 13.0432C6.60535 14.4239 7.57468 16.1028 8.77041 16.7931L15.8471 20.8789Z" fill="#D9D9D9"/>
<path d="M15.8471 20.8789C17.282 21.7073 18.4452 21.0357 18.4452 19.3789V11.2074C18.4452 9.82669 17.4759 8.14776 16.2801 7.4574L8.98691 3.24665C7.67161 2.48726 6.60535 3.10287 6.60535 4.62165L6.60535 13.0432C6.60535 14.4239 7.57468 16.1028 8.77041 16.7931L15.8471 20.8789Z" fill="url(#paint2_linear_10_14)"/>
<path d="M15.8471 20.8789C17.282 21.7073 18.4452 21.0357 18.4452 19.3789V11.2074C18.4452 9.82669 17.4759 8.14776 16.2801 7.4574L8.98691 3.24665C7.67161 2.48726 6.60535 3.10287 6.60535 4.62165L6.60535 13.0432C6.60535 14.4239 7.57468 16.1028 8.77041 16.7931L15.8471 20.8789Z" fill="url(#paint3_linear_10_14)"/>
<path d="M15.8471 20.8789C17.282 21.7073 18.4452 21.0357 18.4452 19.3789V11.2074C18.4452 9.82669 17.4759 8.14776 16.2801 7.4574L8.98691 3.24665C7.67161 2.48726 6.60535 3.10287 6.60535 4.62165L6.60535 13.0432C6.60535 14.4239 7.57468 16.1028 8.77041 16.7931L15.8471 20.8789Z" fill="url(#paint4_linear_10_14)" fill-opacity="0.2"/>
<path d="M13.0636 22.7539C14.3789 23.5133 15.4452 22.8977 15.4452 21.3789V12.9574C15.4452 11.5767 14.4759 9.89776 13.2801 9.2074L5.98691 4.99665C4.67161 4.23726 3.60535 4.85287 3.60535 6.37165L3.60535 14.7932C3.60535 16.1739 4.57468 17.8528 5.77041 18.5431L13.0636 22.7539Z" fill="#D9D9D9"/>
<path d="M13.0636 22.7539C14.3789 23.5133 15.4452 22.8977 15.4452 21.3789V12.9574C15.4452 11.5767 14.4759 9.89776 13.2801 9.2074L5.98691 4.99665C4.67161 4.23726 3.60535 4.85287 3.60535 6.37165L3.60535 14.7932C3.60535 16.1739 4.57468 17.8528 5.77041 18.5431L13.0636 22.7539Z" fill="url(#paint5_linear_10_14)"/>
<path d="M13.0636 22.7539C14.3789 23.5133 15.4452 22.8977 15.4452 21.3789V12.9574C15.4452 11.5767 14.4759 9.89776 13.2801 9.2074L5.98691 4.99665C4.67161 4.23726 3.60535 4.85287 3.60535 6.37165L3.60535 14.7932C3.60535 16.1739 4.57468 17.8528 5.77041 18.5431L13.0636 22.7539Z" fill="url(#paint6_linear_10_14)"/>
<path d="M13.0636 22.7539C14.3789 23.5133 15.4452 22.8977 15.4452 21.3789V12.9574C15.4452 11.5767 14.4759 9.89776 13.2801 9.2074L5.98691 4.99665C4.67161 4.23726 3.60535 4.85287 3.60535 6.37165L3.60535 14.7932C3.60535 16.1739 4.57468 17.8528 5.77041 18.5431L13.0636 22.7539Z" fill="url(#paint7_linear_10_14)" fill-opacity="0.8"/>
<path d="M9.94919 24.4572C10.6404 24.8562 11.3031 24.9207 11.7907 24.6363L11.8905 24.5781C12.2134 24.3897 12.3947 23.9872 12.3947 23.4586L12.3947 14.6991C12.3947 13.3184 11.4253 11.6395 10.2296 10.9491L2.93638 6.73835C1.62107 5.97896 0.55481 6.59457 0.55481 8.11335L0.55481 13.7842C0.554809 16.6839 2.59078 20.21 5.10205 21.6595L9.94919 24.4572Z" fill="#D9D9D9"/>
<path d="M9.94919 24.4572C10.6404 24.8562 11.3031 24.9207 11.7907 24.6363L11.8905 24.5781C12.2134 24.3897 12.3947 23.9872 12.3947 23.4586L12.3947 14.6991C12.3947 13.3184 11.4253 11.6395 10.2296 10.9491L2.93638 6.73835C1.62107 5.97896 0.55481 6.59457 0.55481 8.11335L0.55481 13.7842C0.554809 16.6839 2.59078 20.21 5.10205 21.6595L9.94919 24.4572Z" fill="url(#paint8_linear_10_14)"/>
<path d="M9.94919 24.4572C10.6404 24.8562 11.3031 24.9207 11.7907 24.6363L11.8905 24.5781C12.2134 24.3897 12.3947 23.9872 12.3947 23.4586L12.3947 14.6991C12.3947 13.3184 11.4253 11.6395 10.2296 10.9491L2.93638 6.73835C1.62107 5.97896 0.55481 6.59457 0.55481 8.11335L0.55481 13.7842C0.554809 16.6839 2.59078 20.21 5.10205 21.6595L9.94919 24.4572Z" fill="url(#paint9_linear_10_14)"/>
<path d="M9.94919 24.4572C10.6404 24.8562 11.3031 24.9207 11.7907 24.6363L11.8905 24.5781C12.2134 24.3897 12.3947 23.9872 12.3947 23.4586L12.3947 14.6991C12.3947 13.3184 11.4253 11.6395 10.2296 10.9491L2.93638 6.73835C1.62107 5.97896 0.55481 6.59457 0.55481 8.11335L0.55481 13.7842C0.554809 16.6839 2.59078 20.21 5.10205 21.6595L9.94919 24.4572Z" fill="url(#paint10_linear_10_14)"/>
<defs>
<linearGradient id="paint0_linear_10_14" x1="9.5941" y1="8.41576" x2="17.4875" y2="16.311" gradientUnits="userSpaceOnUse">
<stop stop-color="#6050D7"/>
<stop offset="1" stop-color="#2E1DA4"/>
</linearGradient>
<linearGradient id="paint1_linear_10_14" x1="15.5253" y1="16.3028" x2="20.6521" y2="7.42289" gradientUnits="userSpaceOnUse">
<stop stop-color="#D4D0F6"/>
<stop offset="1" stop-color="#A9A1ED"/>
</linearGradient>
<linearGradient id="paint2_linear_10_14" x1="6.5941" y1="10.1582" x2="14.4875" y2="18.0534" gradientUnits="userSpaceOnUse">
<stop stop-color="#6050D7"/>
<stop offset="1" stop-color="#2E1DA4"/>
</linearGradient>
<linearGradient id="paint3_linear_10_14" x1="12.5253" y1="18.0452" x2="17.6521" y2="9.16532" gradientUnits="userSpaceOnUse">
<stop stop-color="#D4D0F6"/>
<stop offset="1" stop-color="#A9A1ED"/>
</linearGradient>
<linearGradient id="paint4_linear_10_14" x1="6.60535" y1="8.70742" x2="18.4452" y2="8.70741" gradientUnits="userSpaceOnUse">
<stop stop-color="#6050D7"/>
<stop offset="1" stop-color="#3B28CC"/>
</linearGradient>
<linearGradient id="paint5_linear_10_14" x1="3.5941" y1="11.9082" x2="11.4875" y2="19.8034" gradientUnits="userSpaceOnUse">
<stop stop-color="#6050D7"/>
<stop offset="1" stop-color="#2E1DA4"/>
</linearGradient>
<linearGradient id="paint6_linear_10_14" x1="9.52528" y1="19.7952" x2="14.6521" y2="10.9153" gradientUnits="userSpaceOnUse">
<stop stop-color="#D4D0F6"/>
<stop offset="1" stop-color="#A9A1ED"/>
</linearGradient>
<linearGradient id="paint7_linear_10_14" x1="3.60535" y1="10.4574" x2="15.4452" y2="10.4574" gradientUnits="userSpaceOnUse">
<stop stop-color="#6050D7"/>
<stop offset="1" stop-color="#3B28CC"/>
</linearGradient>
<linearGradient id="paint8_linear_10_14" x1="0.543566" y1="13.6584" x2="8.43697" y2="21.5536" gradientUnits="userSpaceOnUse">
<stop stop-color="#6050D7"/>
<stop offset="1" stop-color="#2E1DA4"/>
</linearGradient>
<linearGradient id="paint9_linear_10_14" x1="6.47474" y1="21.5455" x2="11.6015" y2="12.6656" gradientUnits="userSpaceOnUse">
<stop stop-color="#D4D0F6"/>
<stop offset="1" stop-color="#A9A1ED"/>
</linearGradient>
<linearGradient id="paint10_linear_10_14" x1="0.55481" y1="12.2077" x2="12.3947" y2="12.2077" gradientUnits="userSpaceOnUse">
<stop stop-color="#6050D7"/>
<stop offset="1" stop-color="#3B28CC"/>
</linearGradient>
</defs>
</svg>
