<svg xmlns="http://www.w3.org/2000/svg" width="33" height="32" viewBox="0 0 33 32" fill="none">
    <path d="M16.6665 3C14.0954 3 11.5819 3.76244 9.4441 5.1909C7.30626 6.61935 5.64002 8.64968 4.65608 11.0251C3.67214 13.4006 3.41469 16.0144 3.9163 18.5362C4.41791 21.0579 5.65604 23.3743 7.47412 25.1924C9.2922 27.0105 11.6086 28.2486 14.1303 28.7502C16.6521 29.2518 19.266 28.9944 21.6414 28.0104C24.0168 27.0265 26.0472 25.3603 27.4756 23.2224C28.9041 21.0846 29.6665 18.5712 29.6665 16C29.6599 12.5542 28.2881 9.25145 25.8516 6.81491C23.4151 4.37837 20.1123 3.00661 16.6665 3ZM22.854 13.725L15.529 20.725C15.3396 20.9031 15.089 21.0016 14.829 21C14.7019 21.0018 14.5758 20.9785 14.4578 20.9313C14.3398 20.8841 14.2323 20.814 14.1415 20.725L10.479 17.225C10.3774 17.1364 10.2948 17.0281 10.2361 16.9067C10.1774 16.7854 10.1439 16.6534 10.1375 16.5187C10.1312 16.3841 10.1521 16.2495 10.1991 16.1231C10.246 15.9968 10.318 15.8812 10.4108 15.7834C10.5036 15.6856 10.6152 15.6075 10.7389 15.5539C10.8625 15.5003 10.9958 15.4723 11.1306 15.4715C11.2654 15.4707 11.399 15.4972 11.5233 15.5493C11.6476 15.6015 11.7601 15.6783 11.854 15.775L14.829 18.6125L21.479 12.275C21.6734 12.1054 21.9259 12.0174 22.1837 12.0296C22.4414 12.0418 22.6845 12.1532 22.8621 12.3404C23.0396 12.5277 23.1379 12.7763 23.1364 13.0343C23.1349 13.2924 23.0337 13.5398 22.854 13.725Z" fill="#3B28CC"/>
</svg>