<svg width="14" height="12" viewBox="0 0 14 12" fill="none" xmlns="http://www.w3.org/2000/svg">
<path d="M12.3333 1.99996H1.66665V4.66663H7.06732C6.67674 5.04937 6.35313 5.50022 6.11573 5.99996H1.66665C0.930267 5.99996 0.333313 5.40301 0.333313 4.66663V1.99996C0.333313 1.26358 0.930267 0.666626 1.66665 0.666626H12.3333C13.0697 0.666626 13.6666 1.26358 13.6666 1.99996V4.66663C13.6666 4.68866 13.6661 4.71057 13.6651 4.73235C13.2827 4.34249 12.8324 4.01945 12.3333 3.78238V1.99996Z" fill="#374151"/>
<path d="M12.9005 5.87365C12.2891 5.13628 11.366 4.66663 10.3333 4.66663C9.24277 4.66663 8.27454 5.19033 7.6664 5.99996C7.24794 6.55707 6.99998 7.24956 6.99998 7.99996C6.99998 9.84091 8.49236 11.3333 10.3333 11.3333C12.1743 11.3333 13.6666 9.84091 13.6666 7.99996C13.6666 7.19174 13.379 6.45071 12.9005 5.87365ZM12.3333 7.33329V8.66663H8.33331V7.33329H12.3333Z" fill="#374151"/>
</svg>
