<svg xmlns="http://www.w3.org/2000/svg" width="28" height="42" viewBox="0 0 28 42" fill="none">
    <path fill-rule="evenodd" clip-rule="evenodd" d="M13.6665 21C13.6665 17.2721 16.6886 14.25 20.4165 14.25C24.1444 14.25 27.1665 17.2721 27.1665 21C27.1665 24.7279 24.1444 27.75 20.4165 27.75C16.6886 27.75 13.6665 24.7279 13.6665 21Z" fill="#1ABCFE"/>
    <path fill-rule="evenodd" clip-rule="evenodd" d="M0.166504 34.5C0.166504 30.7721 3.18858 27.75 6.9165 27.75H13.6665V34.5C13.6665 38.2279 10.6444 41.25 6.9165 41.25C3.18858 41.25 0.166504 38.2279 0.166504 34.5Z" fill="#0ACF83"/>
    <path fill-rule="evenodd" clip-rule="evenodd" d="M13.6665 0.75V14.25H20.4165C24.1444 14.25 27.1665 11.2279 27.1665 7.5C27.1665 3.77208 24.1444 0.75 20.4165 0.75H13.6665Z" fill="#FF7262"/>
    <path fill-rule="evenodd" clip-rule="evenodd" d="M0.166504 7.5C0.166504 11.2279 3.18858 14.25 6.9165 14.25H13.6665V0.75H6.9165C3.18858 0.75 0.166504 3.77208 0.166504 7.5Z" fill="#F24E1E"/>
    <path fill-rule="evenodd" clip-rule="evenodd" d="M0.166504 21C0.166504 24.7279 3.18858 27.75 6.9165 27.75H13.6665V14.25H6.9165C3.18858 14.25 0.166504 17.2721 0.166504 21Z" fill="#A259FF"/>
</svg>