<svg xmlns="http://www.w3.org/2000/svg" width="49" height="48" viewBox="0 0 49 48" fill="none">
    <path d="M45.6686 24.4671C45.6686 22.7405 45.5256 21.4805 45.2162 20.1738H25.0972V27.9671H36.9066C36.6686 29.9038 35.3829 32.8205 32.5257 34.7804L32.4856 35.0413L38.8469 39.8707L39.2876 39.9138C43.3352 36.2504 45.6686 30.8604 45.6686 24.4671" fill="#4285F4"/>
    <path d="M25.096 44.9992C30.8816 44.9992 35.7386 43.1324 39.2864 39.9125L32.5244 34.779C30.715 36.0156 28.2863 36.879 25.096 36.879C19.4294 36.879 14.6199 33.2157 12.9054 28.1523L12.6541 28.1733L6.03963 33.19L5.95312 33.4256C9.47688 40.2857 16.715 44.9992 25.096 44.9992Z" fill="#34A853"/>
    <path d="M12.9065 28.153C12.4541 26.8463 12.1923 25.4462 12.1923 23.9996C12.1923 22.5528 12.4541 21.1529 12.8827 19.8463L12.8707 19.568L6.17324 14.4707L5.95411 14.5728C4.5018 17.4196 3.66846 20.6163 3.66846 23.9996C3.66846 27.3829 4.5018 30.5795 5.95411 33.4262L12.9065 28.153" fill="#FBBC05"/>
    <path d="M25.0961 11.1199C29.1198 11.1199 31.8341 12.8233 33.3817 14.2467L39.4294 8.46C35.7152 5.07668 30.8817 3 25.0961 3C16.715 3 9.4769 7.7133 5.95312 14.5732L12.8817 19.8466C14.6199 14.7833 19.4294 11.1199 25.0961 11.1199" fill="#EB4335"/>
</svg>