<svg xmlns="http://www.w3.org/2000/svg" width="16" height="17" viewBox="0 0 16 17" fill="none">
    <g clip-path="url(#clip0_198_4410)">
        <path d="M13.4873 7.88762C13.4687 7.80703 13.4304 7.7323 13.3759 7.67012C13.3214 7.60795 13.2523 7.56028 13.1748 7.53137L9.57477 6.18137L10.4873 1.60012C10.5083 1.494 10.4947 1.38395 10.4486 1.2861C10.4025 1.18824 10.3262 1.10774 10.231 1.05637C10.1349 1.00523 10.0245 0.987307 9.91714 1.00539C9.80975 1.02348 9.71136 1.07656 9.63727 1.15637L2.63727 8.65637C2.57991 8.71588 2.53841 8.78884 2.51657 8.86855C2.49473 8.94827 2.49325 9.03219 2.51227 9.11262C2.53184 9.19277 2.57047 9.26701 2.62487 9.32903C2.67928 9.39106 2.74785 9.43903 2.82477 9.46887L6.42477 10.8189L5.51227 15.4001C5.49128 15.5062 5.50484 15.6163 5.55096 15.7141C5.59707 15.812 5.67332 15.8925 5.76852 15.9439C5.84028 15.9801 5.9194 15.9993 5.99977 16.0001C6.06769 16.0004 6.13494 15.9867 6.19731 15.9598C6.25969 15.9329 6.31584 15.8934 6.36227 15.8439L13.3623 8.34387C13.4196 8.28436 13.4611 8.21141 13.483 8.13169C13.5048 8.05198 13.5063 7.96806 13.4873 7.88762Z" fill="#3B28CC"/>
        <path d="M13.4873 7.88762C13.4687 7.80703 13.4304 7.7323 13.3759 7.67012C13.3214 7.60795 13.2523 7.56028 13.1748 7.53137L9.57477 6.18137L10.4873 1.60012C10.5083 1.494 10.4947 1.38395 10.4486 1.2861C10.4025 1.18824 10.3262 1.10774 10.231 1.05637C10.1349 1.00523 10.0245 0.987307 9.91714 1.00539C9.80975 1.02348 9.71136 1.07656 9.63727 1.15637L2.63727 8.65637C2.57991 8.71588 2.53841 8.78884 2.51657 8.86855C2.49473 8.94827 2.49325 9.03219 2.51227 9.11262C2.53184 9.19277 2.57047 9.26701 2.62487 9.32903C2.67928 9.39106 2.74785 9.43903 2.82477 9.46887L6.42477 10.8189L5.51227 15.4001C5.49128 15.5062 5.50484 15.6163 5.55096 15.7141C5.59707 15.812 5.67332 15.8925 5.76852 15.9439C5.84028 15.9801 5.9194 15.9993 5.99977 16.0001C6.06769 16.0004 6.13494 15.9867 6.19731 15.9598C6.25969 15.9329 6.31584 15.8934 6.36227 15.8439L13.3623 8.34387C13.4196 8.28436 13.4611 8.21141 13.483 8.13169C13.5048 8.05198 13.5063 7.96806 13.4873 7.88762Z" fill="url(#paint0_linear_198_4410)" fill-opacity="0.4"/>
    </g>
    <defs>
        <linearGradient id="paint0_linear_198_4410" x1="2.49902" y1="0.998535" x2="14.1684" y2="15.4612" gradientUnits="userSpaceOnUse">
            <stop stop-color="#9D71FF"/>
            <stop offset="1" stop-color="#4B78EC"/>
        </linearGradient>
        <clipPath id="clip0_198_4410">
            <rect width="16" height="16" fill="white" transform="translate(0 0.5)"/>
        </clipPath>
    </defs>
</svg>