<svg width="717" height="1036" viewBox="0 0 717 1036" fill="none" xmlns="http://www.w3.org/2000/svg">
<g style="mix-blend-mode:hard-light" filter="url(#filter0_f_35_2480)">
<path d="M323.338 8V83.9157M544.703 484.204C544.703 381.917 631.317 323.068 707.943 323.068V305.501H381.569L323.338 248.189V83.9157M544.703 484.204C544.703 586.491 636.591 642.211 707.943 642.211V1027.85M544.703 484.204H245.788M245.788 484.204L115.75 356.22H94.3964M245.788 484.204H8M245.788 484.204V654.955L418.977 825.409V1027.85M94.3964 356.22V186.11L198.231 83.9157H323.338M94.3964 356.22H8M181.585 1027.85V825.409L8.3963 654.955" stroke="#6050D7" stroke-width="2.6"/>
</g>
<g style="mix-blend-mode:hard-light" filter="url(#filter1_f_35_2480)">
<path d="M323.338 8V83.9157M544.703 484.204C544.703 381.917 631.317 323.068 707.943 323.068V305.501H381.569L323.338 248.189V83.9157M544.703 484.204C544.703 586.491 636.591 642.211 707.943 642.211V1027.85M544.703 484.204H245.788M245.788 484.204L115.75 356.22H94.3964M245.788 484.204H8M245.788 484.204V654.955L418.977 825.409V1027.85M94.3964 356.22V186.11L198.231 83.9157H323.338M94.3964 356.22H8M181.585 1027.85V825.409L8.3963 654.955" stroke="#6050D7" stroke-width="3.4"/>
</g>
<g style="mix-blend-mode:hard-light" filter="url(#filter2_ddi_35_2480)">
<path d="M323.338 8V83.9157M544.703 484.204C544.703 381.917 631.317 323.068 707.943 323.068V305.501H381.569L323.338 248.189V83.9157M544.703 484.204C544.703 586.491 636.591 642.211 707.943 642.211V1027.85M544.703 484.204H245.788M245.788 484.204L115.75 356.22H94.3964M245.788 484.204H8M245.788 484.204V654.955L418.977 825.409V1027.85M94.3964 356.22V186.11L198.231 83.9157H323.338M94.3964 356.22H8M181.585 1027.85V825.409L8.3963 654.955" stroke="#6100FF" stroke-opacity="0.2" stroke-width="2.6"/>
</g>
<g filter="url(#filter3_f_35_2480)">
<path d="M323.338 8V83.9157M544.703 484.204C544.703 381.917 631.317 323.068 707.943 323.068V305.501H381.569L323.338 248.189V83.9157M544.703 484.204C544.703 586.491 636.591 642.211 707.943 642.211V1027.85M544.703 484.204H245.788M245.788 484.204L115.75 356.22H94.3964M245.788 484.204H8M245.788 484.204V654.955L418.977 825.409V1027.85M94.3964 356.22V186.11L198.231 83.9157H323.338M94.3964 356.22H8M181.585 1027.85V825.409L8.3963 654.955" stroke="#C882FF" stroke-width="1.6"/>
</g>
<g style="mix-blend-mode:plus-lighter" filter="url(#filter4_f_35_2480)">
<path d="M323.338 8V83.9157M544.703 484.204C544.703 381.917 631.317 323.068 707.943 323.068V305.501H381.569L323.338 248.189V83.9157M544.703 484.204C544.703 586.491 636.591 642.211 707.943 642.211V1027.85M544.703 484.204H245.788M245.788 484.204L115.75 356.22H94.3964M245.788 484.204H8M245.788 484.204V654.955L418.977 825.409V1027.85M94.3964 356.22V186.11L198.231 83.9157H323.338M94.3964 356.22H8M181.585 1027.85V825.409L8.3963 654.955" stroke="black" stroke-width="3"/>
</g>
<defs>
<filter id="filter0_f_35_2480" x="0.224375" y="0.74" width="716.279" height="1034.37" filterUnits="userSpaceOnUse" color-interpolation-filters="sRGB">
<feFlood flood-opacity="0" result="BackgroundImageFix"/>
<feBlend mode="normal" in="SourceGraphic" in2="BackgroundImageFix" result="shape"/>
<feGaussianBlur stdDeviation="3.63" result="effect1_foregroundBlur_35_2480"/>
</filter>
<filter id="filter1_f_35_2480" x="4.78361" y="5.58" width="707.279" height="1024.69" filterUnits="userSpaceOnUse" color-interpolation-filters="sRGB">
<feFlood flood-opacity="0" result="BackgroundImageFix"/>
<feBlend mode="normal" in="SourceGraphic" in2="BackgroundImageFix" result="shape"/>
<feGaussianBlur stdDeviation="1.21" result="effect1_foregroundBlur_35_2480"/>
</filter>
<filter id="filter2_ddi_35_2480" x="4.33838" y="7.274" width="708.051" height="1026.14" filterUnits="userSpaceOnUse" color-interpolation-filters="sRGB">
<feFlood flood-opacity="0" result="BackgroundImageFix"/>
<feColorMatrix in="SourceAlpha" type="matrix" values="0 0 0 0 0 0 0 0 0 0 0 0 0 0 0 0 0 0 127 0" result="hardAlpha"/>
<feOffset dy="1.3"/>
<feGaussianBlur stdDeviation="0.5"/>
<feColorMatrix type="matrix" values="0 0 0 0 0.231373 0 0 0 0 0.156863 0 0 0 0 0.8 0 0 0 0.4 0"/>
<feBlend mode="multiply" in2="BackgroundImageFix" result="effect1_dropShadow_35_2480"/>
<feColorMatrix in="SourceAlpha" type="matrix" values="0 0 0 0 0 0 0 0 0 0 0 0 0 0 0 0 0 0 127 0" result="hardAlpha"/>
<feOffset dy="2.42"/>
<feGaussianBlur stdDeviation="1.573"/>
<feColorMatrix type="matrix" values="0 0 0 0 0.179608 0 0 0 0 0.115033 0 0 0 0 0.643137 0 0 0 0.3 0"/>
<feBlend mode="color-dodge" in2="effect1_dropShadow_35_2480" result="effect2_dropShadow_35_2480"/>
<feBlend mode="normal" in="SourceGraphic" in2="effect2_dropShadow_35_2480" result="shape"/>
<feColorMatrix in="SourceAlpha" type="matrix" values="0 0 0 0 0 0 0 0 0 0 0 0 0 0 0 0 0 0 127 0" result="hardAlpha"/>
<feOffset dx="-0.13" dy="0.26"/>
<feGaussianBlur stdDeviation="0.065"/>
<feComposite in2="hardAlpha" operator="arithmetic" k2="-1" k3="1"/>
<feColorMatrix type="matrix" values="0 0 0 0 1 0 0 0 0 1 0 0 0 0 1 0 0 0 0.5 0"/>
<feBlend mode="normal" in2="shape" result="effect3_innerShadow_35_2480"/>
</filter>
<filter id="filter3_f_35_2480" x="7.63496" y="7.8" width="701.308" height="1020.25" filterUnits="userSpaceOnUse" color-interpolation-filters="sRGB">
<feFlood flood-opacity="0" result="BackgroundImageFix"/>
<feBlend mode="normal" in="SourceGraphic" in2="BackgroundImageFix" result="shape"/>
<feGaussianBlur stdDeviation="0.1" result="effect1_foregroundBlur_35_2480"/>
</filter>
<filter id="filter4_f_35_2480" x="7.2109" y="7.86667" width="702.366" height="1020.11" filterUnits="userSpaceOnUse" color-interpolation-filters="sRGB">
<feFlood flood-opacity="0" result="BackgroundImageFix"/>
<feBlend mode="normal" in="SourceGraphic" in2="BackgroundImageFix" result="shape"/>
<feGaussianBlur stdDeviation="0.0666667" result="effect1_foregroundBlur_35_2480"/>
</filter>
</defs>
</svg>
