<svg width="750" height="599" viewBox="0 0 750 599" fill="none" xmlns="http://www.w3.org/2000/svg">
<g style="mix-blend-mode:hard-light" filter="url(#filter0_f_261_3735)">
<path d="M126 192.5C126 146 169.5 110.5 207 110.5V67.5H67.5L55.5 55.5M126 192.5C126 244.5 175.5 272 207 272V591.5M126 192.5H97M9 9L55.5 55.5M55.5 55.5V160.5H65L79 174.5M97 192.5V233L137 273V591.5M97 192.5L79 174.5M79 174.5H9.5M9.5 239.5L73.5 303.5V591.5" stroke="#6050D7" stroke-width="2.6"/>
</g>
<g style="mix-blend-mode:hard-light" filter="url(#filter1_f_261_3735)">
<path d="M126 192.5C126 146 169.5 110.5 207 110.5V67.5H67.5L55.5 55.5M126 192.5C126 244.5 175.5 272 207 272V591.5M126 192.5H97M9 9L55.5 55.5M55.5 55.5V160.5H65L79 174.5M97 192.5V233L137 273V591.5M97 192.5L79 174.5M79 174.5H9.5M9.5 239.5L73.5 303.5V591.5" stroke="#6050D7" stroke-width="3.4"/>
</g>
<g style="mix-blend-mode:hard-light" filter="url(#filter2_ddi_261_3735)">
<path d="M126 192.5C126 146 169.5 110.5 207 110.5V67.5H67.5L55.5 55.5M126 192.5C126 244.5 175.5 272 207 272V591.5M126 192.5H97M9 9L55.5 55.5M55.5 55.5V160.5H65L79 174.5M97 192.5V233L137 273V591.5M97 192.5L79 174.5M79 174.5H9.5M9.5 239.5L73.5 303.5V591.5" stroke="#6100FF" stroke-opacity="0.2" stroke-width="2.6"/>
</g>
<g filter="url(#filter3_f_261_3735)">
<path d="M126 192.5C126 146 169.5 110.5 207 110.5V67.5H67.5L55.5 55.5M126 192.5C126 244.5 175.5 272 207 272V591.5M126 192.5H97M9 9L55.5 55.5M55.5 55.5V160.5H65L79 174.5M97 192.5V233L137 273V591.5M97 192.5L79 174.5M79 174.5H9.5M9.5 239.5L73.5 303.5V591.5" stroke="#C882FF" stroke-width="1.6"/>
</g>
<g style="mix-blend-mode:plus-lighter" filter="url(#filter4_f_261_3735)">
<path d="M126 192.5C126 146 169.5 110.5 207 110.5V67.5H67.5L55.5 55.5M126 192.5C126 244.5 175.5 272 207 272V591.5M126 192.5H97M9 9L55.5 55.5M55.5 55.5V160.5H65L79 174.5M97 192.5V233L137 273V591.5M97 192.5L79 174.5M79 174.5H9.5M9.5 239.5L73.5 303.5V591.5" stroke="white" stroke-width="3"/>
</g>
<g style="mix-blend-mode:hard-light" filter="url(#filter5_f_261_3735)">
<path d="M288 192.5C288 146 244.5 110.5 207 110.5V67.5H346.5L358.5 55.5M288 192.5C288 244.5 238.5 272 207 272V591.5M288 192.5H317M405 9L358.5 55.5M358.5 55.5V160.5H349L335 174.5M317 192.5V233L277 273V591.5M317 192.5L335 174.5M335 174.5H404.5M404.5 239.5L340.5 303.5V591.5" stroke="#6050D7" stroke-width="2.6"/>
</g>
<g style="mix-blend-mode:hard-light" filter="url(#filter6_f_261_3735)">
<path d="M288 192.5C288 146 244.5 110.5 207 110.5V67.5H346.5L358.5 55.5M288 192.5C288 244.5 238.5 272 207 272V591.5M288 192.5H317M405 9L358.5 55.5M358.5 55.5V160.5H349L335 174.5M317 192.5V233L277 273V591.5M317 192.5L335 174.5M335 174.5H404.5M404.5 239.5L340.5 303.5V591.5" stroke="#6050D7" stroke-width="3.4"/>
</g>
<g style="mix-blend-mode:hard-light" filter="url(#filter7_ddi_261_3735)">
<path d="M288 192.5C288 146 244.5 110.5 207 110.5V67.5H346.5L358.5 55.5M288 192.5C288 244.5 238.5 272 207 272V591.5M288 192.5H317M405 9L358.5 55.5M358.5 55.5V160.5H349L335 174.5M317 192.5V233L277 273V591.5M317 192.5L335 174.5M335 174.5H404.5M404.5 239.5L340.5 303.5V591.5" stroke="#6100FF" stroke-opacity="0.2" stroke-width="2.6"/>
</g>
<g filter="url(#filter8_f_261_3735)">
<path d="M288 192.5C288 146 244.5 110.5 207 110.5V67.5H346.5L358.5 55.5M288 192.5C288 244.5 238.5 272 207 272V591.5M288 192.5H317M405 9L358.5 55.5M358.5 55.5V160.5H349L335 174.5M317 192.5V233L277 273V591.5M317 192.5L335 174.5M335 174.5H404.5M404.5 239.5L340.5 303.5V591.5" stroke="#C882FF" stroke-width="1.6"/>
</g>
<g style="mix-blend-mode:plus-lighter" filter="url(#filter9_f_261_3735)">
<path d="M288 192.5C288 146 244.5 110.5 207 110.5V67.5H346.5L358.5 55.5M288 192.5C288 244.5 238.5 272 207 272V591.5M288 192.5H317M405 9L358.5 55.5M358.5 55.5V160.5H349L335 174.5M317 192.5V233L277 273V591.5M317 192.5L335 174.5M335 174.5H404.5M404.5 239.5L340.5 303.5V591.5" stroke="white" stroke-width="3"/>
</g>
<defs>
<filter id="filter0_f_261_3735" x="0.820566" y="0.821054" width="214.739" height="597.939" filterUnits="userSpaceOnUse" color-interpolation-filters="sRGB">
<feFlood flood-opacity="0" result="BackgroundImageFix"/>
<feBlend mode="normal" in="SourceGraphic" in2="BackgroundImageFix" result="shape"/>
<feGaussianBlur stdDeviation="3.63" result="effect1_foregroundBlur_261_3735"/>
</filter>
<filter id="filter1_f_261_3735" x="5.37785" y="5.37785" width="205.742" height="588.542" filterUnits="userSpaceOnUse" color-interpolation-filters="sRGB">
<feFlood flood-opacity="0" result="BackgroundImageFix"/>
<feBlend mode="normal" in="SourceGraphic" in2="BackgroundImageFix" result="shape"/>
<feGaussianBlur stdDeviation="1.21" result="effect1_foregroundBlur_261_3735"/>
</filter>
<filter id="filter2_ddi_261_3735" x="4.93457" y="7.35505" width="206.511" height="589.711" filterUnits="userSpaceOnUse" color-interpolation-filters="sRGB">
<feFlood flood-opacity="0" result="BackgroundImageFix"/>
<feColorMatrix in="SourceAlpha" type="matrix" values="0 0 0 0 0 0 0 0 0 0 0 0 0 0 0 0 0 0 127 0" result="hardAlpha"/>
<feOffset dy="1.3"/>
<feGaussianBlur stdDeviation="0.5"/>
<feColorMatrix type="matrix" values="0 0 0 0 0.231373 0 0 0 0 0.156863 0 0 0 0 0.8 0 0 0 0.4 0"/>
<feBlend mode="multiply" in2="BackgroundImageFix" result="effect1_dropShadow_261_3735"/>
<feColorMatrix in="SourceAlpha" type="matrix" values="0 0 0 0 0 0 0 0 0 0 0 0 0 0 0 0 0 0 127 0" result="hardAlpha"/>
<feOffset dy="2.42"/>
<feGaussianBlur stdDeviation="1.573"/>
<feColorMatrix type="matrix" values="0 0 0 0 0.179608 0 0 0 0 0.115033 0 0 0 0 0.643137 0 0 0 0.3 0"/>
<feBlend mode="color-dodge" in2="effect1_dropShadow_261_3735" result="effect2_dropShadow_261_3735"/>
<feBlend mode="normal" in="SourceGraphic" in2="effect2_dropShadow_261_3735" result="shape"/>
<feColorMatrix in="SourceAlpha" type="matrix" values="0 0 0 0 0 0 0 0 0 0 0 0 0 0 0 0 0 0 127 0" result="hardAlpha"/>
<feOffset dx="-0.13" dy="0.26"/>
<feGaussianBlur stdDeviation="0.065"/>
<feComposite in2="hardAlpha" operator="arithmetic" k2="-1" k3="1"/>
<feColorMatrix type="matrix" values="0 0 0 0 1 0 0 0 0 1 0 0 0 0 1 0 0 0 0.5 0"/>
<feBlend mode="normal" in2="shape" result="effect3_innerShadow_261_3735"/>
</filter>
<filter id="filter3_f_261_3735" x="8.23408" y="8.23457" width="199.766" height="583.465" filterUnits="userSpaceOnUse" color-interpolation-filters="sRGB">
<feFlood flood-opacity="0" result="BackgroundImageFix"/>
<feBlend mode="normal" in="SourceGraphic" in2="BackgroundImageFix" result="shape"/>
<feGaussianBlur stdDeviation="0.1" result="effect1_foregroundBlur_261_3735"/>
</filter>
<filter id="filter4_f_261_3735" x="7.80612" y="7.80612" width="200.827" height="583.827" filterUnits="userSpaceOnUse" color-interpolation-filters="sRGB">
<feFlood flood-opacity="0" result="BackgroundImageFix"/>
<feBlend mode="normal" in="SourceGraphic" in2="BackgroundImageFix" result="shape"/>
<feGaussianBlur stdDeviation="0.0666667" result="effect1_foregroundBlur_261_3735"/>
</filter>
<filter id="filter5_f_261_3735" x="198.44" y="0.821054" width="214.739" height="597.939" filterUnits="userSpaceOnUse" color-interpolation-filters="sRGB">
<feFlood flood-opacity="0" result="BackgroundImageFix"/>
<feBlend mode="normal" in="SourceGraphic" in2="BackgroundImageFix" result="shape"/>
<feGaussianBlur stdDeviation="3.63" result="effect1_foregroundBlur_261_3735"/>
</filter>
<filter id="filter6_f_261_3735" x="202.88" y="5.37785" width="205.742" height="588.542" filterUnits="userSpaceOnUse" color-interpolation-filters="sRGB">
<feFlood flood-opacity="0" result="BackgroundImageFix"/>
<feBlend mode="normal" in="SourceGraphic" in2="BackgroundImageFix" result="shape"/>
<feGaussianBlur stdDeviation="1.21" result="effect1_foregroundBlur_261_3735"/>
</filter>
<filter id="filter7_ddi_261_3735" x="202.554" y="7.35505" width="206.511" height="589.711" filterUnits="userSpaceOnUse" color-interpolation-filters="sRGB">
<feFlood flood-opacity="0" result="BackgroundImageFix"/>
<feColorMatrix in="SourceAlpha" type="matrix" values="0 0 0 0 0 0 0 0 0 0 0 0 0 0 0 0 0 0 127 0" result="hardAlpha"/>
<feOffset dy="1.3"/>
<feGaussianBlur stdDeviation="0.5"/>
<feColorMatrix type="matrix" values="0 0 0 0 0.231373 0 0 0 0 0.156863 0 0 0 0 0.8 0 0 0 0.4 0"/>
<feBlend mode="multiply" in2="BackgroundImageFix" result="effect1_dropShadow_261_3735"/>
<feColorMatrix in="SourceAlpha" type="matrix" values="0 0 0 0 0 0 0 0 0 0 0 0 0 0 0 0 0 0 127 0" result="hardAlpha"/>
<feOffset dy="2.42"/>
<feGaussianBlur stdDeviation="1.573"/>
<feColorMatrix type="matrix" values="0 0 0 0 0.179608 0 0 0 0 0.115033 0 0 0 0 0.643137 0 0 0 0.3 0"/>
<feBlend mode="color-dodge" in2="effect1_dropShadow_261_3735" result="effect2_dropShadow_261_3735"/>
<feBlend mode="normal" in="SourceGraphic" in2="effect2_dropShadow_261_3735" result="shape"/>
<feColorMatrix in="SourceAlpha" type="matrix" values="0 0 0 0 0 0 0 0 0 0 0 0 0 0 0 0 0 0 127 0" result="hardAlpha"/>
<feOffset dx="-0.13" dy="0.26"/>
<feGaussianBlur stdDeviation="0.065"/>
<feComposite in2="hardAlpha" operator="arithmetic" k2="-1" k3="1"/>
<feColorMatrix type="matrix" values="0 0 0 0 1 0 0 0 0 1 0 0 0 0 1 0 0 0 0.5 0"/>
<feBlend mode="normal" in2="shape" result="effect3_innerShadow_261_3735"/>
</filter>
<filter id="filter8_f_261_3735" x="206" y="8.23457" width="199.766" height="583.465" filterUnits="userSpaceOnUse" color-interpolation-filters="sRGB">
<feFlood flood-opacity="0" result="BackgroundImageFix"/>
<feBlend mode="normal" in="SourceGraphic" in2="BackgroundImageFix" result="shape"/>
<feGaussianBlur stdDeviation="0.1" result="effect1_foregroundBlur_261_3735"/>
</filter>
<filter id="filter9_f_261_3735" x="205.367" y="7.80612" width="200.827" height="583.827" filterUnits="userSpaceOnUse" color-interpolation-filters="sRGB">
<feFlood flood-opacity="0" result="BackgroundImageFix"/>
<feBlend mode="normal" in="SourceGraphic" in2="BackgroundImageFix" result="shape"/>
<feGaussianBlur stdDeviation="0.0666667" result="effect1_foregroundBlur_261_3735"/>
</filter>
</defs>
</svg>
