<svg width="136" height="191" viewBox="0 0 136 191" fill="none" xmlns="http://www.w3.org/2000/svg">
<circle cx="113.003" cy="95.6791" r="95.2304" fill="#BFB9F2"/>
<path d="M208.234 95.6791C208.234 112.711 203.666 129.431 195.007 144.096C186.348 158.762 173.914 170.838 159.001 179.064C144.088 187.291 127.242 191.367 110.217 190.869C93.1931 190.37 76.614 185.316 62.2076 176.231C47.8013 167.146 36.0949 154.365 28.3083 139.217C20.5218 124.07 16.9399 107.111 17.9361 90.1091C18.9323 73.1068 24.47 56.6827 33.9722 42.5483C43.4744 28.4139 56.5934 17.0865 71.962 9.74644L113.003 95.6791H208.234Z" fill="#6050D7"/>
<rect x="0.830566" y="63.9668" width="98.3864" height="20.0966" rx="4.1932" fill="#4B5563"/>
<path d="M6.0798 79.0151V70.5551H7.0758V78.1511H11.3478V79.0151H6.0798ZM14.9243 79.1231C14.3483 79.1231 13.8443 78.9991 13.4123 78.7511C12.9883 78.4951 12.6603 78.1351 12.4283 77.6711C12.1963 77.1991 12.0803 76.6431 12.0803 76.0031C12.0803 75.3551 12.1963 74.7991 12.4283 74.3351C12.6603 73.8711 12.9883 73.5151 13.4123 73.2671C13.8443 73.0111 14.3483 72.8831 14.9243 72.8831C15.5083 72.8831 16.0123 73.0111 16.4363 73.2671C16.8683 73.5151 17.2003 73.8711 17.4323 74.3351C17.6723 74.7991 17.7923 75.3551 17.7923 76.0031C17.7923 76.6431 17.6723 77.1991 17.4323 77.6711C17.2003 78.1351 16.8683 78.4951 16.4363 78.7511C16.0123 78.9991 15.5083 79.1231 14.9243 79.1231ZM14.9243 78.3311C15.5003 78.3311 15.9563 78.1351 16.2923 77.7431C16.6283 77.3431 16.7963 76.7631 16.7963 76.0031C16.7963 75.2351 16.6243 74.6551 16.2803 74.2631C15.9443 73.8631 15.4923 73.6631 14.9243 73.6631C14.3563 73.6631 13.9043 73.8631 13.5683 74.2631C13.2323 74.6551 13.0643 75.2351 13.0643 76.0031C13.0643 76.7631 13.2323 77.3431 13.5683 77.7431C13.9043 78.1351 14.3563 78.3311 14.9243 78.3311ZM19.3077 79.0151V74.3831C19.3077 74.1591 19.2957 73.9311 19.2717 73.6991C19.2557 73.4591 19.2357 73.2231 19.2117 72.9911H20.1477L20.2677 74.3111H20.1237C20.2997 73.8471 20.5797 73.4951 20.9637 73.2551C21.3557 73.0071 21.8077 72.8831 22.3197 72.8831C23.0317 72.8831 23.5677 73.0751 23.9277 73.4591C24.2957 73.8351 24.4797 74.4311 24.4797 75.2471V79.0151H23.5077V75.3071C23.5077 74.7391 23.3917 74.3271 23.1597 74.0711C22.9357 73.8071 22.5837 73.6751 22.1037 73.6751C21.5437 73.6751 21.0997 73.8471 20.7717 74.1911C20.4437 74.5351 20.2797 74.9951 20.2797 75.5711V79.0151H19.3077ZM28.991 81.6911C28.471 81.6911 27.991 81.6271 27.551 81.4991C27.111 81.3711 26.715 81.1751 26.363 80.9111L26.651 80.1791C26.899 80.3551 27.143 80.4951 27.383 80.5991C27.623 80.7031 27.871 80.7791 28.127 80.8271C28.383 80.8831 28.655 80.9111 28.943 80.9111C29.535 80.9111 29.983 80.7551 30.287 80.4431C30.591 80.1311 30.743 79.6871 30.743 79.1111V77.3471H30.863C30.735 77.8191 30.471 78.1951 30.071 78.4751C29.671 78.7471 29.203 78.8831 28.667 78.8831C28.115 78.8831 27.635 78.7631 27.227 78.5231C26.827 78.2751 26.515 77.9271 26.291 77.4791C26.075 77.0231 25.967 76.4871 25.967 75.8711C25.967 75.2631 26.075 74.7351 26.291 74.2871C26.515 73.8391 26.827 73.4951 27.227 73.2551C27.635 73.0071 28.115 72.8831 28.667 72.8831C29.211 72.8831 29.679 73.0191 30.071 73.2911C30.471 73.5631 30.735 73.9391 30.863 74.4191L30.743 74.2991L30.851 72.9911H31.799C31.767 73.2231 31.743 73.4591 31.727 73.6991C31.711 73.9311 31.703 74.1591 31.703 74.3831V78.9791C31.703 79.8751 31.471 80.5511 31.007 81.0071C30.551 81.4631 29.879 81.6911 28.991 81.6911ZM28.847 78.0911C29.431 78.0911 29.891 77.8991 30.227 77.5151C30.563 77.1231 30.731 76.5751 30.731 75.8711C30.731 75.1671 30.563 74.6231 30.227 74.2391C29.891 73.8551 29.431 73.6631 28.847 73.6631C28.271 73.6631 27.811 73.8551 27.467 74.2391C27.123 74.6231 26.951 75.1671 26.951 75.8711C26.951 76.5751 27.123 77.1231 27.467 77.5151C27.811 77.8991 28.271 78.0911 28.847 78.0911ZM38.8584 79.0151V71.3951H35.8704V70.5551H42.8304V71.3951H39.8544V79.0151H38.8584ZM45.7025 79.1231C44.7585 79.1231 44.0145 78.8511 43.4705 78.3071C42.9265 77.7551 42.6545 76.9911 42.6545 76.0151C42.6545 75.3831 42.7745 74.8351 43.0145 74.3711C43.2545 73.8991 43.5905 73.5351 44.0225 73.2791C44.4545 73.0151 44.9505 72.8831 45.5105 72.8831C46.0625 72.8831 46.5265 72.9991 46.9025 73.2311C47.2785 73.4631 47.5665 73.7951 47.7665 74.2271C47.9665 74.6511 48.0665 75.1551 48.0665 75.7391V76.0991H43.3985V75.4871H47.4305L47.2265 75.6431C47.2265 75.0031 47.0825 74.5031 46.7945 74.1431C46.5065 73.7831 46.0785 73.6031 45.5105 73.6031C44.9105 73.6031 44.4425 73.8151 44.1065 74.2391C43.7705 74.6551 43.6025 75.2191 43.6025 75.9311V76.0391C43.6025 76.7911 43.7865 77.3631 44.1545 77.7551C44.5305 78.1391 45.0545 78.3311 45.7265 78.3311C46.0865 78.3311 46.4225 78.2791 46.7345 78.1751C47.0545 78.0631 47.3585 77.8831 47.6465 77.6351L47.9825 78.3191C47.7185 78.5751 47.3825 78.7751 46.9745 78.9191C46.5745 79.0551 46.1505 79.1231 45.7025 79.1231ZM49.5298 79.0151V74.4431C49.5298 74.2031 49.5218 73.9591 49.5058 73.7111C49.4978 73.4631 49.4818 73.2231 49.4578 72.9911H50.3938L50.5138 74.4551L50.3458 74.4671C50.4258 74.1071 50.5658 73.8111 50.7658 73.5791C50.9658 73.3471 51.2018 73.1751 51.4738 73.0631C51.7458 72.9431 52.0298 72.8831 52.3258 72.8831C52.4458 72.8831 52.5498 72.8871 52.6378 72.8951C52.7338 72.9031 52.8218 72.9231 52.9018 72.9551L52.8898 73.8191C52.7698 73.7791 52.6578 73.7551 52.5538 73.7471C52.4578 73.7311 52.3458 73.7231 52.2178 73.7231C51.8658 73.7231 51.5578 73.8071 51.2938 73.9751C51.0378 74.1431 50.8418 74.3591 50.7058 74.6231C50.5778 74.8871 50.5138 75.1671 50.5138 75.4631V79.0151H49.5298ZM53.9132 79.0151V74.3831C53.9132 74.1591 53.9012 73.9311 53.8772 73.6991C53.8612 73.4591 53.8412 73.2231 53.8172 72.9911H54.7532L54.8732 74.3111H54.7292C54.8892 73.8551 55.1412 73.5031 55.4852 73.2551C55.8372 73.0071 56.2612 72.8831 56.7572 72.8831C57.2612 72.8831 57.6692 73.0031 57.9812 73.2431C58.3012 73.4831 58.5172 73.8551 58.6292 74.3591H58.4492C58.6012 73.9031 58.8692 73.5431 59.2532 73.2791C59.6372 73.0151 60.0852 72.8831 60.5972 72.8831C61.2612 72.8831 61.7612 73.0751 62.0972 73.4591C62.4332 73.8351 62.6012 74.4311 62.6012 75.2471V79.0151H61.6292V75.3071C61.6292 74.7391 61.5292 74.3271 61.3292 74.0711C61.1292 73.8071 60.8092 73.6751 60.3692 73.6751C59.8652 73.6751 59.4652 73.8511 59.1692 74.2031C58.8812 74.5471 58.7372 75.0111 58.7372 75.5951V79.0151H57.7652V75.3071C57.7652 74.7391 57.6652 74.3271 57.4652 74.0711C57.2652 73.8071 56.9452 73.6751 56.5052 73.6751C56.0012 73.6751 55.6052 73.8511 55.3172 74.2031C55.0292 74.5471 54.8852 75.0111 54.8852 75.5951V79.0151H53.9132ZM64.7604 80.3831L64.3044 80.0351C64.5204 79.8111 64.6604 79.5991 64.7244 79.3991C64.7964 79.2071 64.8324 79.0111 64.8324 78.8111L65.0484 79.0151H64.2564V77.7911H65.4804V78.6551C65.4804 78.9751 65.4284 79.2751 65.3244 79.5551C65.2204 79.8431 65.0324 80.1191 64.7604 80.3831ZM73.2357 79.1231C72.2117 79.1231 71.4197 78.7631 70.8597 78.0431C70.3077 77.3151 70.0317 76.2991 70.0317 74.9951C70.0317 74.0191 70.1717 73.1951 70.4517 72.5231C70.7317 71.8431 71.1317 71.3271 71.6517 70.9751C72.1717 70.6231 72.7997 70.4471 73.5357 70.4471C73.9757 70.4471 74.4197 70.5391 74.8677 70.7231C75.3157 70.8991 75.6837 71.1471 75.9717 71.4671L75.6117 72.2351C75.3077 71.9231 74.9757 71.6951 74.6157 71.5511C74.2557 71.3991 73.8917 71.3231 73.5237 71.3231C72.7077 71.3231 72.0797 71.6151 71.6397 72.1991C71.2077 72.7751 70.9917 73.6431 70.9917 74.8031V75.9191H70.8837C70.9397 75.4631 71.0757 75.0711 71.2917 74.7431C71.5157 74.4071 71.8077 74.1511 72.1677 73.9751C72.5277 73.7991 72.9277 73.7111 73.3677 73.7111C73.8797 73.7111 74.3317 73.8231 74.7237 74.0471C75.1157 74.2711 75.4237 74.5871 75.6477 74.9951C75.8717 75.3951 75.9837 75.8551 75.9837 76.3751C75.9837 76.9031 75.8677 77.3751 75.6357 77.7911C75.4037 78.2071 75.0797 78.5351 74.6637 78.7751C74.2477 79.0071 73.7717 79.1231 73.2357 79.1231ZM73.1637 78.2831C73.5317 78.2831 73.8557 78.2071 74.1357 78.0551C74.4237 77.8951 74.6437 77.6751 74.7957 77.3951C74.9557 77.1071 75.0357 76.7791 75.0357 76.4111C75.0357 76.0431 74.9557 75.7191 74.7957 75.4391C74.6437 75.1591 74.4237 74.9391 74.1357 74.7791C73.8557 74.6191 73.5317 74.5391 73.1637 74.5391C72.7957 74.5391 72.4717 74.6191 72.1917 74.7791C71.9117 74.9391 71.6917 75.1591 71.5317 75.4391C71.3797 75.7191 71.3037 76.0431 71.3037 76.4111C71.3037 76.7791 71.3797 77.1071 71.5317 77.3951C71.6917 77.6751 71.9117 77.8951 72.1917 78.0551C72.4717 78.2071 72.7957 78.2831 73.1637 78.2831ZM80.1551 79.1231C79.1871 79.1231 78.4391 78.9191 77.9111 78.5111C77.3831 78.0951 77.1191 77.5151 77.1191 76.7711C77.1191 76.1871 77.2991 75.7031 77.6591 75.3191C78.0191 74.9271 78.4951 74.6911 79.0871 74.6111V74.7911C78.5511 74.6791 78.1231 74.4351 77.8031 74.0591C77.4831 73.6751 77.3231 73.2231 77.3231 72.7031C77.3231 71.9911 77.5751 71.4391 78.0791 71.0471C78.5831 70.6471 79.2751 70.4471 80.1551 70.4471C81.0431 70.4471 81.7391 70.6471 82.2431 71.0471C82.7471 71.4391 82.9991 71.9911 82.9991 72.7031C82.9991 73.2231 82.8471 73.6751 82.5431 74.0591C82.2471 74.4431 81.8311 74.6831 81.2951 74.7791V74.6111C81.8791 74.6911 82.3431 74.9271 82.6871 75.3191C83.0311 75.7031 83.2031 76.1871 83.2031 76.7711C83.2031 77.5151 82.9391 78.0951 82.4111 78.5111C81.8831 78.9191 81.1311 79.1231 80.1551 79.1231ZM80.1551 78.3071C80.8591 78.3071 81.3831 78.1751 81.7271 77.9111C82.0791 77.6471 82.2551 77.2471 82.2551 76.7111C82.2551 76.1831 82.0791 75.7911 81.7271 75.5351C81.3831 75.2711 80.8591 75.1391 80.1551 75.1391C79.4511 75.1391 78.9231 75.2711 78.5711 75.5351C78.2271 75.7911 78.0551 76.1831 78.0551 76.7111C78.0551 77.2471 78.2311 77.6471 78.5831 77.9111C78.9351 78.1751 79.4591 78.3071 80.1551 78.3071ZM80.1551 74.3231C80.7631 74.3231 81.2271 74.1871 81.5471 73.9151C81.8751 73.6431 82.0391 73.2671 82.0391 72.7871C82.0391 72.3071 81.8751 71.9351 81.5471 71.6711C81.2271 71.3991 80.7631 71.2631 80.1551 71.2631C79.5471 71.2631 79.0791 71.3991 78.7511 71.6711C78.4311 71.9351 78.2711 72.3071 78.2711 72.7871C78.2711 73.2671 78.4311 73.6431 78.7511 73.9151C79.0791 74.1871 79.5471 74.3231 80.1551 74.3231ZM87.3024 79.0151H86.4264L91.4544 70.5551H92.3304L87.3024 79.0151ZM86.4504 75.6311C85.8024 75.6311 85.2904 75.4031 84.9144 74.9471C84.5464 74.4831 84.3624 73.8471 84.3624 73.0391C84.3624 72.2231 84.5504 71.5911 84.9264 71.1431C85.3024 70.6871 85.8104 70.4591 86.4504 70.4591C87.0984 70.4591 87.6064 70.6871 87.9744 71.1431C88.3504 71.5911 88.5384 72.2231 88.5384 73.0391C88.5384 73.8471 88.3504 74.4831 87.9744 74.9471C87.6064 75.4031 87.0984 75.6311 86.4504 75.6311ZM86.4504 74.9351C86.8424 74.9351 87.1464 74.7791 87.3624 74.4671C87.5864 74.1471 87.6984 73.6711 87.6984 73.0391C87.6984 72.3991 87.5864 71.9231 87.3624 71.6111C87.1464 71.2991 86.8424 71.1431 86.4504 71.1431C86.0664 71.1431 85.7624 71.2991 85.5384 71.6111C85.3224 71.9231 85.2144 72.3991 85.2144 73.0391C85.2144 73.6791 85.3224 74.1551 85.5384 74.4671C85.7624 74.7791 86.0664 74.9351 86.4504 74.9351ZM92.3064 79.1231C91.6504 79.1231 91.1344 78.8951 90.7584 78.4391C90.3904 77.9831 90.2064 77.3431 90.2064 76.5191C90.2064 75.7031 90.3944 75.0711 90.7704 74.6231C91.1464 74.1751 91.6584 73.9511 92.3064 73.9511C92.9544 73.9511 93.4624 74.1791 93.8304 74.6351C94.2064 75.0831 94.3944 75.7111 94.3944 76.5191C94.3944 77.3351 94.2064 77.9751 93.8304 78.4391C93.4624 78.8951 92.9544 79.1231 92.3064 79.1231ZM92.3064 78.4271C92.6904 78.4271 92.9904 78.2711 93.2064 77.9591C93.4304 77.6391 93.5424 77.1591 93.5424 76.5191C93.5424 75.8871 93.4304 75.4151 93.2064 75.1031C92.9904 74.7911 92.6904 74.6351 92.3064 74.6351C91.9144 74.6351 91.6104 74.7911 91.3944 75.1031C91.1784 75.4151 91.0704 75.8871 91.0704 76.5191C91.0704 77.1671 91.1784 77.6471 91.3944 77.9591C91.6104 78.2711 91.9144 78.4271 92.3064 78.4271Z" fill="white"/>
<rect x="113.003" y="10.2483" width="101.386" height="20.0966" rx="4.1932" fill="#F9FAFB"/>
<path d="M121.012 25.4046C120.332 25.4046 119.724 25.3166 119.188 25.1406C118.652 24.9646 118.184 24.7126 117.784 24.3846L118.144 23.5926C118.424 23.8006 118.704 23.9766 118.984 24.1206C119.272 24.2566 119.58 24.3606 119.908 24.4326C120.236 24.4966 120.604 24.5286 121.012 24.5286C121.724 24.5286 122.252 24.3966 122.596 24.1326C122.94 23.8686 123.112 23.5166 123.112 23.0766C123.112 22.7006 122.992 22.4126 122.752 22.2126C122.512 22.0126 122.092 21.8526 121.492 21.7326L120.232 21.4806C119.456 21.3206 118.876 21.0606 118.492 20.7006C118.116 20.3406 117.928 19.8526 117.928 19.2366C117.928 18.7326 118.056 18.2926 118.312 17.9166C118.576 17.5406 118.944 17.2486 119.416 17.0406C119.888 16.8326 120.436 16.7286 121.06 16.7286C121.66 16.7286 122.208 16.8206 122.704 17.0046C123.2 17.1806 123.624 17.4406 123.976 17.7846L123.628 18.5526C123.252 18.2166 122.856 17.9766 122.44 17.8326C122.032 17.6806 121.568 17.6046 121.048 17.6046C120.392 17.6046 119.872 17.7486 119.488 18.0366C119.112 18.3166 118.924 18.7006 118.924 19.1886C118.924 19.5806 119.044 19.8886 119.284 20.1126C119.524 20.3286 119.92 20.4926 120.472 20.6046L121.744 20.8566C122.56 21.0246 123.16 21.2766 123.544 21.6126C123.928 21.9486 124.12 22.4206 124.12 23.0286C124.12 23.4926 123.992 23.9046 123.736 24.2646C123.488 24.6246 123.132 24.9046 122.668 25.1046C122.204 25.3046 121.652 25.4046 121.012 25.4046ZM125.621 25.2966V16.4646H126.593V20.6046H126.437C126.605 20.1326 126.885 19.7766 127.277 19.5366C127.677 19.2886 128.137 19.1646 128.657 19.1646C129.377 19.1646 129.913 19.3606 130.265 19.7526C130.617 20.1366 130.793 20.7206 130.793 21.5046V25.2966H129.821V21.5646C129.821 21.0046 129.709 20.5966 129.485 20.3406C129.269 20.0846 128.917 19.9566 128.429 19.9566C127.869 19.9566 127.421 20.1286 127.085 20.4726C126.757 20.8166 126.593 21.2686 126.593 21.8286V25.2966H125.621ZM135.124 25.4046C134.548 25.4046 134.044 25.2806 133.612 25.0326C133.188 24.7766 132.86 24.4166 132.628 23.9526C132.396 23.4806 132.28 22.9246 132.28 22.2846C132.28 21.6366 132.396 21.0806 132.628 20.6166C132.86 20.1526 133.188 19.7966 133.612 19.5486C134.044 19.2926 134.548 19.1646 135.124 19.1646C135.708 19.1646 136.212 19.2926 136.636 19.5486C137.068 19.7966 137.4 20.1526 137.632 20.6166C137.872 21.0806 137.992 21.6366 137.992 22.2846C137.992 22.9246 137.872 23.4806 137.632 23.9526C137.4 24.4166 137.068 24.7766 136.636 25.0326C136.212 25.2806 135.708 25.4046 135.124 25.4046ZM135.124 24.6126C135.7 24.6126 136.156 24.4166 136.492 24.0246C136.828 23.6246 136.996 23.0446 136.996 22.2846C136.996 21.5166 136.824 20.9366 136.48 20.5446C136.144 20.1446 135.692 19.9446 135.124 19.9446C134.556 19.9446 134.104 20.1446 133.768 20.5446C133.432 20.9366 133.264 21.5166 133.264 22.2846C133.264 23.0446 133.432 23.6246 133.768 24.0246C134.104 24.4166 134.556 24.6126 135.124 24.6126ZM139.484 25.2966V20.7246C139.484 20.4846 139.476 20.2406 139.46 19.9926C139.452 19.7446 139.436 19.5046 139.412 19.2726H140.348L140.468 20.7366L140.3 20.7486C140.38 20.3886 140.52 20.0926 140.72 19.8606C140.92 19.6286 141.156 19.4566 141.428 19.3446C141.7 19.2246 141.984 19.1646 142.28 19.1646C142.4 19.1646 142.504 19.1686 142.592 19.1766C142.688 19.1846 142.776 19.2046 142.856 19.2366L142.844 20.1006C142.724 20.0606 142.612 20.0366 142.508 20.0286C142.412 20.0126 142.3 20.0046 142.172 20.0046C141.82 20.0046 141.512 20.0886 141.248 20.2566C140.992 20.4246 140.796 20.6406 140.66 20.9046C140.532 21.1686 140.468 21.4486 140.468 21.7446V25.2966H139.484ZM146.319 25.4046C145.727 25.4046 145.275 25.2366 144.963 24.9006C144.651 24.5566 144.495 24.0406 144.495 23.3526V20.0286H143.319V19.2726H144.495V17.6286L145.467 17.3526V19.2726H147.195V20.0286H145.467V23.2446C145.467 23.7246 145.547 24.0686 145.707 24.2766C145.875 24.4766 146.123 24.5766 146.451 24.5766C146.603 24.5766 146.739 24.5646 146.859 24.5406C146.979 24.5086 147.087 24.4726 147.183 24.4326V25.2486C147.071 25.2966 146.935 25.3326 146.775 25.3566C146.623 25.3886 146.471 25.4046 146.319 25.4046ZM153.668 25.2966V17.6766H150.68V16.8366H157.64V17.6766H154.664V25.2966H153.668ZM160.512 25.4046C159.568 25.4046 158.824 25.1326 158.28 24.5886C157.736 24.0366 157.464 23.2726 157.464 22.2966C157.464 21.6646 157.584 21.1166 157.824 20.6526C158.064 20.1806 158.4 19.8166 158.832 19.5606C159.264 19.2966 159.76 19.1646 160.32 19.1646C160.872 19.1646 161.336 19.2806 161.712 19.5126C162.088 19.7446 162.376 20.0766 162.576 20.5086C162.776 20.9326 162.876 21.4366 162.876 22.0206V22.3806H158.208V21.7686H162.24L162.036 21.9246C162.036 21.2846 161.892 20.7846 161.604 20.4246C161.316 20.0646 160.888 19.8846 160.32 19.8846C159.72 19.8846 159.252 20.0966 158.916 20.5206C158.58 20.9366 158.412 21.5006 158.412 22.2126V22.3206C158.412 23.0726 158.596 23.6446 158.964 24.0366C159.34 24.4206 159.864 24.6126 160.536 24.6126C160.896 24.6126 161.232 24.5606 161.544 24.4566C161.864 24.3446 162.168 24.1646 162.456 23.9166L162.792 24.6006C162.528 24.8566 162.192 25.0566 161.784 25.2006C161.384 25.3366 160.96 25.4046 160.512 25.4046ZM164.339 25.2966V20.7246C164.339 20.4846 164.331 20.2406 164.315 19.9926C164.307 19.7446 164.291 19.5046 164.267 19.2726H165.203L165.323 20.7366L165.155 20.7486C165.235 20.3886 165.375 20.0926 165.575 19.8606C165.775 19.6286 166.011 19.4566 166.283 19.3446C166.555 19.2246 166.839 19.1646 167.135 19.1646C167.255 19.1646 167.359 19.1686 167.447 19.1766C167.543 19.1846 167.631 19.2046 167.711 19.2366L167.699 20.1006C167.579 20.0606 167.467 20.0366 167.363 20.0286C167.267 20.0126 167.155 20.0046 167.027 20.0046C166.675 20.0046 166.367 20.0886 166.103 20.2566C165.847 20.4246 165.651 20.6406 165.515 20.9046C165.387 21.1686 165.323 21.4486 165.323 21.7446V25.2966H164.339ZM168.723 25.2966V20.6646C168.723 20.4406 168.711 20.2126 168.687 19.9806C168.671 19.7406 168.651 19.5046 168.627 19.2726H169.563L169.683 20.5926H169.539C169.699 20.1366 169.951 19.7846 170.295 19.5366C170.647 19.2886 171.071 19.1646 171.567 19.1646C172.071 19.1646 172.479 19.2846 172.791 19.5246C173.111 19.7646 173.327 20.1366 173.439 20.6406H173.259C173.411 20.1846 173.679 19.8246 174.063 19.5606C174.447 19.2966 174.895 19.1646 175.407 19.1646C176.071 19.1646 176.571 19.3566 176.907 19.7406C177.243 20.1166 177.411 20.7126 177.411 21.5286V25.2966H176.439V21.5886C176.439 21.0206 176.339 20.6086 176.139 20.3526C175.939 20.0886 175.619 19.9566 175.179 19.9566C174.675 19.9566 174.275 20.1326 173.979 20.4846C173.691 20.8286 173.547 21.2926 173.547 21.8766V25.2966H172.575V21.5886C172.575 21.0206 172.475 20.6086 172.275 20.3526C172.075 20.0886 171.755 19.9566 171.315 19.9566C170.811 19.9566 170.415 20.1326 170.127 20.4846C169.839 20.8286 169.695 21.2926 169.695 21.8766V25.2966H168.723ZM179.57 26.6646L179.114 26.3166C179.33 26.0926 179.47 25.8806 179.534 25.6806C179.606 25.4886 179.642 25.2926 179.642 25.0926L179.858 25.2966H179.066V24.0726H180.29V24.9366C180.29 25.2566 180.238 25.5566 180.134 25.8366C180.03 26.1246 179.842 26.4006 179.57 26.6646ZM187.721 25.4046C187.153 25.4046 186.609 25.3166 186.089 25.1406C185.569 24.9646 185.133 24.7126 184.781 24.3846L185.153 23.6166C185.545 23.9366 185.949 24.1686 186.365 24.3126C186.781 24.4566 187.229 24.5286 187.709 24.5286C188.341 24.5286 188.821 24.3966 189.149 24.1326C189.477 23.8606 189.641 23.4646 189.641 22.9446C189.641 22.4486 189.473 22.0726 189.137 21.8166C188.801 21.5526 188.309 21.4206 187.661 21.4206H186.389V20.5926H187.577C188.137 20.5926 188.581 20.4486 188.909 20.1606C189.237 19.8726 189.401 19.4806 189.401 18.9846C189.401 18.5366 189.249 18.1966 188.945 17.9646C188.649 17.7246 188.221 17.6046 187.661 17.6046C186.749 17.6046 185.961 17.9286 185.297 18.5766L184.925 17.7966C185.253 17.4606 185.665 17.2006 186.161 17.0166C186.657 16.8246 187.177 16.7286 187.721 16.7286C188.553 16.7286 189.205 16.9206 189.677 17.3046C190.149 17.6886 190.385 18.2206 190.385 18.9006C190.385 19.4206 190.237 19.8686 189.941 20.2446C189.645 20.6126 189.245 20.8646 188.741 21.0006V20.8686C189.341 20.9646 189.805 21.2046 190.133 21.5886C190.461 21.9646 190.625 22.4406 190.625 23.0166C190.625 23.7526 190.365 24.3366 189.845 24.7686C189.333 25.1926 188.625 25.4046 187.721 25.4046ZM192.396 25.2966V24.5526L195.396 21.4206C195.788 21.0126 196.08 20.6246 196.272 20.2566C196.472 19.8806 196.572 19.4926 196.572 19.0926C196.572 18.6046 196.42 18.2366 196.116 17.9886C195.812 17.7326 195.372 17.6046 194.796 17.6046C194.348 17.6046 193.932 17.6846 193.548 17.8446C193.172 17.9966 192.808 18.2406 192.456 18.5766L192.096 17.7966C192.416 17.4766 192.824 17.2206 193.32 17.0286C193.816 16.8286 194.34 16.7286 194.892 16.7286C195.748 16.7286 196.408 16.9286 196.872 17.3286C197.336 17.7206 197.568 18.2806 197.568 19.0086C197.568 19.5446 197.436 20.0566 197.172 20.5446C196.916 21.0246 196.54 21.5206 196.044 22.0326L193.392 24.7206V24.4446H197.928V25.2966H192.396ZM202.112 25.2966H201.236L206.264 16.8366H207.14L202.112 25.2966ZM201.26 21.9126C200.612 21.9126 200.1 21.6846 199.724 21.2286C199.356 20.7646 199.172 20.1286 199.172 19.3206C199.172 18.5046 199.36 17.8726 199.736 17.4246C200.112 16.9686 200.62 16.7406 201.26 16.7406C201.908 16.7406 202.416 16.9686 202.784 17.4246C203.16 17.8726 203.348 18.5046 203.348 19.3206C203.348 20.1286 203.16 20.7646 202.784 21.2286C202.416 21.6846 201.908 21.9126 201.26 21.9126ZM201.26 21.2166C201.652 21.2166 201.956 21.0606 202.172 20.7486C202.396 20.4286 202.508 19.9526 202.508 19.3206C202.508 18.6806 202.396 18.2046 202.172 17.8926C201.956 17.5806 201.652 17.4246 201.26 17.4246C200.876 17.4246 200.572 17.5806 200.348 17.8926C200.132 18.2046 200.024 18.6806 200.024 19.3206C200.024 19.9606 200.132 20.4366 200.348 20.7486C200.572 21.0606 200.876 21.2166 201.26 21.2166ZM207.116 25.4046C206.46 25.4046 205.944 25.1766 205.568 24.7206C205.2 24.2646 205.016 23.6246 205.016 22.8006C205.016 21.9846 205.204 21.3526 205.58 20.9046C205.956 20.4566 206.468 20.2326 207.116 20.2326C207.764 20.2326 208.272 20.4606 208.64 20.9166C209.016 21.3646 209.204 21.9926 209.204 22.8006C209.204 23.6166 209.016 24.2566 208.64 24.7206C208.272 25.1766 207.764 25.4046 207.116 25.4046ZM207.116 24.7086C207.5 24.7086 207.8 24.5526 208.016 24.2406C208.24 23.9206 208.352 23.4406 208.352 22.8006C208.352 22.1686 208.24 21.6966 208.016 21.3846C207.8 21.0726 207.5 20.9166 207.116 20.9166C206.724 20.9166 206.42 21.0726 206.204 21.3846C205.988 21.6966 205.88 22.1686 205.88 22.8006C205.88 23.4486 205.988 23.9286 206.204 24.2406C206.42 24.5526 206.724 24.7086 207.116 24.7086Z" fill="#1F2937"/>
</svg>
