<svg width="17" height="17" viewBox="0 0 17 17" fill="none" xmlns="http://www.w3.org/2000/svg">
<path fill-rule="evenodd" clip-rule="evenodd" d="M5.4374 10.4588C5.52542 10.7205 5.38459 11.0041 5.12285 11.0921C4.27531 11.3771 3.82489 12.0886 3.58396 12.8121C3.48829 13.0994 3.43049 13.376 3.39576 13.6046C3.62445 13.5699 3.90102 13.5121 4.18832 13.4164C4.91182 13.1755 5.62329 12.7251 5.90831 11.8776C5.99632 11.6158 6.27986 11.475 6.5416 11.563C6.80334 11.651 6.94417 11.9346 6.85615 12.1963C6.42866 13.4675 5.37139 14.0765 4.50426 14.3652C4.06622 14.5111 3.65614 14.5831 3.35682 14.619C3.20643 14.6371 3.08211 14.6462 2.99378 14.6508C2.94957 14.6532 2.91424 14.6544 2.88902 14.655C2.8764 14.6553 2.86631 14.6555 2.85888 14.6556L2.84975 14.6557L2.84672 14.6557L2.84559 14.6557C2.84539 14.6557 2.84473 14.6557 2.84473 14.1557C2.34473 14.1557 2.34473 14.1555 2.34473 14.1553L2.34473 14.1537L2.34474 14.1507L2.34483 14.1415C2.34492 14.1341 2.34508 14.124 2.3454 14.1114C2.34602 14.0862 2.34723 14.0508 2.34956 14.0066C2.3542 13.9183 2.36335 13.794 2.38139 13.6436C2.4173 13.3443 2.48931 12.9342 2.63518 12.4961C2.92394 11.629 3.53289 10.5717 4.80411 10.1443C5.06584 10.0562 5.34938 10.1971 5.4374 10.4588ZM2.84473 14.1557L2.34473 14.1553C2.34473 14.4314 2.56858 14.6557 2.84473 14.6557V14.1557Z" fill="#3B28CC"/>
<path fill-rule="evenodd" clip-rule="evenodd" d="M5.4374 10.4588C5.52542 10.7205 5.38459 11.0041 5.12285 11.0921C4.27531 11.3771 3.82489 12.0886 3.58396 12.8121C3.48829 13.0994 3.43049 13.376 3.39576 13.6046C3.62445 13.5699 3.90102 13.5121 4.18832 13.4164C4.91182 13.1755 5.62329 12.7251 5.90831 11.8776C5.99632 11.6158 6.27986 11.475 6.5416 11.563C6.80334 11.651 6.94417 11.9346 6.85615 12.1963C6.42866 13.4675 5.37139 14.0765 4.50426 14.3652C4.06622 14.5111 3.65614 14.5831 3.35682 14.619C3.20643 14.6371 3.08211 14.6462 2.99378 14.6508C2.94957 14.6532 2.91424 14.6544 2.88902 14.655C2.8764 14.6553 2.86631 14.6555 2.85888 14.6556L2.84975 14.6557L2.84672 14.6557L2.84559 14.6557C2.84539 14.6557 2.84473 14.6557 2.84473 14.1557C2.34473 14.1557 2.34473 14.1555 2.34473 14.1553L2.34473 14.1537L2.34474 14.1507L2.34483 14.1415C2.34492 14.1341 2.34508 14.124 2.3454 14.1114C2.34602 14.0862 2.34723 14.0508 2.34956 14.0066C2.3542 13.9183 2.36335 13.794 2.38139 13.6436C2.4173 13.3443 2.48931 12.9342 2.63518 12.4961C2.92394 11.629 3.53289 10.5717 4.80411 10.1443C5.06584 10.0562 5.34938 10.1971 5.4374 10.4588ZM2.84473 14.1557L2.34473 14.1553C2.34473 14.4314 2.56858 14.6557 2.84473 14.6557V14.1557Z" fill="url(#paint0_linear_15945_18572)" fill-opacity="0.4"/>
<path fill-rule="evenodd" clip-rule="evenodd" d="M13.7379 3.26247C13.1575 3.17877 11.729 3.14723 10.267 4.60924L6.37678 8.49944L8.50093 10.6236L12.3911 6.73339C13.8531 5.27138 13.8216 3.84283 13.7379 3.26247ZM13.8829 2.27303C13.0847 2.15747 11.3055 2.15647 9.55988 3.90214L5.31612 8.14589C5.22236 8.23966 5.16968 8.36683 5.16968 8.49944C5.16968 8.63205 5.22236 8.75923 5.31612 8.85299L8.14738 11.6842C8.34264 11.8795 8.65922 11.8795 8.85448 11.6842L13.0982 7.44049C14.8439 5.69483 14.8429 3.91564 14.7273 3.11747C14.6981 2.90386 14.5997 2.70564 14.4472 2.55314C14.2947 2.40064 14.0965 2.30228 13.8829 2.27303Z" fill="#3B28CC"/>
<path fill-rule="evenodd" clip-rule="evenodd" d="M13.7379 3.26247C13.1575 3.17877 11.729 3.14723 10.267 4.60924L6.37678 8.49944L8.50093 10.6236L12.3911 6.73339C13.8531 5.27138 13.8216 3.84283 13.7379 3.26247ZM13.8829 2.27303C13.0847 2.15747 11.3055 2.15647 9.55988 3.90214L5.31612 8.14589C5.22236 8.23966 5.16968 8.36683 5.16968 8.49944C5.16968 8.63205 5.22236 8.75923 5.31612 8.85299L8.14738 11.6842C8.34264 11.8795 8.65922 11.8795 8.85448 11.6842L13.0982 7.44049C14.8439 5.69483 14.8429 3.91564 14.7273 3.11747C14.6981 2.90386 14.5997 2.70564 14.4472 2.55314C14.2947 2.40064 14.0965 2.30228 13.8829 2.27303Z" fill="url(#paint1_linear_15945_18572)" fill-opacity="0.4"/>
<path fill-rule="evenodd" clip-rule="evenodd" d="M12.0386 7.29321C12.3147 7.29321 12.5386 7.51707 12.5386 7.79321V11.8307L12.5385 11.8378C12.5348 12.1005 12.4279 12.351 12.241 12.5354L10.2232 14.5595C10.0951 14.6874 9.93466 14.7782 9.75902 14.8221C9.58337 14.866 9.39911 14.8614 9.22588 14.8088C9.05265 14.7562 8.89694 14.6575 8.77539 14.5234C8.65392 14.3893 8.57111 14.2248 8.53575 14.0474C8.53573 14.0472 8.53578 14.0475 8.53575 14.0474L8.01083 11.429C7.95655 11.1582 8.13204 10.8947 8.40279 10.8405C8.67355 10.7862 8.93704 10.9617 8.99132 11.2324L9.51647 13.852L11.5386 11.8236V7.79321C11.5386 7.51707 11.7624 7.29321 12.0386 7.29321Z" fill="#3B28CC"/>
<path fill-rule="evenodd" clip-rule="evenodd" d="M12.0386 7.29321C12.3147 7.29321 12.5386 7.51707 12.5386 7.79321V11.8307L12.5385 11.8378C12.5348 12.1005 12.4279 12.351 12.241 12.5354L10.2232 14.5595C10.0951 14.6874 9.93466 14.7782 9.75902 14.8221C9.58337 14.866 9.39911 14.8614 9.22588 14.8088C9.05265 14.7562 8.89694 14.6575 8.77539 14.5234C8.65392 14.3893 8.57111 14.2248 8.53575 14.0474C8.53573 14.0472 8.53578 14.0475 8.53575 14.0474L8.01083 11.429C7.95655 11.1582 8.13204 10.8947 8.40279 10.8405C8.67355 10.7862 8.93704 10.9617 8.99132 11.2324L9.51647 13.852L11.5386 11.8236V7.79321C11.5386 7.51707 11.7624 7.29321 12.0386 7.29321Z" fill="url(#paint2_linear_15945_18572)" fill-opacity="0.4"/>
<path fill-rule="evenodd" clip-rule="evenodd" d="M5.16256 4.46203L5.16968 4.46198H9.20718C9.48332 4.46198 9.70718 4.68583 9.70718 4.96198C9.70718 5.23812 9.48332 5.46198 9.20718 5.46198H5.17675L5.17271 5.4661L3.14844 7.48407L3.14921 7.48423L5.76796 8.00923C6.03872 8.06351 6.21421 8.327 6.15993 8.59776C6.10565 8.86851 5.84215 9.044 5.5714 8.98972L2.95342 8.46488C2.95327 8.46485 2.95357 8.4649 2.95342 8.46488C2.77602 8.42952 2.61109 8.34661 2.47703 8.22516C2.34286 8.10361 2.2442 7.94791 2.19159 7.77467C2.13898 7.60144 2.13439 7.41717 2.1783 7.24153C2.22221 7.06589 2.31298 6.90547 2.44092 6.77738L2.44167 6.77662L4.46496 4.75959C4.64937 4.57268 4.89993 4.46577 5.16256 4.46203Z" fill="#3B28CC"/>
<path fill-rule="evenodd" clip-rule="evenodd" d="M5.16256 4.46203L5.16968 4.46198H9.20718C9.48332 4.46198 9.70718 4.68583 9.70718 4.96198C9.70718 5.23812 9.48332 5.46198 9.20718 5.46198H5.17675L5.17271 5.4661L3.14844 7.48407L3.14921 7.48423L5.76796 8.00923C6.03872 8.06351 6.21421 8.327 6.15993 8.59776C6.10565 8.86851 5.84215 9.044 5.5714 8.98972L2.95342 8.46488C2.95327 8.46485 2.95357 8.4649 2.95342 8.46488C2.77602 8.42952 2.61109 8.34661 2.47703 8.22516C2.34286 8.10361 2.2442 7.94791 2.19159 7.77467C2.13898 7.60144 2.13439 7.41717 2.1783 7.24153C2.22221 7.06589 2.31298 6.90547 2.44092 6.77738L2.44167 6.77662L4.46496 4.75959C4.64937 4.57268 4.89993 4.46577 5.16256 4.46203Z" fill="url(#paint3_linear_15945_18572)" fill-opacity="0.4"/>
<defs>
<linearGradient id="paint0_linear_15945_18572" x1="2.14844" y1="2.23047" x2="10.9531" y2="17.1104" gradientUnits="userSpaceOnUse">
<stop stop-color="#9D71FF"/>
<stop offset="1" stop-color="#4B78EC"/>
</linearGradient>
<linearGradient id="paint1_linear_15945_18572" x1="2.14844" y1="2.23047" x2="10.9531" y2="17.1104" gradientUnits="userSpaceOnUse">
<stop stop-color="#9D71FF"/>
<stop offset="1" stop-color="#4B78EC"/>
</linearGradient>
<linearGradient id="paint2_linear_15945_18572" x1="2.14844" y1="2.23047" x2="10.9531" y2="17.1104" gradientUnits="userSpaceOnUse">
<stop stop-color="#9D71FF"/>
<stop offset="1" stop-color="#4B78EC"/>
</linearGradient>
<linearGradient id="paint3_linear_15945_18572" x1="2.14844" y1="2.23047" x2="10.9531" y2="17.1104" gradientUnits="userSpaceOnUse">
<stop stop-color="#9D71FF"/>
<stop offset="1" stop-color="#4B78EC"/>
</linearGradient>
</defs>
</svg>
