<svg xmlns="http://www.w3.org/2000/svg" width="40" height="40" viewBox="0 0 40 40" fill="none">
    <path d="M36.0838 18.4994C38.1547 18.4994 39.8335 16.8206 39.8335 14.7497V14.7497C39.8335 12.6788 38.1545 11 36.0837 11V11C34.0126 11 32.3335 12.6789 32.3335 14.75V18.4994H36.0838ZM25.5835 18.4994C27.6546 18.4994 29.3335 16.8204 29.3335 14.7494V4.25C29.3335 2.17893 27.6546 0.5 25.5835 0.5V0.5C23.5124 0.5 21.8335 2.17893 21.8335 4.25V14.7494C21.8335 16.8204 23.5124 18.4994 25.5835 18.4994V18.4994Z" fill="#2EB67D"/>
    <path d="M4.58317 21.5006C2.51229 21.5006 0.833498 23.1794 0.833498 25.2503V25.2503C0.833498 27.3212 2.51245 29 4.58334 29V29C6.6544 29 8.3335 27.3211 8.3335 25.25V21.5006H4.58317ZM15.0835 21.5006C13.0124 21.5006 11.3335 23.1796 11.3335 25.2506V35.75C11.3335 37.8211 13.0124 39.5 15.0835 39.5V39.5C17.1546 39.5 18.8335 37.8211 18.8335 35.75V25.2506C18.8335 23.1796 17.1546 21.5006 15.0835 21.5006V21.5006Z" fill="#E01E5A"/>
    <path d="M21.8336 35.7503C21.8336 37.8212 23.5124 39.5 25.5833 39.5V39.5C27.6542 39.5 29.333 37.821 29.333 35.7502V35.7502C29.333 33.6791 27.6541 32 25.583 32L21.8336 32L21.8336 35.7503ZM21.8336 25.25C21.8336 27.3211 23.5126 29 25.5836 29L36.083 29C38.1541 29 39.833 27.3211 39.833 25.25V25.25C39.833 23.1789 38.1541 21.5 36.083 21.5L25.5837 21.5C23.5126 21.5 21.8337 23.1789 21.8336 25.25V25.25Z" fill="#ECB22E"/>
    <path d="M18.8333 4.24968C18.8333 2.17879 17.1546 0.500001 15.0837 0.500001V0.500001C13.0128 0.500001 11.334 2.17895 11.334 4.24984V4.24984C11.334 6.32091 13.0129 8 15.084 8L18.8333 8L18.8333 4.24968ZM18.8333 14.75C18.8333 12.6789 17.1544 11 15.0833 11L4.58399 11C2.51292 11 0.833985 12.6789 0.833985 14.75V14.75C0.833984 16.8211 2.51292 18.5 4.58398 18.5L15.0833 18.5C17.1544 18.5 18.8333 16.8211 18.8333 14.75V14.75Z" fill="#36C5F0"/>
</svg>