<svg xmlns="http://www.w3.org/2000/svg" width="17" height="17" viewBox="0 0 17 17" fill="none">
    <path d="M13.5565 9.5C13.558 9.70506 13.4956 9.9055 13.378 10.0735C13.2604 10.2415 13.0934 10.3687 12.9003 10.4375L9.63776 11.6375L8.43776 14.9C8.36672 15.0914 8.23882 15.2564 8.07123 15.373C7.90364 15.4895 7.70439 15.552 7.50026 15.552C7.29612 15.552 7.09688 15.4895 6.92929 15.373C6.7617 15.2564 6.63379 15.0914 6.56276 14.9L5.36276 11.6375L2.10026 10.4375C1.90888 10.3665 1.74383 10.2386 1.62727 10.071C1.51072 9.90338 1.44824 9.70414 1.44824 9.5C1.44824 9.29586 1.51072 9.09662 1.62727 8.92903C1.74383 8.76144 1.90888 8.63354 2.10026 8.5625L5.36276 7.3625L6.56276 4.1C6.63379 3.90862 6.7617 3.74357 6.92929 3.62701C7.09688 3.51046 7.29612 3.44799 7.50026 3.44799C7.70439 3.44799 7.90364 3.51046 8.07123 3.62701C8.23882 3.74357 8.36672 3.90862 8.43776 4.1L9.63776 7.3625L12.9003 8.5625C13.0934 8.63128 13.2604 8.7585 13.378 8.9265C13.4956 9.0945 13.558 9.29494 13.5565 9.5ZM10.0003 3.5H11.0003V4.5C11.0003 4.63261 11.0529 4.75979 11.1467 4.85355C11.2405 4.94732 11.3676 5 11.5003 5C11.6329 5 11.76 4.94732 11.8538 4.85355C11.9476 4.75979 12.0003 4.63261 12.0003 4.5V3.5H13.0003C13.1329 3.5 13.26 3.44732 13.3538 3.35355C13.4476 3.25979 13.5003 3.13261 13.5003 3C13.5003 2.86739 13.4476 2.74021 13.3538 2.64645C13.26 2.55268 13.1329 2.5 13.0003 2.5H12.0003V1.5C12.0003 1.36739 11.9476 1.24021 11.8538 1.14645C11.76 1.05268 11.6329 1 11.5003 1C11.3676 1 11.2405 1.05268 11.1467 1.14645C11.0529 1.24021 11.0003 1.36739 11.0003 1.5V2.5H10.0003C9.86765 2.5 9.74047 2.55268 9.6467 2.64645C9.55293 2.74021 9.50026 2.86739 9.50026 3C9.50026 3.13261 9.55293 3.25979 9.6467 3.35355C9.74047 3.44732 9.86765 3.5 10.0003 3.5ZM15.5003 5.5H15.0003V5C15.0003 4.86739 14.9476 4.74021 14.8538 4.64645C14.76 4.55268 14.6329 4.5 14.5003 4.5C14.3676 4.5 14.2405 4.55268 14.1467 4.64645C14.0529 4.74021 14.0003 4.86739 14.0003 5V5.5H13.5003C13.3676 5.5 13.2405 5.55268 13.1467 5.64645C13.0529 5.74021 13.0003 5.86739 13.0003 6C13.0003 6.13261 13.0529 6.25979 13.1467 6.35355C13.2405 6.44732 13.3676 6.5 13.5003 6.5H14.0003V7C14.0003 7.13261 14.0529 7.25979 14.1467 7.35355C14.2405 7.44732 14.3676 7.5 14.5003 7.5C14.6329 7.5 14.76 7.44732 14.8538 7.35355C14.9476 7.25979 15.0003 7.13261 15.0003 7V6.5H15.5003C15.6329 6.5 15.76 6.44732 15.8538 6.35355C15.9476 6.25979 16.0003 6.13261 16.0003 6C16.0003 5.86739 15.9476 5.74021 15.8538 5.64645C15.76 5.55268 15.6329 5.5 15.5003 5.5Z" fill="#3B28CC"/>
    <path d="M13.5565 9.5C13.558 9.70506 13.4956 9.9055 13.378 10.0735C13.2604 10.2415 13.0934 10.3687 12.9003 10.4375L9.63776 11.6375L8.43776 14.9C8.36672 15.0914 8.23882 15.2564 8.07123 15.373C7.90364 15.4895 7.70439 15.552 7.50026 15.552C7.29612 15.552 7.09688 15.4895 6.92929 15.373C6.7617 15.2564 6.63379 15.0914 6.56276 14.9L5.36276 11.6375L2.10026 10.4375C1.90888 10.3665 1.74383 10.2386 1.62727 10.071C1.51072 9.90338 1.44824 9.70414 1.44824 9.5C1.44824 9.29586 1.51072 9.09662 1.62727 8.92903C1.74383 8.76144 1.90888 8.63354 2.10026 8.5625L5.36276 7.3625L6.56276 4.1C6.63379 3.90862 6.7617 3.74357 6.92929 3.62701C7.09688 3.51046 7.29612 3.44799 7.50026 3.44799C7.70439 3.44799 7.90364 3.51046 8.07123 3.62701C8.23882 3.74357 8.36672 3.90862 8.43776 4.1L9.63776 7.3625L12.9003 8.5625C13.0934 8.63128 13.2604 8.7585 13.378 8.9265C13.4956 9.0945 13.558 9.29494 13.5565 9.5ZM10.0003 3.5H11.0003V4.5C11.0003 4.63261 11.0529 4.75979 11.1467 4.85355C11.2405 4.94732 11.3676 5 11.5003 5C11.6329 5 11.76 4.94732 11.8538 4.85355C11.9476 4.75979 12.0003 4.63261 12.0003 4.5V3.5H13.0003C13.1329 3.5 13.26 3.44732 13.3538 3.35355C13.4476 3.25979 13.5003 3.13261 13.5003 3C13.5003 2.86739 13.4476 2.74021 13.3538 2.64645C13.26 2.55268 13.1329 2.5 13.0003 2.5H12.0003V1.5C12.0003 1.36739 11.9476 1.24021 11.8538 1.14645C11.76 1.05268 11.6329 1 11.5003 1C11.3676 1 11.2405 1.05268 11.1467 1.14645C11.0529 1.24021 11.0003 1.36739 11.0003 1.5V2.5H10.0003C9.86765 2.5 9.74047 2.55268 9.6467 2.64645C9.55293 2.74021 9.50026 2.86739 9.50026 3C9.50026 3.13261 9.55293 3.25979 9.6467 3.35355C9.74047 3.44732 9.86765 3.5 10.0003 3.5ZM15.5003 5.5H15.0003V5C15.0003 4.86739 14.9476 4.74021 14.8538 4.64645C14.76 4.55268 14.6329 4.5 14.5003 4.5C14.3676 4.5 14.2405 4.55268 14.1467 4.64645C14.0529 4.74021 14.0003 4.86739 14.0003 5V5.5H13.5003C13.3676 5.5 13.2405 5.55268 13.1467 5.64645C13.0529 5.74021 13.0003 5.86739 13.0003 6C13.0003 6.13261 13.0529 6.25979 13.1467 6.35355C13.2405 6.44732 13.3676 6.5 13.5003 6.5H14.0003V7C14.0003 7.13261 14.0529 7.25979 14.1467 7.35355C14.2405 7.44732 14.3676 7.5 14.5003 7.5C14.6329 7.5 14.76 7.44732 14.8538 7.35355C14.9476 7.25979 15.0003 7.13261 15.0003 7V6.5H15.5003C15.6329 6.5 15.76 6.44732 15.8538 6.35355C15.9476 6.25979 16.0003 6.13261 16.0003 6C16.0003 5.86739 15.9476 5.74021 15.8538 5.64645C15.76 5.55268 15.6329 5.5 15.5003 5.5Z" fill="url(#paint0_linear_206_192)" fill-opacity="0.4"/>
    <defs>
        <linearGradient id="paint0_linear_206_192" x1="1.44824" y1="1" x2="11.5997" y2="18.1559" gradientUnits="userSpaceOnUse">
            <stop stop-color="#9D71FF"/>
            <stop offset="1" stop-color="#4B78EC"/>
        </linearGradient>
    </defs>
</svg>