<svg width="16" height="17" viewBox="0 0 16 17" fill="none" xmlns="http://www.w3.org/2000/svg">
<g id="Leading Icon">
<g id="Vector">
<path d="M14.9498 6.5875C14.8872 6.39061 14.7666 6.21723 14.6038 6.09009C14.4409 5.96294 14.2435 5.88797 14.0373 5.875L10.3248 5.61875L8.94978 2.15C8.8747 1.959 8.74401 1.79494 8.57464 1.67905C8.40526 1.56317 8.205 1.50079 7.99978 1.5C7.79455 1.50079 7.59429 1.56317 7.42492 1.67905C7.25555 1.79494 7.12486 1.959 7.04978 2.15L5.64978 5.6375L1.96228 5.875C1.75634 5.88881 1.55929 5.9641 1.39661 6.09112C1.23393 6.21814 1.11311 6.39106 1.04978 6.5875C0.984741 6.78695 0.980941 7.00131 1.03887 7.20294C1.0968 7.40458 1.21379 7.58423 1.37478 7.71875L4.21228 10.1187L3.36853 13.4375C3.31015 13.662 3.32066 13.8989 3.39868 14.1174C3.4767 14.3358 3.61863 14.5258 3.80603 14.6625C3.98792 14.793 4.20463 14.8664 4.42843 14.873C4.65222 14.8797 4.87292 14.8195 5.06228 14.7L7.99353 12.8438H8.00603L11.1623 14.8375C11.3242 14.9427 11.5129 14.9991 11.706 15C11.8637 14.9988 12.019 14.9614 12.1599 14.8908C12.3009 14.8201 12.4237 14.7181 12.5191 14.5926C12.6145 14.467 12.6798 14.3213 12.71 14.1666C12.7403 14.0118 12.7346 13.8522 12.6935 13.7L11.7998 10.0688L14.6248 7.71875C14.7858 7.58423 14.9028 7.40458 14.9607 7.20294C15.0186 7.00131 15.0148 6.78695 14.9498 6.5875Z" fill="#3B28CC"/>
<path d="M14.9498 6.5875C14.8872 6.39061 14.7666 6.21723 14.6038 6.09009C14.4409 5.96294 14.2435 5.88797 14.0373 5.875L10.3248 5.61875L8.94978 2.15C8.8747 1.959 8.74401 1.79494 8.57464 1.67905C8.40526 1.56317 8.205 1.50079 7.99978 1.5C7.79455 1.50079 7.59429 1.56317 7.42492 1.67905C7.25555 1.79494 7.12486 1.959 7.04978 2.15L5.64978 5.6375L1.96228 5.875C1.75634 5.88881 1.55929 5.9641 1.39661 6.09112C1.23393 6.21814 1.11311 6.39106 1.04978 6.5875C0.984741 6.78695 0.980941 7.00131 1.03887 7.20294C1.0968 7.40458 1.21379 7.58423 1.37478 7.71875L4.21228 10.1187L3.36853 13.4375C3.31015 13.662 3.32066 13.8989 3.39868 14.1174C3.4767 14.3358 3.61863 14.5258 3.80603 14.6625C3.98792 14.793 4.20463 14.8664 4.42843 14.873C4.65222 14.8797 4.87292 14.8195 5.06228 14.7L7.99353 12.8438H8.00603L11.1623 14.8375C11.3242 14.9427 11.5129 14.9991 11.706 15C11.8637 14.9988 12.019 14.9614 12.1599 14.8908C12.3009 14.8201 12.4237 14.7181 12.5191 14.5926C12.6145 14.467 12.6798 14.3213 12.71 14.1666C12.7403 14.0118 12.7346 13.8522 12.6935 13.7L11.7998 10.0688L14.6248 7.71875C14.7858 7.58423 14.9028 7.40458 14.9607 7.20294C15.0186 7.00131 15.0148 6.78695 14.9498 6.5875Z" fill="url(#paint0_linear_1_6848)" fill-opacity="0.4"/>
</g>
</g>
<defs>
<linearGradient id="paint0_linear_1_6848" x1="0.998047" y1="1.5" x2="10.2464" y2="17.7125" gradientUnits="userSpaceOnUse">
<stop stop-color="#9D71FF"/>
<stop offset="1" stop-color="#4B78EC"/>
</linearGradient>
</defs>
</svg>
