<svg width="37" height="32" viewBox="0 0 37 32" fill="none" xmlns="http://www.w3.org/2000/svg">
<g opacity="0.3">
<path d="M11.0333 18.0687C11.0333 17.9081 11.3389 17.7778 11.7159 17.7778H26.7063C27.0833 17.7778 27.3889 17.9081 27.3889 18.0687V22.4648C27.3889 22.6254 27.0833 22.7556 26.7063 22.7556H11.7159C11.3389 22.7556 11.0333 22.6254 11.0333 22.4648V18.0687Z" fill="url(#paint0_linear_137_2068)"/>
<path d="M11.0333 18.0687C11.0333 17.9081 11.3389 17.7778 11.7159 17.7778H26.7063C27.0833 17.7778 27.3889 17.9081 27.3889 18.0687V22.4648C27.3889 22.6254 27.0833 22.7556 26.7063 22.7556H11.7159C11.3389 22.7556 11.0333 22.6254 11.0333 22.4648V18.0687Z" fill="url(#paint1_linear_137_2068)"/>
</g>
<g filter="url(#filter0_bdi_137_2068)">
<path d="M4.96758 5.53291L5.33784 5.16265L7.54262 18.2958C7.90681 20.4652 9.38496 21.8401 11.6223 22.0906L33.4333 24.5324C33.0682 25.7155 31.7277 26.8368 30.6784 26.8368L6.60982 26.8368C4.57738 26.8368 3.32534 25.5848 3.32534 23.5523L3.32534 8.81739C3.32534 7.80117 3.95136 6.54913 4.96758 5.53291Z" fill="url(#paint2_linear_137_2068)"/>
<path d="M4.96758 5.53291L5.33784 5.16265L7.54262 18.2958C7.90681 20.4652 9.38496 21.8401 11.6223 22.0906L33.4333 24.5324C33.0682 25.7155 31.7277 26.8368 30.6784 26.8368L6.60982 26.8368C4.57738 26.8368 3.32534 25.5848 3.32534 23.5523L3.32534 8.81739C3.32534 7.80117 3.95136 6.54913 4.96758 5.53291Z" fill="url(#paint3_linear_137_2068)" fill-opacity="0.6"/>
<path d="M4.96758 5.53291L5.33784 5.16265L7.54262 18.2958C7.90681 20.4652 9.38496 21.8401 11.6223 22.0906L33.4333 24.5324C33.0682 25.7155 31.7277 26.8368 30.6784 26.8368L6.60982 26.8368C4.57738 26.8368 3.32534 25.5848 3.32534 23.5523L3.32534 8.81739C3.32534 7.80117 3.95136 6.54913 4.96758 5.53291Z" fill="url(#paint4_linear_137_2068)" fill-opacity="0.25"/>
<path d="M4.96758 5.53291L5.33784 5.16265L7.54262 18.2958C7.90681 20.4652 9.38496 21.8401 11.6223 22.0906L33.4333 24.5324C33.0682 25.7155 31.7277 26.8368 30.6784 26.8368L6.60982 26.8368C4.57738 26.8368 3.32534 25.5848 3.32534 23.5523L3.32534 8.81739C3.32534 7.80117 3.95136 6.54913 4.96758 5.53291Z" fill="black" fill-opacity="0.04"/>
<path d="M4.96758 5.53291L5.33784 5.16265L7.54262 18.2958C7.90681 20.4652 9.38496 21.8401 11.6223 22.0906L33.4333 24.5324C33.0682 25.7155 31.7277 26.8368 30.6784 26.8368L6.60982 26.8368C4.57738 26.8368 3.32534 25.5848 3.32534 23.5523L3.32534 8.81739C3.32534 7.80117 3.95136 6.54913 4.96758 5.53291Z" fill="url(#paint5_linear_137_2068)" fill-opacity="0.1"/>
</g>
<g filter="url(#filter1_bdi_137_2068)">
<rect x="3.56665" y="4.56689" width="29.8667" height="21.3333" rx="2.84444" fill="url(#paint6_linear_137_2068)"/>
<rect x="3.56665" y="4.56689" width="29.8667" height="21.3333" rx="2.84444" fill="url(#paint7_linear_137_2068)" fill-opacity="0.6"/>
<rect x="3.56665" y="4.56689" width="29.8667" height="21.3333" rx="2.84444" fill="url(#paint8_linear_137_2068)" fill-opacity="0.25"/>
<rect x="3.81665" y="4.81689" width="29.3667" height="20.8333" rx="2.59444" stroke="url(#paint9_linear_137_2068)" stroke-opacity="0.5" stroke-width="0.5"/>
</g>
<path d="M7.72644 19.6071L8.18894 19.1445L8.89692 20.6573L11.0293 21.282L10.5709 21.7404H7.72644V19.6071Z" fill="#111827"/>
<path d="M7.75038 14.6091L8.19135 14.1681L11.0302 15.5925L10.5774 16.0453L7.74282 16.0444L7.75038 14.6091Z" fill="#111827"/>
<path d="M6.98234 9.65975L8.17956 8.46253L30.2279 10.6132L29.1309 11.7102L7.00055 11.7722L6.98234 9.65975Z" fill="#111827"/>
<g filter="url(#filter2_dd_137_2068)">
<path d="M13.3961 20.3379L14.5933 19.1407L20.9855 21.2849L19.843 22.4274L13.4143 22.4504L13.3961 20.3379Z" fill="#8479E2"/>
</g>
<g filter="url(#filter3_dd_137_2068)">
<path d="M13.3923 15.3634L14.5895 14.1662L30.2267 15.5852L29.2277 16.5841L13.4047 16.8007L13.3923 15.3634Z" fill="#8479E2"/>
</g>
<rect x="8.18884" y="8.47754" width="22.0444" height="2.13333" fill="black"/>
<rect x="14.5889" y="14.1665" width="15.6444" height="1.42222" fill="#A9A1ED"/>
<g filter="url(#filter4_d_137_2068)">
<rect x="14.5889" y="19.1445" width="6.4" height="2.13333" fill="#A9A1ED"/>
</g>
<rect x="8.18884" y="14.1665" width="2.84444" height="1.42222" fill="black"/>
<rect x="8.18884" y="19.1445" width="2.84444" height="2.13333" fill="black"/>
<g filter="url(#filter5_di_137_2068)">
<rect x="13.1666" y="12.7998" width="18.4889" height="4.26667" rx="0.711111" fill="#ED9D9D" fill-opacity="0.6"/>
<rect x="13.4166" y="13.0498" width="17.9889" height="3.76667" rx="0.461111" stroke="#FF0000" stroke-width="0.5"/>
</g>
<g filter="url(#filter6_di_137_2068)">
<rect x="6.76672" y="17.7778" width="5.68889" height="4.97778" rx="0.711111" fill="#ED9D9D" fill-opacity="0.6"/>
<rect x="7.01672" y="18.0278" width="5.18889" height="4.47778" rx="0.461111" stroke="#FF0000" stroke-width="0.5"/>
</g>
<defs>
<filter id="filter0_bdi_137_2068" x="-8.1745" y="-6.33722" width="53.1077" height="44.6739" filterUnits="userSpaceOnUse" color-interpolation-filters="sRGB">
<feFlood flood-opacity="0" result="BackgroundImageFix"/>
<feGaussianBlur in="BackgroundImageFix" stdDeviation="5.74991"/>
<feComposite in2="SourceAlpha" operator="in" result="effect1_backgroundBlur_137_2068"/>
<feColorMatrix in="SourceAlpha" type="matrix" values="0 0 0 0 0 0 0 0 0 0 0 0 0 0 0 0 0 0 127 0" result="hardAlpha"/>
<feOffset dy="1.43748"/>
<feGaussianBlur stdDeviation="1.43748"/>
<feColorMatrix type="matrix" values="0 0 0 0 0 0 0 0 0 0 0 0 0 0 0 0 0 0 0.03 0"/>
<feBlend mode="normal" in2="effect1_backgroundBlur_137_2068" result="effect2_dropShadow_137_2068"/>
<feBlend mode="normal" in="SourceGraphic" in2="effect2_dropShadow_137_2068" result="shape"/>
<feColorMatrix in="SourceAlpha" type="matrix" values="0 0 0 0 0 0 0 0 0 0 0 0 0 0 0 0 0 0 127 0" result="hardAlpha"/>
<feOffset dx="-0.143748" dy="-0.0718738"/>
<feGaussianBlur stdDeviation="1.43748"/>
<feComposite in2="hardAlpha" operator="arithmetic" k2="-1" k3="1"/>
<feColorMatrix type="matrix" values="0 0 0 0 1 0 0 0 0 1 0 0 0 0 1 0 0 0 0.2 0"/>
<feBlend mode="normal" in2="shape" result="effect3_innerShadow_137_2068"/>
</filter>
<filter id="filter1_bdi_137_2068" x="-7.93316" y="-6.93292" width="52.8663" height="44.3331" filterUnits="userSpaceOnUse" color-interpolation-filters="sRGB">
<feFlood flood-opacity="0" result="BackgroundImageFix"/>
<feGaussianBlur in="BackgroundImageFix" stdDeviation="5.74991"/>
<feComposite in2="SourceAlpha" operator="in" result="effect1_backgroundBlur_137_2068"/>
<feColorMatrix in="SourceAlpha" type="matrix" values="0 0 0 0 0 0 0 0 0 0 0 0 0 0 0 0 0 0 127 0" result="hardAlpha"/>
<feOffset dy="1.43748"/>
<feGaussianBlur stdDeviation="1.43748"/>
<feColorMatrix type="matrix" values="0 0 0 0 0 0 0 0 0 0 0 0 0 0 0 0 0 0 0.03 0"/>
<feBlend mode="normal" in2="effect1_backgroundBlur_137_2068" result="effect2_dropShadow_137_2068"/>
<feBlend mode="normal" in="SourceGraphic" in2="effect2_dropShadow_137_2068" result="shape"/>
<feColorMatrix in="SourceAlpha" type="matrix" values="0 0 0 0 0 0 0 0 0 0 0 0 0 0 0 0 0 0 127 0" result="hardAlpha"/>
<feOffset dx="-0.143748" dy="-0.0718738"/>
<feGaussianBlur stdDeviation="1.43748"/>
<feComposite in2="hardAlpha" operator="arithmetic" k2="-1" k3="1"/>
<feColorMatrix type="matrix" values="0 0 0 0 1 0 0 0 0 1 0 0 0 0 1 0 0 0 0.2 0"/>
<feBlend mode="normal" in2="shape" result="effect3_innerShadow_137_2068"/>
</filter>
<filter id="filter2_dd_137_2068" x="10.5212" y="17.7031" width="13.3393" height="10.4359" filterUnits="userSpaceOnUse" color-interpolation-filters="sRGB">
<feFlood flood-opacity="0" result="BackgroundImageFix"/>
<feColorMatrix in="SourceAlpha" type="matrix" values="0 0 0 0 0 0 0 0 0 0 0 0 0 0 0 0 0 0 127 0" result="hardAlpha"/>
<feOffset dy="2.84444"/>
<feGaussianBlur stdDeviation="1.42222"/>
<feComposite in2="hardAlpha" operator="out"/>
<feColorMatrix type="matrix" values="0 0 0 0 0 0 0 0 0 0 0 0 0 0 0 0 0 0 0.25 0"/>
<feBlend mode="overlay" in2="BackgroundImageFix" result="effect1_dropShadow_137_2068"/>
<feColorMatrix in="SourceAlpha" type="matrix" values="0 0 0 0 0 0 0 0 0 0 0 0 0 0 0 0 0 0 127 0" result="hardAlpha"/>
<feOffset dy="1.43748"/>
<feGaussianBlur stdDeviation="1.43748"/>
<feColorMatrix type="matrix" values="0 0 0 0 0 0 0 0 0 0 0 0 0 0 0 0 0 0 0.03 0"/>
<feBlend mode="normal" in2="effect1_dropShadow_137_2068" result="effect2_dropShadow_137_2068"/>
<feBlend mode="normal" in="SourceGraphic" in2="effect2_dropShadow_137_2068" result="shape"/>
</filter>
<filter id="filter3_dd_137_2068" x="10.5174" y="12.7285" width="22.5843" height="9.76113" filterUnits="userSpaceOnUse" color-interpolation-filters="sRGB">
<feFlood flood-opacity="0" result="BackgroundImageFix"/>
<feColorMatrix in="SourceAlpha" type="matrix" values="0 0 0 0 0 0 0 0 0 0 0 0 0 0 0 0 0 0 127 0" result="hardAlpha"/>
<feOffset dy="2.84444"/>
<feGaussianBlur stdDeviation="1.42222"/>
<feComposite in2="hardAlpha" operator="out"/>
<feColorMatrix type="matrix" values="0 0 0 0 0 0 0 0 0 0 0 0 0 0 0 0 0 0 0.25 0"/>
<feBlend mode="overlay" in2="BackgroundImageFix" result="effect1_dropShadow_137_2068"/>
<feColorMatrix in="SourceAlpha" type="matrix" values="0 0 0 0 0 0 0 0 0 0 0 0 0 0 0 0 0 0 127 0" result="hardAlpha"/>
<feOffset dy="1.43748"/>
<feGaussianBlur stdDeviation="1.43748"/>
<feColorMatrix type="matrix" values="0 0 0 0 0 0 0 0 0 0 0 0 0 0 0 0 0 0 0.03 0"/>
<feBlend mode="normal" in2="effect1_dropShadow_137_2068" result="effect2_dropShadow_137_2068"/>
<feBlend mode="normal" in="SourceGraphic" in2="effect2_dropShadow_137_2068" result="shape"/>
</filter>
<filter id="filter4_d_137_2068" x="11.7139" y="17.7071" width="12.1499" height="7.88321" filterUnits="userSpaceOnUse" color-interpolation-filters="sRGB">
<feFlood flood-opacity="0" result="BackgroundImageFix"/>
<feColorMatrix in="SourceAlpha" type="matrix" values="0 0 0 0 0 0 0 0 0 0 0 0 0 0 0 0 0 0 127 0" result="hardAlpha"/>
<feOffset dy="1.43748"/>
<feGaussianBlur stdDeviation="1.43748"/>
<feColorMatrix type="matrix" values="0 0 0 0 0 0 0 0 0 0 0 0 0 0 0 0 0 0 0.03 0"/>
<feBlend mode="normal" in2="BackgroundImageFix" result="effect1_dropShadow_137_2068"/>
<feBlend mode="normal" in="SourceGraphic" in2="effect1_dropShadow_137_2068" result="shape"/>
</filter>
<filter id="filter5_di_137_2068" x="10.2917" y="11.3623" width="24.2388" height="10.0165" filterUnits="userSpaceOnUse" color-interpolation-filters="sRGB">
<feFlood flood-opacity="0" result="BackgroundImageFix"/>
<feColorMatrix in="SourceAlpha" type="matrix" values="0 0 0 0 0 0 0 0 0 0 0 0 0 0 0 0 0 0 127 0" result="hardAlpha"/>
<feOffset dy="1.43748"/>
<feGaussianBlur stdDeviation="1.43748"/>
<feColorMatrix type="matrix" values="0 0 0 0 0 0 0 0 0 0 0 0 0 0 0 0 0 0 0.03 0"/>
<feBlend mode="normal" in2="BackgroundImageFix" result="effect1_dropShadow_137_2068"/>
<feBlend mode="normal" in="SourceGraphic" in2="effect1_dropShadow_137_2068" result="shape"/>
<feColorMatrix in="SourceAlpha" type="matrix" values="0 0 0 0 0 0 0 0 0 0 0 0 0 0 0 0 0 0 127 0" result="hardAlpha"/>
<feOffset dx="-0.143748" dy="-0.0718738"/>
<feGaussianBlur stdDeviation="1.43748"/>
<feComposite in2="hardAlpha" operator="arithmetic" k2="-1" k3="1"/>
<feColorMatrix type="matrix" values="0 0 0 0 1 0 0 0 0 1 0 0 0 0 1 0 0 0 0.2 0"/>
<feBlend mode="normal" in2="shape" result="effect2_innerShadow_137_2068"/>
</filter>
<filter id="filter6_di_137_2068" x="3.89177" y="16.3404" width="11.4387" height="10.7274" filterUnits="userSpaceOnUse" color-interpolation-filters="sRGB">
<feFlood flood-opacity="0" result="BackgroundImageFix"/>
<feColorMatrix in="SourceAlpha" type="matrix" values="0 0 0 0 0 0 0 0 0 0 0 0 0 0 0 0 0 0 127 0" result="hardAlpha"/>
<feOffset dy="1.43748"/>
<feGaussianBlur stdDeviation="1.43748"/>
<feColorMatrix type="matrix" values="0 0 0 0 0 0 0 0 0 0 0 0 0 0 0 0 0 0 0.03 0"/>
<feBlend mode="normal" in2="BackgroundImageFix" result="effect1_dropShadow_137_2068"/>
<feBlend mode="normal" in="SourceGraphic" in2="effect1_dropShadow_137_2068" result="shape"/>
<feColorMatrix in="SourceAlpha" type="matrix" values="0 0 0 0 0 0 0 0 0 0 0 0 0 0 0 0 0 0 127 0" result="hardAlpha"/>
<feOffset dx="-0.143748" dy="-0.0718738"/>
<feGaussianBlur stdDeviation="1.43748"/>
<feComposite in2="hardAlpha" operator="arithmetic" k2="-1" k3="1"/>
<feColorMatrix type="matrix" values="0 0 0 0 1 0 0 0 0 1 0 0 0 0 1 0 0 0 0.2 0"/>
<feBlend mode="normal" in2="shape" result="effect2_innerShadow_137_2068"/>
</filter>
<linearGradient id="paint0_linear_137_2068" x1="19.2111" y1="17.7778" x2="19.2111" y2="22.7556" gradientUnits="userSpaceOnUse">
<stop stop-color="#05C86A"/>
<stop offset="1" stop-color="#00AF5B"/>
</linearGradient>
<linearGradient id="paint1_linear_137_2068" x1="19.2111" y1="17.6797" x2="19.2111" y2="22.7556" gradientUnits="userSpaceOnUse">
<stop stop-color="#A9A1ED"/>
<stop offset="1" stop-color="#3B28CC"/>
</linearGradient>
<linearGradient id="paint2_linear_137_2068" x1="21.6774" y1="12.7638" x2="4.67387" y2="29.7673" gradientUnits="userSpaceOnUse">
<stop offset="0.572917" stop-color="white" stop-opacity="0"/>
<stop offset="1" stop-color="white" stop-opacity="0.08"/>
</linearGradient>
<linearGradient id="paint3_linear_137_2068" x1="9.70711" y1="0.793555" x2="-2.46448" y2="26.3703" gradientUnits="userSpaceOnUse">
<stop stop-color="white" stop-opacity="0.1"/>
<stop offset="1" stop-color="white" stop-opacity="0"/>
</linearGradient>
<linearGradient id="paint4_linear_137_2068" x1="21.6774" y1="12.7638" x2="-3.89938" y2="24.9354" gradientUnits="userSpaceOnUse">
<stop stop-color="white" stop-opacity="0.5"/>
<stop offset="1" stop-color="white" stop-opacity="0.1"/>
</linearGradient>
<linearGradient id="paint5_linear_137_2068" x1="-4.2096" y1="20.3434" x2="5.96531" y2="37.0068" gradientUnits="userSpaceOnUse">
<stop stop-color="#BFB9F2"/>
<stop offset="1" stop-color="#6050D7"/>
</linearGradient>
<linearGradient id="paint6_linear_137_2068" x1="18.5" y1="4.56689" x2="18.5" y2="25.9002" gradientUnits="userSpaceOnUse">
<stop offset="0.572917" stop-color="white" stop-opacity="0"/>
<stop offset="1" stop-color="white" stop-opacity="0.08"/>
</linearGradient>
<linearGradient id="paint7_linear_137_2068" x1="3.56665" y1="4.56689" x2="12.0131" y2="28.217" gradientUnits="userSpaceOnUse">
<stop stop-color="white" stop-opacity="0.1"/>
<stop offset="1" stop-color="white" stop-opacity="0"/>
</linearGradient>
<linearGradient id="paint8_linear_137_2068" x1="18.5" y1="4.56689" x2="10.0535" y2="28.217" gradientUnits="userSpaceOnUse">
<stop stop-color="white" stop-opacity="0.5"/>
<stop offset="1" stop-color="white" stop-opacity="0.1"/>
</linearGradient>
<linearGradient id="paint9_linear_137_2068" x1="18.5" y1="4.56689" x2="18.5" y2="25.9002" gradientUnits="userSpaceOnUse">
<stop stop-color="white"/>
<stop offset="1" stop-color="white" stop-opacity="0"/>
</linearGradient>
</defs>
</svg>
