<svg width="21" height="21" viewBox="0 0 21 21" fill="none" xmlns="http://www.w3.org/2000/svg">
<path d="M8.7501 12.2502V17.894C8.74994 18.0233 8.72145 18.151 8.66666 18.2682C8.61186 18.3853 8.53208 18.4891 8.43292 18.5721C8.27641 18.7021 8.07857 18.772 7.8751 18.769H7.72198L0.721979 17.5002C0.517337 17.4639 0.332317 17.3559 0.200048 17.1955C0.0677798 17.0352 -0.00309899 16.833 0.000103991 16.6252V12.2502C0.000103991 12.0182 0.0922914 11.7956 0.256386 11.6315C0.42048 11.4674 0.64304 11.3752 0.875104 11.3752H7.8751C8.10717 11.3752 8.32973 11.4674 8.49382 11.6315C8.65792 11.7956 8.7501 12.0182 8.7501 12.2502ZM8.43292 2.42835C8.33498 2.34766 8.22067 2.28924 8.09791 2.25713C7.97515 2.22502 7.84688 2.22 7.72198 2.24241L0.721979 3.51116C0.519207 3.5472 0.335646 3.65361 0.203604 3.81166C0.0715612 3.96971 -0.000499607 4.16927 0.000103991 4.37522V8.75022C0.000103991 8.98229 0.0922914 9.20485 0.256386 9.36894C0.42048 9.53304 0.64304 9.62522 0.875104 9.62522H7.8751C8.10717 9.62522 8.32973 9.53304 8.49382 9.36894C8.65792 9.20485 8.7501 8.98229 8.7501 8.75022V3.10647C8.74994 2.97714 8.72145 2.84941 8.66666 2.73226C8.61186 2.61511 8.53208 2.51138 8.43292 2.42835ZM20.1251 11.3752H11.3751C11.143 11.3752 10.9205 11.4674 10.7564 11.6315C10.5923 11.7956 10.5001 12.0182 10.5001 12.2502V18.5393C10.5021 18.7434 10.5753 18.9403 10.7071 19.0961C10.8389 19.2519 11.0211 19.3567 11.222 19.3924L19.972 20.9893H20.1251C20.3307 20.9934 20.5301 20.9191 20.6829 20.7815C20.7804 20.7018 20.8593 20.6018 20.9141 20.4884C20.9689 20.3751 20.9982 20.2511 21.0001 20.1252V12.2502C21.0001 12.0182 20.9079 11.7956 20.7438 11.6315C20.5797 11.4674 20.3572 11.3752 20.1251 11.3752ZM20.6829 0.208036C20.5871 0.123425 20.4733 0.0617265 20.3502 0.0276164C20.227 -0.00649365 20.0977 -0.0121211 19.972 0.0111604L11.222 1.60804C11.0211 1.64374 10.8389 1.74855 10.7071 1.90434C10.5753 2.06013 10.5021 2.25709 10.5001 2.46116V8.75022C10.5001 8.98229 10.5923 9.20485 10.7564 9.36894C10.9205 9.53304 11.143 9.62522 11.3751 9.62522H20.1251C20.3572 9.62522 20.5797 9.53304 20.7438 9.36894C20.9079 9.20485 21.0001 8.98229 21.0001 8.75022V0.875223C20.9998 0.747482 20.9713 0.62139 20.9164 0.506022C20.8616 0.390655 20.7818 0.288884 20.6829 0.208036Z" fill="white"/>
</svg>
